<?xml version="1.0" encoding="utf-8"?>
<svg viewBox="180.349 6.701 60.527 6.767" width="280" height="140" xmlns="http://www.w3.org/2000/svg">
  <path d="M 4598.96 516.826 C 4598.96 516.826 4628.762 509.056 4666.827 509.056 C 4707.394 509.056 4726.171 513.294 4726.171 513.294 L 4726.171 541.543 C 4726.171 541.543 4705.89 537.775 4677.591 537.775 C 4652.804 537.775 4637.524 540.837 4637.524 540.837 L 4637.524 580.853 L 4714.412 580.853 L 4714.412 609.102 L 4637.524 609.102 L 4637.524 647.235 C 4637.524 647.235 4652.549 649.826 4675.091 649.826 C 4700.386 649.826 4723.171 646.059 4723.171 646.059 L 4723.171 674.544 C 4723.171 674.544 4703.137 678.547 4670.579 678.547 C 4627.258 678.547 4598.96 671.244 4598.96 671.244 L 4598.96 516.826 Z M 4049.506 581.092 C 4048.501 578.734 4047.255 574.262 4046.503 571.671 C 4045.753 574.262 4044.499 578.734 4043.5 581.092 L 4009.436 663.243 C 4003.677 676.895 3994.666 678.547 3978.136 678.547 C 3972.374 678.547 3960.601 677.84 3960.601 677.84 L 3943.073 511.411 L 3981.893 511.411 L 3990.405 622.988 L 4027.218 538.482 C 4029.977 531.891 4035.483 529.3 4046.503 529.3 C 4057.518 529.3 4063.032 531.891 4065.785 538.482 L 4102.597 622.988 L 4111.114 511.411 L 4149.927 511.411 L 4132.399 677.84 C 4132.399 677.84 4120.627 678.547 4114.871 678.547 C 4098.343 678.547 4089.329 676.895 4083.565 663.243 L 4049.506 581.092 Z M 3855.172 546.956 C 3846.907 543.894 3826.869 537.775 3812.097 537.775 C 3796.068 537.775 3784.048 542.953 3784.048 559.433 C 3784.048 573.79 3792.308 582.029 3814.354 582.736 L 3855.172 584.148 L 3855.172 546.956 Z M 3832.131 678.547 C 3797.571 678.547 3770.524 670.541 3760.004 665.596 L 3768.27 638.291 C 3768.27 638.291 3794.82 647.235 3820.86 647.235 C 3843.15 647.235 3854.668 641.353 3854.668 620.638 L 3854.668 608.865 L 3820.86 608.865 C 3763.512 608.865 3746.479 584.148 3746.479 556.84 C 3746.479 520.592 3776.534 509.056 3803.831 509.056 C 3835.635 509.056 3854.17 521.531 3856.422 521.531 C 3858.177 521.531 3864.688 514.943 3893.734 514.943 L 3893.734 630.288 C 3893.734 664.889 3870.948 678.547 3832.131 678.547 L 3832.131 678.547 Z M 4296.938 546.956 C 4288.671 543.894 4268.637 537.775 4253.865 537.775 C 4237.833 537.775 4225.811 542.953 4225.811 559.433 C 4225.811 573.79 4234.078 582.029 4256.115 582.736 L 4296.938 584.148 L 4296.938 546.956 Z M 4273.893 678.547 C 4239.332 678.547 4212.288 670.541 4201.77 665.596 L 4210.034 638.291 C 4210.034 638.291 4236.584 647.235 4262.623 647.235 C 4284.913 647.235 4296.433 641.353 4296.433 620.638 L 4296.433 608.865 L 4262.623 608.865 C 4205.277 608.865 4188.244 584.148 4188.244 556.84 C 4188.244 520.592 4218.299 509.056 4245.598 509.056 C 4277.401 509.056 4295.933 521.531 4298.187 521.531 C 4299.941 521.531 4306.451 514.943 4335.501 514.943 L 4335.501 630.288 C 4335.501 664.889 4312.712 678.547 4273.893 678.547 L 4273.893 678.547 Z M 4888.209 552.842 C 4878.945 548.607 4858.911 541.543 4840.631 541.543 C 4814.076 541.543 4809.572 552.842 4809.572 578.734 L 4809.572 677.134 L 4803.811 677.134 C 4795.05 677.134 4775.515 675.722 4770.756 674.778 L 4770.756 574.026 C 4770.756 530.005 4782.278 509.056 4829.856 509.056 C 4866.171 509.056 4887.457 522.236 4888.955 522.236 C 4889.46 522.236 4901.984 514.943 4927.035 514.943 L 4927.035 674.778 C 4924.28 675.249 4905.487 677.134 4895.968 677.134 L 4888.209 677.134 L 4888.209 552.842 Z M 4972.885 514.943 C 4972.885 514.943 4996.927 509.056 5030.486 509.056 C 5062.292 509.056 5102.36 519.177 5102.36 559.664 C 5102.36 586.034 5081.574 597.332 5047.765 608.865 C 5029.485 615.222 5013.955 620.872 5013.955 632.643 C 5013.955 638.291 5018.467 649.353 5041.754 649.353 C 5063.541 649.353 5085.834 639.939 5085.834 639.939 L 5095.602 667.009 C 5089.084 670.07 5067.798 678.547 5038.251 678.547 C 5006.195 678.547 4974.889 662.537 4974.889 630.288 C 4974.889 597.093 5006.945 586.973 5031.985 579.203 C 5049.021 573.79 5063.294 568.138 5063.294 557.548 C 5063.294 547.195 5057.283 538.245 5028.483 538.245 C 5004.941 538.245 4979.898 543.187 4979.898 543.187 L 4972.885 514.943 Z M 4430.664 647.002 C 4436.925 648.178 4449.199 649.826 4461.468 649.826 C 4489.517 649.826 4511.56 634.996 4511.56 594.973 C 4511.56 556.133 4500.784 537.775 4457.966 537.775 C 4444.19 537.775 4430.664 539.658 4430.664 539.658 L 4430.664 647.002 Z M 4463.222 678.547 C 4441.185 678.547 4410.63 675.015 4391.848 668.66 L 4391.848 514.001 C 4407.378 510.936 4436.431 509.056 4456.714 509.056 C 4525.832 509.056 4552.629 534.48 4552.629 594.973 C 4552.629 647.235 4518.564 678.547 4463.222 678.547" fill="#1b69bc" style="" transform="matrix(0.04464, 0, 0, -0.039924, 13.106245, 33.791294)"/>
</svg>