<?xml version="1.0" encoding="utf-8"?>
<svg viewBox="209.09 146.187 60.578 8.851" width="280" height="140" xmlns="http://www.w3.org/2000/svg">
  <path d="M 247.177 154.632 C 247.177 154.632 248.508 155.038 250.209 155.038 C 252.021 155.038 252.861 154.816 252.861 154.816 L 252.861 153.342 C 252.861 153.342 251.954 153.538 250.69 153.538 C 249.583 153.538 248.9 153.378 248.9 153.378 L 248.9 151.289 L 252.335 151.289 L 252.335 149.813 L 248.9 149.813 L 248.9 147.822 C 248.9 147.822 249.572 147.687 250.578 147.687 C 251.708 147.687 252.727 147.884 252.727 147.884 L 252.727 146.396 C 252.727 146.396 251.831 146.187 250.377 146.187 C 248.441 146.187 247.177 146.569 247.177 146.569 L 247.177 154.632 Z M 222.629 151.276 C 222.584 151.399 222.528 151.633 222.495 151.768 C 222.461 151.633 222.405 151.399 222.361 151.276 L 220.838 146.987 C 220.581 146.274 220.179 146.187 219.44 146.187 C 219.183 146.187 218.656 146.224 218.656 146.224 L 217.873 154.914 L 219.608 154.914 L 219.988 149.089 L 221.633 153.501 C 221.757 153.845 222.003 153.981 222.495 153.981 C 222.987 153.981 223.233 153.845 223.356 153.501 L 225.001 149.089 L 225.382 154.914 L 227.115 154.914 L 226.332 146.224 C 226.332 146.224 225.806 146.187 225.549 146.187 C 224.81 146.187 224.408 146.274 224.15 146.987 L 222.629 151.276 Z M 213.946 153.059 C 213.577 153.218 212.682 153.538 212.022 153.538 C 211.306 153.538 210.769 153.268 210.769 152.407 C 210.769 151.658 211.138 151.227 212.122 151.19 L 213.946 151.116 L 213.946 153.059 Z M 212.917 146.187 C 211.373 146.187 210.165 146.605 209.695 146.863 L 210.064 148.289 C 210.064 148.289 211.25 147.822 212.413 147.822 C 213.409 147.822 213.924 148.13 213.924 149.211 L 213.924 149.826 L 212.413 149.826 C 209.852 149.826 209.09 151.116 209.09 152.542 C 209.09 154.435 210.433 155.038 211.652 155.038 C 213.074 155.038 213.902 154.386 214.002 154.386 C 214.081 154.386 214.371 154.73 215.67 154.73 L 215.67 148.708 C 215.67 146.901 214.651 146.187 212.917 146.187 Z M 233.683 153.059 C 233.314 153.218 232.419 153.538 231.759 153.538 C 231.043 153.538 230.505 153.268 230.505 152.407 C 230.505 151.658 230.875 151.227 231.86 151.19 L 233.683 151.116 L 233.683 153.059 Z M 232.654 146.187 C 231.11 146.187 229.901 146.605 229.432 146.863 L 229.801 148.289 C 229.801 148.289 230.986 147.822 232.15 147.822 C 233.146 147.822 233.66 148.13 233.66 149.211 L 233.66 149.826 L 232.15 149.826 C 229.588 149.826 228.827 151.116 228.827 152.542 C 228.827 154.435 230.17 155.038 231.39 155.038 C 232.81 155.038 233.638 154.386 233.739 154.386 C 233.817 154.386 234.108 154.73 235.406 154.73 L 235.406 148.708 C 235.406 146.901 234.389 146.187 232.654 146.187 Z M 260.1 152.752 C 259.686 152.973 258.79 153.342 257.974 153.342 C 256.788 153.342 256.587 152.752 256.587 151.399 L 256.587 146.261 L 256.329 146.261 C 255.938 146.261 255.065 146.335 254.852 146.384 L 254.852 151.645 C 254.852 153.944 255.367 155.038 257.493 155.038 C 259.116 155.038 260.066 154.349 260.133 154.349 C 260.156 154.349 260.715 154.73 261.834 154.73 L 261.834 146.384 C 261.711 146.36 260.872 146.261 260.446 146.261 L 260.1 146.261 L 260.1 152.752 Z M 263.883 154.73 C 263.883 154.73 264.957 155.038 266.456 155.038 C 267.877 155.038 269.668 154.509 269.668 152.395 C 269.668 151.018 268.739 150.428 267.228 149.826 C 266.412 149.494 265.718 149.199 265.718 148.584 C 265.718 148.289 265.92 147.712 266.96 147.712 C 267.933 147.712 268.929 148.203 268.929 148.203 L 269.366 146.789 C 269.075 146.63 268.124 146.187 266.803 146.187 C 265.372 146.187 263.972 147.024 263.972 148.708 C 263.972 150.441 265.405 150.969 266.523 151.375 C 267.284 151.658 267.922 151.953 267.922 152.506 C 267.922 153.047 267.653 153.514 266.367 153.514 C 265.316 153.514 264.196 153.256 264.196 153.256 L 263.883 154.73 Z M 239.658 147.834 C 239.937 147.773 240.486 147.687 241.034 147.687 C 242.287 147.687 243.272 148.461 243.272 150.551 C 243.272 152.58 242.79 153.538 240.878 153.538 C 240.262 153.538 239.658 153.44 239.658 153.44 L 239.658 147.834 Z M 241.113 146.187 C 240.128 146.187 238.763 146.372 237.924 146.703 L 237.924 154.78 C 238.618 154.94 239.915 155.038 240.822 155.038 C 243.91 155.038 245.107 153.71 245.107 150.551 C 245.107 147.822 243.585 146.187 241.113 146.187" fill="#1b69bc" style=""/>
</svg>