<?xml version="1.0" encoding="utf-8"?>
<!-- Generator: Adobe Illustrator 16.0.3, SVG Export Plug-In . SVG Version: 6.00 Build 0)  -->
<!DOCTYPE svg PUBLIC "-//W3C//DTD SVG 1.1//EN" "http://www.w3.org/Graphics/SVG/1.1/DTD/svg11.dtd">
<svg version="1.1" id="Layer_1" xmlns="http://www.w3.org/2000/svg" xmlns:xlink="http://www.w3.org/1999/xlink" x="0px" y="0px"
	 width="280px" height="140px" viewBox="0 0 280 140" enable-background="new 0 0 280 140" xml:space="preserve">
<g>
	<g>
		<g>
			<path fill="#5D5D5D" d="M56.598,83.041c0,9.383-7.077,14.375-20.845,14.375H4.5V42.649h31.861
				c11.336,0,17.949,5.977,17.949,14.977c0,5.143-3.257,8.778-8.201,11.574C52.346,71.32,56.598,76.004,56.598,83.041"/>
		</g>
	</g>
	<polygon fill="#999999" points="16.917,93.994 13.271,72.359 0,69.076 13.271,65.742 16.754,47.976 20.536,65.742 52.297,69.076 
		20.536,72.359 	"/>
	<polygon fill="#FFFFFF" points="16.872,87.73 14.847,70.832 4.525,69.063 14.847,67.255 16.754,53.074 18.879,67.255 
		43.185,69.063 18.879,70.832 	"/>
	<path fill="none" d="M4.277,42.583v54.768h31.252c13.769,0,20.845-4.994,20.845-14.377c0-7.035-4.252-11.719-10.489-13.84
		c4.944-2.796,8.201-6.431,8.201-11.574c0-9-6.615-14.977-17.949-14.977H4.277z"/>
	<path fill="#5D5D5D" d="M72.75,72.648h-6.859c-0.784,0-1.391-0.6-1.391-1.352v-17.29c0-0.722,0.607-1.352,1.391-1.352h5.442
		c4.167,0,6.643,2.011,6.643,5.164c0,1.71-1.029,3.302-2.597,4.232c2.325,0.691,3.894,2.583,3.894,4.865
		C79.272,70.097,76.587,72.648,72.75,72.648 M71.392,54.938h-4.143v6.393h4.143c2.204,0,3.806-1.38,3.806-3.303
		C75.198,56.138,73.809,54.938,71.392,54.938 M72.719,63.584h-5.471v6.784h5.471c2.325,0,3.744-1.441,3.744-3.452
		C76.463,65.022,74.984,63.584,72.719,63.584"/>
	<path fill="#5D5D5D" d="M93.742,72.979c-5.345,0-7.595-3.782-7.595-7.924V52.655h2.747v12.46c0,3.212,1.438,5.461,4.849,5.461
		c3.382,0,4.847-2.25,4.847-5.461v-12.46h2.75v12.399C101.338,69.224,99.056,72.979,93.742,72.979"/>
	<path fill="#5D5D5D" d="M111.596,72.648c-0.754,0-1.36-0.631-1.36-1.352V52.655h2.748v17.563h8.228v2.431H111.596z"/>
	<path fill="#5D5D5D" d="M160.559,72.648l-2.086-5.133h-7.492l-2.084,5.133h-2.777l7.445-19.423
		c0.213-0.509,0.664-0.781,1.178-0.781c0.516,0,0.938,0.272,1.148,0.781l7.445,19.423H160.559z M154.742,56.408l-2.918,8.976h5.836
		L154.742,56.408z"/>
	<polygon fill="#5D5D5D" points="191.283,55.057 191.283,72.648 188.535,72.648 188.535,55.057 182.449,55.057 182.449,52.655 
		197.367,52.655 197.367,55.057 	"/>
	<path fill="#5D5D5D" d="M213.893,72.648l-2.082-5.133h-7.494l-2.082,5.133h-2.779l7.447-19.423
		c0.209-0.509,0.662-0.781,1.176-0.781c0.516,0,0.938,0.272,1.148,0.781l7.445,19.423H213.893z M208.078,56.408l-2.916,8.976h5.836
		L208.078,56.408z"/>
	<path fill="#5D5D5D" d="M230.73,72.648h-6.861c-0.785,0-1.389-0.6-1.389-1.352v-17.29c0-0.722,0.604-1.352,1.389-1.352h5.441
		c4.168,0,6.643,2.011,6.643,5.164c0,1.71-1.027,3.302-2.598,4.232c2.326,0.691,3.896,2.583,3.896,4.865
		C237.252,70.097,234.566,72.648,230.73,72.648 M229.373,54.938h-4.145v6.393h4.145c2.203,0,3.803-1.38,3.803-3.303
		C233.176,56.138,231.787,54.938,229.373,54.938 M230.699,63.584h-5.471v6.784h5.471c2.326,0,3.744-1.441,3.744-3.452
		C234.443,65.022,232.965,63.584,230.699,63.584"/>
	<path fill="#5D5D5D" d="M256.455,72.648l-2.084-5.133h-7.496l-2.082,5.133h-2.777l7.445-19.423
		c0.211-0.509,0.662-0.781,1.178-0.781c0.512,0,0.936,0.272,1.146,0.781l7.445,19.423H256.455z M250.639,56.408l-2.918,8.976h5.834
		L250.639,56.408z"/>
	<path fill="#5D5D5D" d="M140.41,69.903c-1.474,0.446-3.175,0.673-4.659,0.673c-4.892,0-8.513-3.09-8.513-7.893
		c0-4.805,3.682-7.928,8.513-7.928c1.486,0,3.292,0.195,4.659,0.594V52.96c-1.468-0.414-3.177-0.605-4.87-0.605
		c-6.338,0-11.08,4.261-11.08,10.328c0,6.063,4.861,10.295,11.08,10.295c1.623,0,3.394-0.213,4.87-0.66V69.903z"/>
	<rect x="137.663" y="62.753" fill="#5D5D5D" width="2.747" height="9.267"/>
	<path fill="#5D5D5D" d="M277.713,70.225c-1.123,0.228-2.299,0.351-3.361,0.351c-4.893,0-8.52-3.092-8.52-7.893
		c0-4.805,3.686-7.928,8.52-7.928c1.049,0,2.258,0.1,3.361,0.3v-2.387c-1.137-0.208-2.359-0.313-3.574-0.313
		c-6.34,0-11.078,4.264-11.078,10.328c0,6.063,4.857,10.297,11.078,10.297c1.172,0,2.418-0.119,3.574-0.348V70.225z"/>
	<path fill="#5D5D5D" d="M178.842,58.58c0-3.241-2.568-5.945-6.436-5.943l-7.6,0.002l0.99,2.374l6.461-0.005
		c2.051,0,3.834,1.291,3.836,3.574c0,2.281-3.131,3.573-5.186,3.573h-2.08l4.383,10.476l3.201-0.002l-3.701-8.463
		C176.479,63.694,178.842,61.159,178.842,58.58"/>
	<path fill="#999999" d="M73.539,83.236c0,2.465-2.034,4.424-4.493,4.424s-4.495-1.959-4.495-4.424c0-2.459,2.036-4.445,4.495-4.445
		S73.539,80.777,73.539,83.236 M65.511,83.223c0,1.934,1.579,3.549,3.535,3.549s3.535-1.615,3.535-3.549
		c0-1.943-1.557-3.547-3.535-3.547C67.069,79.676,65.511,81.279,65.511,83.223"/>
	<path fill="#999999" d="M81.465,87.51h-0.96v-8.936h1.885c0.744,0,1.509,0.023,2.139,0.455c0.641,0.443,0.971,1.557,0.971,2.318
		c0,0.693-0.285,1.145-0.823,1.586c-0.581,0.479-1.325,0.57-2.046,0.57h-1.165V87.51z M81.465,82.617h1.108
		c1.063,0,1.968-0.064,1.968-1.295c0-1.396-1.133-1.861-2.253-1.861h-0.823V82.617z"/>
	<polygon fill="#999999" points="92.524,78.594 96.997,78.594 96.997,79.482 93.486,79.482 93.486,82.594 96.894,82.594 
		96.894,83.482 93.486,83.482 93.486,86.582 96.997,86.582 96.997,87.469 92.524,87.469 	"/>
	<polygon fill="#999999" points="105.501,78.574 112.538,85.578 112.538,78.938 113.497,78.938 113.497,87.898 106.458,80.906 
		106.458,87.51 105.501,87.51 	"/>
	<polygon fill="#999999" points="130.666,87.51 129.704,87.51 129.704,79.461 127.623,79.461 127.623,78.576 132.77,78.576 
		132.77,79.461 130.666,79.461 	"/>
	<path fill="#999999" d="M148.533,83.236c0,2.465-2.034,4.424-4.493,4.424s-4.497-1.959-4.497-4.424
		c0-2.459,2.038-4.445,4.497-4.445S148.533,80.777,148.533,83.236 M140.505,83.223c0,1.934,1.578,3.549,3.535,3.549
		c1.956,0,3.532-1.615,3.532-3.549c0-1.943-1.554-3.547-3.532-3.547C142.061,79.676,140.505,81.279,140.505,83.223"/>
	<polygon fill="#999999" points="165.48,87.51 164.518,87.51 164.518,79.523 162.438,79.523 162.438,78.639 167.585,78.639 
		167.585,79.523 165.48,79.523 	"/>
	<polygon fill="#999999" points="180.564,82.592 180.564,78.523 181.457,78.523 181.457,87.459 180.564,87.459 180.564,83.482 
		176.47,83.482 176.47,87.459 175.579,87.459 175.579,78.523 176.47,78.523 176.47,82.592 	"/>
	<polygon fill="#999999" points="189.519,78.637 193.991,78.637 193.991,79.523 190.479,79.523 190.479,82.574 193.888,82.574 
		193.888,83.461 190.479,83.461 190.479,86.625 193.991,86.625 193.991,87.51 189.519,87.51 	"/>
	<polygon fill="#999999" points="210.463,79.494 210.481,82.605 213.353,82.605 213.353,83.494 210.481,83.494 210.493,87.512 
		209.532,87.512 209.502,78.609 213.426,78.609 213.426,79.494 	"/>
	<path fill="#999999" d="M222.431,84.041c0,0.637-0.021,1.365,0.363,1.91c0.364,0.525,1.072,0.82,1.68,0.82
		c0.595,0,1.244-0.285,1.633-0.762c0.438-0.543,0.407-1.297,0.407-1.969v-5.51h0.927v5.773c0,0.934-0.065,1.67-0.73,2.375
		c-0.574,0.639-1.4,0.98-2.236,0.98c-0.786,0-1.591-0.309-2.151-0.877c-0.73-0.717-0.817-1.502-0.817-2.479v-5.773h0.926V84.041z"/>
	<polygon fill="#999999" points="237.5,87.51 236.54,87.51 236.54,79.492 234.458,79.492 234.458,78.607 239.604,78.607 
		239.604,79.492 237.5,79.492 	"/>
	<path fill="#999999" d="M247.494,84.041c0,0.637-0.021,1.365,0.36,1.91c0.364,0.525,1.067,0.82,1.671,0.82
		c0.592,0,1.237-0.285,1.624-0.762c0.438-0.543,0.403-1.297,0.403-1.969v-5.486h0.924v5.75c0,0.934-0.067,1.67-0.726,2.375
		c-0.572,0.639-1.396,0.98-2.226,0.98c-0.78,0-1.581-0.309-2.141-0.877c-0.725-0.717-0.812-1.502-0.812-2.479v-5.75h0.921V84.041z"
		/>
	<path fill="#999999" d="M261.5,87.51h-0.959v-8.572h1.246c1.634,0,2.713,0.463,2.713,2.398c0,1.32-0.393,2.217-1.719,2.332
		l2.743,3.842h-1.176l-2.607-3.762H261.5V87.51z M261.5,82.906h0.298c1.087,0,1.742-0.172,1.742-1.504
		c0-1.408-0.598-1.578-1.753-1.578H261.5V82.906z"/>
	<polygon fill="#999999" points="273.61,78.637 278.083,78.637 278.083,79.523 274.571,79.523 274.571,82.637 277.979,82.637 
		277.979,83.523 274.571,83.523 274.571,86.625 278.083,86.625 278.083,87.51 273.61,87.51 	"/>
</g>
</svg>
