<?xml version="1.0" encoding="utf-8"?>
<!-- Generator: Adobe Illustrator 16.0.3, SVG Export Plug-In . SVG Version: 6.00 Build 0)  -->
<!DOCTYPE svg PUBLIC "-//W3C//DTD SVG 1.1//EN" "http://www.w3.org/Graphics/SVG/1.1/DTD/svg11.dtd">
<svg version="1.1" id="Layer_1" xmlns="http://www.w3.org/2000/svg" xmlns:xlink="http://www.w3.org/1999/xlink" x="0px" y="0px"
	 width="280px" height="140px" viewBox="-2 53 280 140" enable-background="new -2 53 280 140" xml:space="preserve">
<path fill="#5D5D5D" d="M37.521,108.537h6.928c1.421,0,2.674,0.099,3.757,0.296c1.083,0.198,2.074,0.601,2.975,1.206
	c1.069,0.698,1.917,1.625,2.544,2.779c0.626,1.153,0.939,2.376,0.939,3.667c0,2.439-1.09,4.437-3.269,5.992
	c1.552,0.633,2.753,1.616,3.601,2.95c0.848,1.333,1.272,2.863,1.272,4.593c0,1.373-0.326,2.677-0.979,3.91s-1.54,2.214-2.661,2.939
	c-0.783,0.476-1.618,0.838-2.505,1.089c-0.418,0.119-0.852,0.222-1.301,0.307c-0.45,0.086-0.845,0.13-1.185,0.13l-3.151,0.099
	h-6.966V108.537z M43.693,121.338c1.365,0,2.457-0.05,3.276-0.148c0.818-0.099,1.582-0.339,2.291-0.723
	c0.709-0.381,1.291-0.969,1.746-1.76c0.455-0.792,0.683-1.603,0.683-2.434c0-0.818-0.218-1.6-0.654-2.346
	c-0.435-0.744-1.004-1.335-1.707-1.771c-0.611-0.383-1.368-0.63-2.271-0.741c-0.904-0.112-1.94-0.168-3.111-0.168h-3.452v10.09
	H43.693z M44.155,135.783c1.344,0,2.526-0.054,3.552-0.16c1.024-0.104,1.921-0.355,2.691-0.752c0.834-0.437,1.526-1.11,2.073-2.022
	c0.548-0.911,0.822-1.843,0.822-2.794c0-1.255-0.327-2.364-0.978-3.33c-0.653-0.964-1.572-1.651-2.76-2.061
	c-1.187-0.41-3.163-0.615-5.929-0.615h-3.131v11.734H44.155z"/>
<path fill="#5D5D5D" d="M64.479,108.576v18.141c0,2.721,0.45,4.804,1.352,6.249c0.605,0.973,1.416,1.735,2.433,2.288
	c1.017,0.552,2.104,0.828,3.263,0.828c1.029,0,2.037-0.24,3.021-0.72c0.984-0.479,1.782-1.147,2.394-2.001
	c0.611-0.855,1.026-1.834,1.245-2.938c0.219-1.104,0.329-2.34,0.329-3.706v-18.141h2.938v18.142c0,1.84-0.145,3.421-0.435,4.742
	s-0.877,2.567-1.759,3.737s-2.014,2.091-3.393,2.76c-1.379,0.67-2.829,1.006-4.35,1.006c-1.483,0-2.903-0.313-4.263-0.937
	c-1.36-0.625-2.484-1.501-3.374-2.633c-0.645-0.827-1.137-1.709-1.479-2.642c-0.341-0.935-0.57-1.885-0.686-2.851
	c-0.116-0.967-0.174-2.027-0.174-3.184v-18.142H64.479z"/>
<path fill="#5D5D5D" d="M87.507,108.514h2.928v27.246h12.06v2.711H87.507V108.514z"/>
<path fill="#5D5D5D" d="M106.522,108.514h6.924c1.421,0,2.673,0.099,3.755,0.296c1.082,0.198,2.073,0.601,2.973,1.206
	c1.069,0.698,1.917,1.625,2.542,2.779c0.626,1.153,0.938,2.376,0.938,3.667c0,2.439-1.089,4.437-3.266,5.992
	c1.551,0.633,2.751,1.616,3.599,2.95c0.847,1.333,1.271,2.863,1.271,4.593c0,1.373-0.326,2.677-0.978,3.91s-1.539,2.214-2.66,2.939
	c-0.782,0.476-1.617,0.838-2.503,1.089c-0.417,0.119-0.851,0.222-1.3,0.307c-0.45,0.086-0.845,0.13-1.183,0.13l-3.149,0.099h-6.963
	V108.514z M112.691,121.314c1.364,0,2.456-0.05,3.275-0.148c0.818-0.099,1.581-0.339,2.29-0.723c0.709-0.381,1.291-0.969,1.744-1.76
	c0.455-0.792,0.682-1.603,0.682-2.434c0-0.818-0.217-1.6-0.653-2.346c-0.435-0.744-1.003-1.335-1.705-1.771
	c-0.611-0.383-1.368-0.63-2.271-0.741c-0.902-0.112-1.939-0.168-3.108-0.168h-3.449v10.09H112.691z M113.152,135.76
	c1.343,0,2.526-0.054,3.55-0.16c1.023-0.104,1.92-0.355,2.689-0.752c0.834-0.437,1.526-1.11,2.073-2.022
	c0.548-0.911,0.822-1.843,0.822-2.794c0-1.255-0.327-2.364-0.978-3.33c-0.652-0.964-1.572-1.651-2.758-2.061
	c-1.187-0.41-3.163-0.615-5.926-0.615h-3.129v11.734H113.152z"/>
<path fill="#5D5D5D" d="M129.51,108.514h7.057c0.941,0,1.8,0.02,2.578,0.058c0.777,0.041,1.513,0.106,2.205,0.199
	c1.334,0.185,2.548,0.587,3.647,1.207c1.489,0.87,2.633,2.034,3.43,3.491c0.798,1.458,1.195,3.063,1.195,4.816
	c0,1.597-0.391,3.073-1.175,4.433c-0.785,1.357-1.85,2.452-3.195,3.283c-0.691,0.423-1.396,0.743-2.116,0.959
	c-0.718,0.219-1.476,0.328-2.272,0.328l8.339,11.189l-3.677-0.007l-10.056-13.574h0.88c1.5,0,2.74-0.049,3.718-0.148
	c0.979-0.099,1.892-0.32,2.739-0.664c1.215-0.579,2.156-1.396,2.828-2.453c0.673-1.055,1.009-2.262,1.009-3.62
	c0-1.055-0.245-2.064-0.734-3.028c-0.49-0.962-1.165-1.75-2.027-2.363c-0.86-0.614-1.801-0.999-2.817-1.158
	c-1.02-0.157-2.311-0.236-3.877-0.236h-4.699v27.246h-2.979V108.514z"/>
<path fill="#5D5D5D" d="M184.645,123.422c0,2.821-0.719,5.432-2.157,7.831c-1.438,2.399-3.38,4.288-5.826,5.665
	c-2.447,1.379-5.069,2.066-7.866,2.066c-2.742,0-5.336-0.685-7.775-2.056c-2.441-1.371-4.391-3.237-5.848-5.597
	c-1.458-2.36-2.187-4.93-2.187-7.712c0-2.808,0.713-5.408,2.138-7.801s3.354-4.282,5.787-5.665c2.434-1.385,5.063-2.076,7.885-2.076
	c2.797,0,5.409,0.682,7.836,2.046s4.369,3.228,5.828,5.586C183.916,118.07,184.645,120.641,184.645,123.422z M162.425,112.646
	c-1.966,1.121-3.53,2.663-4.69,4.626c-1.16,1.965-1.741,4.08-1.741,6.348s0.595,4.353,1.781,6.257
	c1.188,1.904,2.776,3.418,4.768,4.538c1.992,1.121,4.09,1.681,6.294,1.681c1.7,0,3.346-0.333,4.936-0.998
	c1.59-0.666,2.972-1.578,4.146-2.738s2.088-2.512,2.741-4.054c0.652-1.541,0.979-3.17,0.979-4.884c0-2.268-0.585-4.349-1.752-6.247
	s-2.74-3.414-4.719-4.548c-0.977-0.54-1.999-0.955-3.067-1.245c-1.067-0.29-2.155-0.436-3.264-0.436h-0.219
	C166.414,110.946,164.35,111.514,162.425,112.646z"/>
<path fill="#5D5D5D" d="M189.512,108.514h2.935v17.233l13.483-17.233l3.703,0.002L198.1,123.137l11.53,15.334l-3.615-0.011
	l-9.766-12.955l-3.803,4.766v8.2h-2.935V108.514z"/>
<path fill="#5D5D5D" d="M213.517,108.514h16.198v2.944h-13.221v11.136H228.5v2.844h-12.006v10.094h13.221v2.939h-16.198V108.514z"/>
<path fill="#5D5D5D" d="M235.544,108.529h7.002c0.935,0,1.786,0.02,2.558,0.058c0.771,0.041,1.502,0.106,2.188,0.199
	c1.322,0.185,2.529,0.587,3.618,1.207c1.479,0.87,2.613,2.034,3.403,3.491c0.792,1.458,1.188,3.063,1.188,4.816
	c0,1.597-0.389,3.073-1.167,4.433c-0.777,1.357-1.835,2.452-3.169,3.283c-0.688,0.423-1.387,0.743-2.1,0.959
	c-0.713,0.219-1.466,0.328-2.257,0.328l8.275,11.189l-3.648-0.007l-9.979-13.574h0.874c1.489,0,2.718-0.049,3.689-0.148
	c0.97-0.099,1.877-0.32,2.719-0.664c1.203-0.579,2.138-1.396,2.805-2.453c0.668-1.055,1-2.262,1-3.62
	c0-1.055-0.242-2.064-0.729-3.028c-0.485-0.962-1.156-1.75-2.011-2.363c-0.854-0.614-1.786-0.999-2.796-1.158
	c-1.011-0.157-2.292-0.236-3.848-0.236H238.5v27.246h-2.956V108.529z"/>
<path fill="#5D5D5D" d="M260.804,130.08c0,0.526,0.069,1.033,0.207,1.519c0.139,0.487,0.346,0.98,0.622,1.479
	c0.539,0.907,1.261,1.637,2.163,2.189c0.903,0.552,1.9,0.828,2.993,0.828c1.119,0,2.156-0.257,3.11-0.771
	c0.956-0.514,1.703-1.212,2.243-2.096c0.276-0.461,0.486-0.938,0.632-1.435c0.145-0.492,0.218-1.03,0.218-1.61
	c0-0.804-0.186-1.589-0.554-2.353c-0.369-0.766-0.875-1.398-1.521-1.899c-0.303-0.249-0.608-0.467-0.919-0.651
	c-0.309-0.186-0.662-0.355-1.057-0.514c-0.606-0.252-1.482-0.522-2.628-0.811c-1.318-0.344-2.358-0.667-3.123-0.97
	c-0.764-0.303-1.481-0.738-2.153-1.305c-1.674-1.438-2.509-3.303-2.509-5.596c0-1.582,0.379-2.986,1.138-4.212
	c0.758-1.227,1.786-2.172,3.087-2.837c1.299-0.666,2.727-0.999,4.283-0.999c1.49,0,2.869,0.356,4.136,1.068s2.266,1.689,2.997,2.929
	c0.732,1.24,1.099,2.604,1.099,4.097h-3.107c0-0.503-0.068-0.964-0.207-1.387c-0.139-0.421-0.347-0.856-0.623-1.306
	c-0.475-0.791-1.118-1.411-1.929-1.86c-0.812-0.447-1.719-0.672-2.721-0.672c-0.938,0-1.804,0.241-2.604,0.721
	c-0.798,0.482-1.421,1.115-1.869,1.899c-0.448,0.783-0.673,1.65-0.673,2.601c0,1.119,0.271,2.017,0.811,2.688
	c0.542,0.672,1.215,1.187,2.02,1.541c0.343,0.146,0.788,0.312,1.335,0.496s1.18,0.379,1.9,0.582
	c0.719,0.205,1.361,0.396,1.929,0.574c0.566,0.178,1.036,0.339,1.405,0.484c0.726,0.264,1.483,0.751,2.275,1.464
	c0.883,0.764,1.568,1.696,2.058,2.798c0.487,1.1,0.732,2.257,0.732,3.47c0,1.607-0.413,3.074-1.237,4.399
	c-0.824,1.323-1.942,2.383-3.353,3.173c-1.413,0.79-2.923,1.187-4.532,1.187c-1.689,0-3.232-0.376-4.63-1.126
	c-1.398-0.749-2.523-1.813-3.373-3.188c-0.852-1.375-1.277-2.905-1.277-4.591H260.804z"/>
<g>
	<path fill="#5D5D5D" d="M2.798,132.5c0.396-0.684,0.805-1.359,1.214-2c0.223-0.349,0.445-0.681,0.666-1
		c0.57-0.825,1.122-1.522,1.619-2c0.117-0.112,0.235-0.229,0.345-0.314c0.309-0.241,0.701-0.469,1.149-0.686
		c1.4-0.677,3.375-1.249,5.304-1.806c0.223-0.064,0.447-0.13,0.67-0.194c1.092-0.317,2.176-0.644,3.165-1
		c1.107-0.398,2.092-0.835,2.814-1.339c0.241-0.168,0.505-0.401,0.779-0.661c0.303-0.288,0.623-0.623,0.955-1
		c0.521-0.591,1.067-1.267,1.621-2c0.246-0.325,0.493-0.66,0.738-1c0.476-0.657,0.945-1.333,1.397-2c0.229-0.338,0.453-0.671,0.67-1
		c0.47-0.71,0.909-1.39,1.297-2c0.23-0.363,0.438-0.693,0.628-1c0.576-0.926,0.958-1.563,1.016-1.661c0,0,0.325-0.441,0.263-0.339
		H-0.5v2h27.148c-0.196,0.312-0.409,0.646-0.636,1H-0.5v2h25.202c-0.222,0.331-0.448,0.665-0.679,1H-0.5v2h23.101
		c-0.254,0.345-0.508,0.679-0.758,1H-0.5v2h20.628c-0.345,0.351-0.667,0.64-0.956,0.841c-0.078,0.055-0.173,0.106-0.259,0.159H-0.5
		v2h14.123c-0.269,0.078-0.538,0.156-0.806,0.233c-0.884,0.255-1.746,0.507-2.565,0.767H-0.5v2h6.413
		c-0.309,0.259-0.636,0.591-0.978,1H-0.5v2h3.977c-0.215,0.324-0.429,0.657-0.642,1H-0.5v2h2.146c-0.192,0.338-0.379,0.671-0.561,1
		H-0.5v2v2.951v0.049h0.102l0.016,0.008c0,0,0.003-0.007,0.004-0.008c0.023-0.048,0.409-0.847,1.002-2
		c0.16-0.313,0.332-0.643,0.521-1c0.329-0.624,0.695-1.303,1.084-2C2.414,133.169,2.604,132.834,2.798,132.5z"/>
	<path fill="#5D5D5D" d="M29.841,111.182c-0.006,0.01-0.075,0.125-0.192,0.318c-0.139,0.229-0.347,0.57-0.613,1
		c-0.341,0.55-0.772,1.237-1.263,2c-0.207,0.321-0.425,0.656-0.65,1c-0.425,0.647-0.879,1.325-1.345,2
		c-0.231,0.335-0.466,0.67-0.702,1c-0.499,0.699-1.002,1.379-1.492,2c-0.28,0.355-0.555,0.689-0.821,1
		c-0.644,0.748-1.24,1.349-1.736,1.695c-0.15,0.104-0.319,0.205-0.495,0.305c-0.639,0.36-1.437,0.69-2.324,1
		c-1.099,0.384-2.327,0.739-3.536,1.088c-1.048,0.303-2.074,0.6-3.022,0.912c-0.941,0.311-1.804,0.637-2.535,1
		c-0.47,0.233-0.889,0.482-1.235,0.753c-0.374,0.292-0.782,0.728-1.205,1.247c-0.248,0.304-0.501,0.641-0.757,1
		c-0.438,0.614-0.882,1.29-1.32,2c-0.204,0.33-0.405,0.663-0.604,1c-0.396,0.673-0.778,1.348-1.136,2
		c-0.188,0.343-0.369,0.677-0.542,1c-0.401,0.753-0.748,1.427-1.03,1.984h1.125c-0.002,0.005-0.006,0.011-0.008,0.016H30.5v-2H3.455
		c-0.197,0.365-0.384,0.717-0.559,1.05c0.175-0.333,0.362-0.684,0.559-1.05c0.176-0.326,0.358-0.66,0.548-1H30.5v-2H5.155
		c0.204-0.34,0.41-0.675,0.616-1H30.5v-2H7.153c0.29-0.378,0.573-0.725,0.84-1H30.5v-2H11.823c0.989-0.331,2.062-0.644,3.125-0.951
		c0.056-0.017,0.112-0.032,0.168-0.049H30.5v-2h-9.722c0.296-0.155,0.578-0.314,0.82-0.484c0.198-0.138,0.41-0.314,0.631-0.516H30.5
		v-2h-6.445c0.259-0.319,0.521-0.652,0.786-1H30.5v-2h-4.201c0.234-0.334,0.464-0.667,0.691-1h3.51v-2h-2.181
		c0.226-0.348,0.441-0.682,0.644-1H30.5v-3.297L29.841,111.182z"/>
</g>
</svg>
