<?xml version="1.0" encoding="utf-8"?>
<!-- Generator: Adobe Illustrator 16.0.3, SVG Export Plug-In . SVG Version: 6.00 Build 0)  -->
<!DOCTYPE svg PUBLIC "-//W3C//DTD SVG 1.1//EN" "http://www.w3.org/Graphics/SVG/1.1/DTD/svg11.dtd">
<svg version="1.1" id="Layer_1" xmlns="http://www.w3.org/2000/svg" xmlns:xlink="http://www.w3.org/1999/xlink" x="0px" y="0px"
	 width="280px" height="140px" viewBox="-2 53 280 140" enable-background="new -2 53 280 140" xml:space="preserve">
<g>
	<path fill="#5D5D5D" d="M166.301,111.193c-0.363,0.2-0.92,0.363-1.674,0.49c-0.752,0.126-1.564,0.19-2.434,0.19
		c-1.453,0-2.723-0.25-3.811-0.749c-1.088-0.498-1.996-1.184-2.721-2.054c-0.727-0.871-1.275-1.9-1.646-3.089
		c-0.371-1.188-0.557-2.48-0.557-3.877c0-1.379,0.186-2.667,0.557-3.864s0.916-2.23,1.633-3.102s1.615-1.556,2.693-2.055
		c1.08-0.498,2.326-0.748,3.742-0.748c0.979,0,1.836,0.096,2.57,0.286c0.736,0.19,1.283,0.358,1.646,0.503l-0.189,3.129
		c-0.363-0.181-0.83-0.398-1.402-0.652c-0.57-0.254-1.301-0.381-2.189-0.381c-0.727,0-1.412,0.127-2.055,0.381
		c-0.645,0.254-1.211,0.657-1.701,1.211c-0.49,0.553-0.879,1.265-1.17,2.136c-0.291,0.87-0.436,1.923-0.436,3.156
		s0.145,2.285,0.436,3.156s0.68,1.583,1.17,2.136c0.49,0.554,1.057,0.957,1.701,1.211c0.643,0.254,1.328,0.381,2.055,0.381
		c0.852,0,1.564-0.091,2.135-0.271c0.572-0.182,1.057-0.418,1.457-0.708L166.301,111.193z"/>
	<path fill="#5D5D5D" d="M178.443,110.921c-0.361,0.146-0.896,0.332-1.604,0.559c-0.709,0.227-1.57,0.34-2.586,0.34
		c-1.125,0-2.096-0.19-2.912-0.571s-1.486-0.889-2.014-1.524c-0.525-0.635-0.916-1.378-1.17-2.23s-0.381-1.751-0.381-2.694
		c0-1.052,0.133-2.026,0.395-2.925c0.264-0.897,0.645-1.683,1.143-2.354c0.5-0.671,1.107-1.197,1.824-1.578s1.52-0.571,2.408-0.571
		c0.762,0,1.479,0.122,2.148,0.367c0.672,0.245,1.266,0.657,1.783,1.238c0.518,0.58,0.926,1.347,1.225,2.299
		s0.449,2.146,0.449,3.578v0.653h-8.109c0,1.197,0.268,2.136,0.803,2.816c0.535,0.68,1.455,1.02,2.762,1.02
		c1.035,0,1.828-0.122,2.381-0.367s0.984-0.485,1.293-0.721L178.443,110.921z M175.887,103.384c0-2.484-0.781-3.728-2.34-3.728
		c-0.436,0-0.813,0.109-1.129,0.327c-0.318,0.217-0.582,0.499-0.789,0.843c-0.209,0.345-0.359,0.744-0.449,1.197
		c-0.092,0.454-0.137,0.907-0.137,1.36H175.887z"/>
	<path fill="#5D5D5D" d="M180.947,99.901c0-0.436-0.01-0.853-0.027-1.252c-0.018-0.398-0.045-0.752-0.082-1.061h3.156
		c0.018,0.362,0.041,0.721,0.068,1.074s0.041,0.712,0.041,1.075h0.082h-0.027c0.127-0.218,0.285-0.463,0.477-0.734
		c0.189-0.272,0.43-0.531,0.721-0.776c0.289-0.244,0.639-0.448,1.047-0.611c0.408-0.164,0.902-0.245,1.482-0.245
		c0.799,0,1.461,0.136,1.986,0.408c0.527,0.271,0.949,0.648,1.266,1.129c0.318,0.48,0.545,1.034,0.682,1.66
		c0.135,0.625,0.203,1.292,0.203,2v9.033h-3.375v-8.408c0-1.088-0.148-1.868-0.447-2.34c-0.301-0.472-0.795-0.707-1.484-0.707
		c-0.436,0-0.807,0.086-1.115,0.258c-0.309,0.173-0.557,0.408-0.748,0.708c-0.189,0.299-0.326,0.648-0.408,1.048
		c-0.082,0.398-0.123,0.825-0.123,1.278v8.163h-3.373V99.901z"/>
	<path fill="#5D5D5D" d="M195.359,95.237l3.375-1.567v3.919h2.803v2.476h-2.803v7.266c0,0.762,0.131,1.274,0.395,1.537
		c0.262,0.263,0.639,0.395,1.129,0.395c0.309,0,0.566-0.031,0.775-0.096c0.209-0.063,0.377-0.131,0.504-0.204v2.395
		c-0.254,0.127-0.568,0.236-0.939,0.327c-0.371,0.09-0.813,0.136-1.32,0.136c-1.25,0-2.217-0.313-2.896-0.938
		c-0.682-0.626-1.021-1.674-1.021-3.144v-7.673h-2.23v-2.476h2.23V95.237z"/>
	<path fill="#5D5D5D" d="M203.252,99.901c0-0.436-0.01-0.853-0.027-1.252c-0.018-0.398-0.045-0.752-0.082-1.061h3.049
		c0.018,0.417,0.041,0.843,0.068,1.278c0.025,0.436,0.039,0.862,0.039,1.279h0.055c0.109-0.272,0.254-0.571,0.436-0.898
		c0.182-0.326,0.418-0.626,0.707-0.897c0.291-0.272,0.635-0.504,1.035-0.694c0.398-0.19,0.861-0.285,1.387-0.285
		c0.109,0,0.209,0.009,0.301,0.027c0.09,0.018,0.18,0.036,0.271,0.054v3.156c-0.326-0.09-0.645-0.136-0.953-0.136
		c-0.344,0-0.689,0.06-1.033,0.177c-0.346,0.118-0.658,0.309-0.939,0.571c-0.281,0.264-0.508,0.617-0.68,1.062
		s-0.258,0.993-0.258,1.646v7.673h-3.375V99.901z"/>
	<path fill="#5D5D5D" d="M211.996,98.405c0.471-0.218,1.061-0.444,1.768-0.681c0.707-0.235,1.596-0.354,2.668-0.354
		c1.088,0,1.98,0.127,2.68,0.381c0.697,0.254,1.242,0.626,1.633,1.115c0.389,0.49,0.662,1.084,0.816,1.782
		c0.152,0.699,0.23,1.483,0.23,2.354v6.122c0,0.509,0.023,0.98,0.068,1.415c0.045,0.436,0.086,0.789,0.123,1.062h-3.049
		c-0.09-0.272-0.145-0.571-0.162-0.897c-0.02-0.327-0.027-0.662-0.027-1.007h-0.055c-0.418,0.58-0.926,1.079-1.523,1.496
		c-0.6,0.417-1.398,0.626-2.395,0.626c-0.545,0-1.07-0.091-1.578-0.272c-0.508-0.181-0.953-0.448-1.334-0.803
		c-0.381-0.354-0.689-0.784-0.926-1.292c-0.234-0.508-0.354-1.089-0.354-1.741c0-0.943,0.186-1.724,0.559-2.341
		c0.371-0.616,0.885-1.105,1.537-1.469s1.428-0.612,2.326-0.748c0.898-0.137,1.883-0.204,2.953-0.204h0.68v-0.518
		c0-0.344-0.045-0.68-0.137-1.007c-0.09-0.326-0.24-0.612-0.449-0.856c-0.207-0.245-0.475-0.44-0.803-0.585
		c-0.326-0.146-0.734-0.218-1.223-0.218c-0.418,0-0.822,0.045-1.211,0.136c-0.391,0.091-0.754,0.204-1.09,0.34
		c-0.336,0.137-0.635,0.286-0.896,0.449c-0.264,0.163-0.477,0.309-0.641,0.436L211.996,98.405z M218.635,104.745h-0.299
		c-1.451,0-2.582,0.186-3.389,0.558s-1.211,1.065-1.211,2.081c0,0.636,0.195,1.152,0.586,1.551c0.389,0.399,0.912,0.599,1.564,0.599
		c1.016,0,1.729-0.354,2.135-1.061c0.408-0.708,0.613-1.688,0.613-2.938V104.745z"/>
	<path fill="#5D5D5D" d="M224.584,91.194h3.16v20.407h-3.16V91.194z"/>
	<path fill="#5D5D5D" d="M166.859,139.095c-0.363,0.2-0.92,0.363-1.674,0.49c-0.752,0.126-1.564,0.19-2.434,0.19
		c-1.453,0-2.723-0.25-3.811-0.749c-1.088-0.498-1.996-1.184-2.721-2.054c-0.727-0.871-1.275-1.9-1.646-3.089
		c-0.371-1.188-0.557-2.48-0.557-3.877c0-1.379,0.186-2.667,0.557-3.864s0.916-2.23,1.633-3.102s1.615-1.556,2.693-2.055
		c1.08-0.498,2.326-0.748,3.742-0.748c0.979,0,1.836,0.096,2.57,0.286c0.736,0.19,1.283,0.358,1.646,0.503l-0.189,3.129
		c-0.363-0.181-0.83-0.398-1.402-0.652c-0.57-0.254-1.301-0.381-2.189-0.381c-0.727,0-1.412,0.127-2.055,0.381
		c-0.645,0.254-1.211,0.657-1.701,1.211c-0.49,0.553-0.879,1.265-1.17,2.136c-0.291,0.87-0.436,1.923-0.436,3.156
		s0.145,2.285,0.436,3.156s0.68,1.583,1.17,2.136c0.49,0.554,1.057,0.957,1.701,1.211c0.643,0.254,1.328,0.381,2.055,0.381
		c0.852,0,1.564-0.091,2.135-0.271c0.572-0.182,1.057-0.418,1.457-0.708L166.859,139.095z"/>
	<path fill="#5D5D5D" d="M168.266,128.945c0.363-0.925,0.836-1.659,1.418-2.204c0.584-0.544,1.232-0.925,1.947-1.143
		s1.418-0.326,2.107-0.326s1.391,0.108,2.105,0.326s1.359,0.599,1.934,1.143c0.574,0.545,1.043,1.279,1.404,2.204
		c0.361,0.926,0.543,2.104,0.543,3.537c0,1.47-0.182,2.672-0.543,3.605c-0.361,0.935-0.83,1.674-1.404,2.218
		s-1.219,0.916-1.934,1.115c-0.715,0.2-1.416,0.3-2.105,0.3s-1.393-0.1-2.107-0.3c-0.715-0.199-1.363-0.571-1.947-1.115
		c-0.582-0.544-1.055-1.283-1.418-2.218c-0.361-0.934-0.543-2.136-0.543-3.605C167.723,131.05,167.904,129.871,168.266,128.945z
		 M171.221,134.225c0.07,0.58,0.207,1.102,0.41,1.564c0.203,0.462,0.473,0.834,0.809,1.115c0.334,0.281,0.768,0.422,1.299,0.422
		c0.529,0,0.961-0.141,1.297-0.422s0.602-0.653,0.795-1.115c0.193-0.463,0.328-0.984,0.398-1.564
		c0.07-0.581,0.105-1.161,0.105-1.742c0-0.58-0.035-1.16-0.105-1.741c-0.07-0.58-0.205-1.097-0.398-1.551
		c-0.193-0.453-0.459-0.82-0.795-1.102s-0.768-0.422-1.297-0.422c-0.531,0-0.965,0.141-1.299,0.422
		c-0.336,0.281-0.605,0.648-0.809,1.102c-0.203,0.454-0.34,0.971-0.41,1.551c-0.07,0.581-0.105,1.161-0.105,1.741
		C171.115,133.063,171.15,133.644,171.221,134.225z"/>
	<path fill="#5D5D5D" d="M181.621,128.945c0.361-0.925,0.834-1.659,1.416-2.204c0.582-0.544,1.23-0.925,1.945-1.143
		c0.713-0.218,1.416-0.326,2.104-0.326s1.389,0.108,2.104,0.326c0.713,0.218,1.357,0.599,1.93,1.143
		c0.574,0.545,1.041,1.279,1.404,2.204c0.359,0.926,0.541,2.104,0.541,3.537c0,1.47-0.182,2.672-0.541,3.605
		c-0.363,0.935-0.83,1.674-1.404,2.218c-0.572,0.544-1.217,0.916-1.93,1.115c-0.715,0.2-1.416,0.3-2.104,0.3s-1.391-0.1-2.104-0.3
		c-0.715-0.199-1.363-0.571-1.945-1.115s-1.055-1.283-1.416-2.218c-0.361-0.934-0.543-2.136-0.543-3.605
		C181.078,131.05,181.26,129.871,181.621,128.945z M184.572,134.225c0.07,0.58,0.207,1.102,0.41,1.564
		c0.201,0.462,0.471,0.834,0.807,1.115c0.334,0.281,0.768,0.422,1.297,0.422c0.527,0,0.961-0.141,1.295-0.422
		c0.336-0.281,0.602-0.653,0.795-1.115c0.193-0.463,0.326-0.984,0.396-1.564c0.07-0.581,0.105-1.161,0.105-1.742
		c0-0.58-0.035-1.16-0.105-1.741c-0.07-0.58-0.203-1.097-0.396-1.551c-0.193-0.453-0.459-0.82-0.795-1.102
		c-0.334-0.281-0.768-0.422-1.295-0.422c-0.529,0-0.963,0.141-1.297,0.422c-0.336,0.281-0.605,0.648-0.807,1.102
		c-0.203,0.454-0.34,0.971-0.41,1.551c-0.07,0.581-0.105,1.161-0.105,1.741C184.467,133.063,184.502,133.644,184.572,134.225z"/>
	<path fill="#5D5D5D" d="M194.416,127.905c0-0.508-0.01-0.971-0.027-1.388s-0.045-0.753-0.08-1.007h3.156
		c0.035,0.199,0.063,0.494,0.08,0.884c0.02,0.391,0.027,0.821,0.027,1.293h0.082c0.127-0.29,0.295-0.581,0.504-0.871
		c0.207-0.29,0.457-0.549,0.748-0.775c0.289-0.227,0.639-0.408,1.047-0.544c0.408-0.137,0.885-0.204,1.43-0.204
		c0.871,0,1.619,0.195,2.244,0.585s1.133,0.911,1.523,1.564s0.68,1.415,0.871,2.285c0.191,0.871,0.285,1.796,0.285,2.775
		c0,2.305-0.426,4.087-1.277,5.347c-0.854,1.262-2.041,1.892-3.564,1.892c-0.51,0-0.957-0.063-1.348-0.19s-0.734-0.3-1.033-0.518
		c-0.301-0.217-0.551-0.457-0.75-0.721c-0.199-0.263-0.363-0.53-0.488-0.803h-0.055v7.217h-3.375V127.905z M197.939,134.449
		c0.1,0.571,0.254,1.065,0.463,1.482c0.209,0.418,0.477,0.744,0.803,0.979c0.326,0.236,0.727,0.354,1.197,0.354
		c0.943,0,1.602-0.421,1.973-1.265s0.559-1.964,0.559-3.36c0-1.633-0.168-2.853-0.504-3.66c-0.336-0.807-0.992-1.211-1.973-1.211
		c-0.49,0-0.906,0.127-1.252,0.381c-0.344,0.255-0.621,0.599-0.83,1.034s-0.357,0.943-0.449,1.523
		c-0.09,0.581-0.135,1.197-0.135,1.851C197.791,133.247,197.84,133.877,197.939,134.449z"/>
	<path fill="#5D5D5D" d="M218.381,138.822c-0.363,0.146-0.898,0.332-1.605,0.559s-1.568,0.34-2.584,0.34
		c-1.125,0-2.096-0.19-2.912-0.571s-1.488-0.889-2.014-1.524c-0.527-0.635-0.916-1.378-1.17-2.23s-0.381-1.751-0.381-2.694
		c0-1.052,0.131-2.026,0.395-2.925c0.262-0.897,0.643-1.683,1.143-2.354c0.498-0.671,1.105-1.197,1.822-1.578
		s1.52-0.571,2.408-0.571c0.762,0,1.479,0.122,2.15,0.367c0.67,0.245,1.266,0.657,1.781,1.238c0.518,0.58,0.926,1.347,1.225,2.299
		c0.301,0.952,0.449,2.146,0.449,3.578v0.653h-8.107c0,1.197,0.268,2.136,0.803,2.816c0.533,0.68,1.455,1.02,2.762,1.02
		c1.033,0,1.826-0.122,2.381-0.367c0.553-0.245,0.982-0.485,1.291-0.721L218.381,138.822z M215.822,131.285
		c0-2.484-0.779-3.728-2.34-3.728c-0.436,0-0.811,0.109-1.129,0.327c-0.316,0.217-0.58,0.499-0.789,0.843
		c-0.209,0.345-0.357,0.744-0.449,1.197c-0.09,0.454-0.135,0.907-0.135,1.36H215.822z"/>
	<path fill="#5D5D5D" d="M220.395,127.803c0-0.436-0.01-0.853-0.027-1.252c-0.02-0.398-0.047-0.752-0.082-1.061h3.047
		c0.018,0.417,0.041,0.843,0.068,1.278s0.041,0.862,0.041,1.279h0.055c0.109-0.272,0.254-0.571,0.436-0.898
		c0.18-0.326,0.416-0.626,0.707-0.897c0.289-0.272,0.635-0.504,1.033-0.694c0.4-0.19,0.861-0.285,1.389-0.285
		c0.109,0,0.207,0.009,0.299,0.027c0.09,0.018,0.182,0.036,0.271,0.054v3.156c-0.326-0.09-0.643-0.136-0.951-0.136
		c-0.346,0-0.689,0.06-1.035,0.177c-0.344,0.118-0.656,0.309-0.938,0.571c-0.281,0.264-0.508,0.617-0.682,1.062
		c-0.172,0.444-0.258,0.993-0.258,1.646v7.891h-3.373V127.803z"/>
	<path fill="#5D5D5D" d="M228.717,126.307c0.473-0.218,1.063-0.444,1.77-0.681c0.707-0.235,1.596-0.354,2.666-0.354
		c1.088,0,1.982,0.127,2.68,0.381c0.699,0.254,1.242,0.626,1.633,1.115c0.391,0.49,0.662,1.084,0.816,1.782
		c0.154,0.699,0.23,1.483,0.23,2.354v6.122c0,0.509,0.023,0.98,0.068,1.415c0.045,0.436,0.086,0.789,0.123,1.062h-3.047
		c-0.092-0.272-0.146-0.571-0.164-0.897c-0.018-0.327-0.027-0.662-0.027-1.007h-0.055c-0.416,0.58-0.924,1.079-1.523,1.496
		c-0.598,0.417-1.396,0.626-2.395,0.626c-0.543,0-1.07-0.091-1.578-0.272c-0.508-0.181-0.951-0.448-1.332-0.803
		c-0.383-0.354-0.691-0.784-0.926-1.292c-0.236-0.508-0.354-1.089-0.354-1.741c0-0.943,0.186-1.724,0.557-2.341
		c0.373-0.616,0.885-1.105,1.537-1.469c0.654-0.363,1.43-0.612,2.328-0.748c0.896-0.137,1.881-0.204,2.951-0.204h0.68v-0.518
		c0-0.344-0.045-0.68-0.135-1.007c-0.092-0.326-0.24-0.612-0.449-0.856c-0.209-0.245-0.477-0.44-0.803-0.585
		c-0.326-0.146-0.734-0.218-1.225-0.218c-0.418,0-0.82,0.045-1.211,0.136s-0.752,0.204-1.088,0.34
		c-0.336,0.137-0.635,0.286-0.898,0.449s-0.477,0.309-0.639,0.436L228.717,126.307z M235.355,132.646h-0.299
		c-1.451,0-2.58,0.186-3.387,0.558c-0.809,0.372-1.211,1.065-1.211,2.081c0,0.636,0.193,1.152,0.584,1.551
		c0.391,0.399,0.912,0.599,1.564,0.599c1.016,0,1.729-0.354,2.137-1.061c0.408-0.708,0.611-1.688,0.611-2.938V132.646z"/>
	<path fill="#5D5D5D" d="M241.854,122.605l3.287-1.034v3.919h2.729v2.476h-2.729v7.266c0,0.762,0.127,1.274,0.383,1.537
		s0.623,0.395,1.1,0.395c0.301,0,0.553-0.031,0.756-0.096c0.203-0.063,0.367-0.131,0.49-0.204v2.395
		c-0.246,0.127-0.553,0.236-0.914,0.327c-0.361,0.09-0.791,0.136-1.285,0.136c-1.219,0-2.16-0.313-2.822-0.938
		c-0.662-0.626-0.994-1.674-0.994-3.144v-7.673h-2.174v-2.476h2.174V122.605z"/>
	<path fill="#5D5D5D" d="M249.561,119.531h3.209v3.319h-3.209V119.531z M249.611,125.49h3.107v14.013h-3.107V125.49z"/>
	<path fill="#5D5D5D" d="M253.416,125.49h3.482l2.857,10.802h0.055l2.885-10.802h3.264l-4.299,14.013h-3.973L253.416,125.49z"/>
	<path fill="#5D5D5D" d="M276.625,138.822c-0.361,0.146-0.896,0.332-1.604,0.559c-0.709,0.227-1.57,0.34-2.586,0.34
		c-1.125,0-2.096-0.19-2.912-0.571s-1.486-0.889-2.014-1.524c-0.525-0.635-0.916-1.378-1.17-2.23s-0.381-1.751-0.381-2.694
		c0-1.052,0.133-2.026,0.395-2.925c0.264-0.897,0.645-1.683,1.143-2.354c0.5-0.671,1.107-1.197,1.824-1.578s1.52-0.571,2.408-0.571
		c0.762,0,1.479,0.122,2.148,0.367c0.672,0.245,1.266,0.657,1.783,1.238c0.518,0.58,0.926,1.347,1.225,2.299
		s0.449,2.146,0.449,3.578v0.653h-8.109c0,1.197,0.268,2.136,0.803,2.816c0.535,0.68,1.455,1.02,2.762,1.02
		c1.035,0,1.828-0.122,2.381-0.367s0.984-0.485,1.293-0.721L276.625,138.822z M274.068,131.285c0-2.484-0.781-3.728-2.34-3.728
		c-0.436,0-0.813,0.109-1.129,0.327c-0.318,0.217-0.582,0.499-0.789,0.843c-0.209,0.345-0.359,0.744-0.449,1.197
		c-0.092,0.454-0.137,0.907-0.137,1.36H274.068z"/>
	<path fill="#5D5D5D" d="M153.877,148.787h5.551c1.977,0,3.424,0.376,4.34,1.125c0.916,0.75,1.373,1.929,1.373,3.536
		c0,0.759-0.104,1.393-0.313,1.898s-0.473,0.921-0.789,1.246c-0.318,0.326-0.662,0.583-1.033,0.772
		c-0.373,0.189-0.713,0.34-1.021,0.447v0.055c0.363,0.091,0.758,0.226,1.184,0.407c0.426,0.181,0.816,0.442,1.17,0.786
		c0.354,0.343,0.648,0.786,0.885,1.327s0.354,1.211,0.354,2.006c0,0.868-0.148,1.631-0.449,2.29
		c-0.299,0.661-0.711,1.211-1.238,1.654c-0.525,0.442-1.15,0.782-1.877,1.017c-0.725,0.234-1.506,0.352-2.34,0.352h-5.795V148.787z
		 M157.25,156.702h1.797c0.869,0,1.541-0.275,2.014-0.827c0.471-0.552,0.707-1.216,0.707-1.993c0-0.813-0.26-1.439-0.775-1.882
		c-0.518-0.443-1.193-0.665-2.027-0.665h-1.715V156.702z M157.25,165.05h1.932c0.943,0,1.664-0.262,2.164-0.786
		c0.498-0.523,0.748-1.229,0.748-2.114c0-0.831-0.236-1.522-0.707-2.072c-0.473-0.552-1.244-0.827-2.313-0.827h-1.824V165.05z"/>
	<path fill="#5D5D5D" d="M169.291,154.583c0.457-0.218,1.031-0.444,1.719-0.681c0.686-0.235,1.549-0.354,2.59-0.354
		c1.059,0,1.926,0.127,2.604,0.381c0.68,0.254,1.207,0.626,1.588,1.115c0.379,0.49,0.643,1.084,0.793,1.782
		c0.148,0.699,0.225,1.483,0.225,2.354v6.122c0,0.509,0.021,0.98,0.066,1.415c0.043,0.436,0.082,0.789,0.119,1.062h-2.963
		c-0.088-0.272-0.141-0.571-0.158-0.897c-0.018-0.327-0.025-0.662-0.025-1.007h-0.053c-0.406,0.58-0.9,1.079-1.48,1.496
		c-0.582,0.417-1.359,0.626-2.328,0.626c-0.527,0-1.039-0.091-1.533-0.272c-0.492-0.181-0.924-0.448-1.295-0.803
		c-0.371-0.354-0.67-0.784-0.898-1.292s-0.344-1.089-0.344-1.741c0-0.943,0.18-1.724,0.541-2.341
		c0.361-0.616,0.859-1.105,1.494-1.469s1.389-0.612,2.262-0.748c0.871-0.137,1.828-0.204,2.867-0.204h0.66v-0.518
		c0-0.344-0.043-0.68-0.131-1.007c-0.088-0.326-0.234-0.612-0.438-0.856c-0.201-0.245-0.461-0.44-0.779-0.585
		c-0.316-0.146-0.713-0.218-1.189-0.218c-0.406,0-0.797,0.045-1.176,0.136s-0.732,0.204-1.059,0.34
		c-0.326,0.137-0.617,0.286-0.871,0.449c-0.258,0.163-0.463,0.309-0.623,0.436L169.291,154.583z M175.74,160.923h-0.289
		c-1.41,0-2.508,0.186-3.293,0.558c-0.783,0.372-1.176,1.065-1.176,2.081c0,0.636,0.189,1.152,0.568,1.551
		c0.379,0.399,0.887,0.599,1.52,0.599c0.986,0,1.68-0.354,2.076-1.061c0.396-0.708,0.594-1.688,0.594-2.938V160.923z"/>
	<path fill="#5D5D5D" d="M181.877,156.032c0-0.436-0.008-0.853-0.027-1.252c-0.018-0.398-0.043-0.672-0.08-0.98h3.123
		c0.018,0.362,0.041,0.641,0.068,0.994c0.025,0.354,0.039,0.712,0.039,1.075h0.082h-0.027c0.125-0.218,0.283-0.463,0.471-0.734
		c0.189-0.272,0.426-0.531,0.713-0.776c0.287-0.244,0.633-0.448,1.037-0.611c0.404-0.164,0.893-0.245,1.467-0.245
		c0.789,0,1.443,0.136,1.965,0.408c0.521,0.271,0.938,0.648,1.252,1.129s0.539,1.034,0.674,1.66c0.135,0.625,0.201,1.292,0.201,2
		v9.033h-3.338v-8.408c0-1.088-0.148-1.868-0.443-2.34c-0.297-0.472-0.787-0.707-1.469-0.707c-0.43,0-0.799,0.086-1.104,0.258
		c-0.305,0.173-0.551,0.408-0.74,0.708c-0.188,0.299-0.322,0.648-0.402,1.048c-0.082,0.398-0.123,0.825-0.123,1.278v8.163h-3.338
		V156.032z"/>
	<path fill="#5D5D5D" d="M195.896,147.8h3.354v11.523h0.082l3.008-5.165h3.57l-3.82,5.9c0,0,0.465,0.226,1.07,0.558
		c0.809,0.433,1.613,1.401,1.912,2.152c0.738,1.424,0.664,3.417,1.068,4.388c0.15,0.358,0.359,0.576,0.359,0.576l-3.344-0.001
		c0,0-0.201-0.23-0.332-0.594c-0.418-1.157-0.453-3.434-0.852-4.167c-0.576-1.063-2.66-1.61-2.66-1.61h-0.08l0.018,6.371h-3.354
		V147.8z"/>
	<path fill="#5D5D5D" d="M40.816,150.18c-1.723,0.492-3.535,0.772-5.417,0.772c-10.867,0-19.675-8.81-19.675-19.676
		c0-10.865,8.809-19.675,19.675-19.675c1.882,0,3.694,0.281,5.417,0.773c2.917-5.077,6.943-9.441,11.783-12.707
		c-5.111-2.787-10.97-4.373-17.2-4.373c-19.873,0-35.982,16.109-35.982,35.981c0,19.873,16.109,35.981,35.982,35.981
		c6.23,0,12.089-1.585,17.2-4.372C47.759,159.621,43.734,155.256,40.816,150.18z"/>
	<path fill="none" d="M73.509,131.276c0-6.979,2.011-13.473,5.459-18.98c-1.631-0.439-3.337-0.694-5.105-0.694
		c-10.867,0-19.675,8.81-19.675,19.675c0,10.866,8.808,19.676,19.675,19.676c1.768,0,3.472-0.256,5.102-0.691"/>
	<path fill="#5D5D5D" d="M140.348,112.84c-0.078-0.131-0.154-0.263-0.234-0.391c-0.355-0.575-0.725-1.138-1.112-1.69
		c-0.12-0.173-0.245-0.346-0.37-0.516c-0.376-0.521-0.761-1.035-1.165-1.532c-0.148-0.184-0.304-0.357-0.454-0.539
		c-0.408-0.481-0.817-0.963-1.25-1.427c-0.123-0.131-0.256-0.255-0.382-0.384c-0.796-0.825-1.632-1.608-2.502-2.354
		c-0.276-0.236-0.543-0.482-0.827-0.711c-0.348-0.278-0.71-0.54-1.069-0.806c-0.371-0.278-0.74-0.557-1.122-0.818
		c-0.346-0.239-0.7-0.463-1.055-0.689c-0.419-0.267-0.842-0.528-1.273-0.779c-0.344-0.199-0.691-0.393-1.042-0.581
		c-0.471-0.254-0.949-0.492-1.432-0.725c-0.333-0.161-0.665-0.323-1.004-0.475c-0.549-0.242-1.109-0.465-1.672-0.681
		c-0.29-0.112-0.574-0.233-0.867-0.337c-0.863-0.307-1.74-0.588-2.632-0.829l6.914-6.975l-11.599-11.6L90.862,99.566l-4.928,4.554
		c-0.86,0.745-1.683,1.53-2.469,2.353l-0.408,0.392l0.044,0.01c-1.543,1.668-2.922,3.486-4.133,5.422
		c-3.448,5.508-5.459,12.002-5.459,18.98c0,6.113,1.563,11.847,4.261,16.887c0.479-0.003,0.322,0.041,0.322,0.041
		c5.309-1.424,9.691-5.102,12.024-10.093c0,0,0.429-0.628,0.57-1.164c-0.599-1.859-0.871-3.611-0.871-5.671
		c0-2.974,0.68-5.784,1.861-8.313c2.433-5.203,7.066-9.155,12.713-10.67c0.737-0.197,1.495-0.345,2.261-0.462
		c0.212-0.03,0.427-0.05,0.64-0.076c0.724-0.085,1.453-0.154,2.2-0.154c0.615,0,1.221,0.037,1.821,0.092
		c0.189,0.019,0.375,0.044,0.562,0.066c0.417,0.05,0.83,0.112,1.238,0.189c0.203,0.037,0.407,0.076,0.606,0.119
		c0.423,0.093,0.84,0.202,1.252,0.323c0.155,0.045,0.314,0.08,0.468,0.131c0.528,0.166,1.045,0.357,1.553,0.567
		c0.216,0.089,0.424,0.192,0.636,0.288c0.299,0.138,0.596,0.275,0.887,0.428c0.25,0.129,0.495,0.264,0.737,0.402
		c0.235,0.136,0.466,0.279,0.697,0.422c0.257,0.164,0.517,0.325,0.767,0.499c0.143,0.1,0.276,0.208,0.417,0.312
		c0.579,0.428,1.136,0.883,1.664,1.371c0.088,0.081,0.181,0.16,0.268,0.243c0.291,0.278,0.57,0.569,0.843,0.864
		c0.08,0.085,0.159,0.172,0.237,0.26c1.245,1.396,2.297,2.966,3.108,4.676c0.012,0.024,0.023,0.047,0.035,0.07
		c0.203,0.434,0.393,0.876,0.565,1.327c0.836,2.186,1.314,4.547,1.314,7.024c0,10.866-8.809,19.676-19.675,19.676
		c-0.99,0-1.957-0.098-2.908-0.239c-3.142,5.271-7.507,9.707-12.716,12.939c4.731,2.287,10.018,3.605,15.624,3.605
		c19.873,0,35.982-16.108,35.982-35.981C145.473,124.523,143.586,118.229,140.348,112.84z"/>
	<path fill="#5D5D5D" d="M91.676,139.59c-2.432,5.203-7.066,9.156-12.712,10.671c-1.63,0.436-3.334,0.691-5.102,0.691
		c-10.867,0-19.675-8.81-19.675-19.676c0-10.865,8.808-19.675,19.675-19.675c1.114,0,2.193,0.132,3.254,0.315
		c3.835-7.362,12.017-13.211,12.02-13.213c-4.638-2.181-9.811-3.409-15.274-3.409c-19.873,0-35.982,16.109-35.982,35.981
		c0,19.873,16.109,35.981,35.982,35.981c6.487,0,12.558-1.74,17.813-4.744c5.191-2.969,9.555-7.188,12.713-12.253
		C98.743,148.746,94.109,144.793,91.676,139.59z"/>
</g>
</svg>
