<svg width="280" height="140" xmlns="http://www.w3.org/2000/svg" xmlns:svg="http://www.w3.org/2000/svg">
 <style type="text/css">.st0{fill:#5e5a56;}
	.st1{fill:none;stroke:#5778db;stroke-width:2;stroke-miterlimit:10;}</style>

 <g>
  <title>Layer 1</title>
  <g id="svg_14"/>
  <g id="svg_15"/>
  <g id="svg_16"/>
  <g id="svg_17"/>
  <g id="svg_18"/>
  <g id="svg_19"/>
  <g id="svg_20">
   <g id="svg_21">
    <g id="svg_22">
     <path id="svg_23" d="m272.30582,53.04383c-0.60934,0 -1.08017,-0.20172 -1.44016,-0.63403c-0.36005,-0.40349 -0.55396,-0.97988 -0.55396,-1.67154s0.19391,-1.26809 0.55396,-1.67157c0.35999,-0.40346 0.85849,-0.63403 1.44016,-0.63403c0.47076,0 0.85849,0.14409 1.19086,0.40349c0.33231,0.25937 0.4985,0.6052 0.55389,1.03751l-0.5816,0c-0.02771,-0.28822 -0.13849,-0.51876 -0.36005,-0.66286c-0.22156,-0.17294 -0.47079,-0.2594 -0.8031,-0.2594c-0.44318,0 -0.77548,0.14411 -1.02478,0.46112c-0.24921,0.31703 -0.38773,0.74932 -0.38773,1.32573c0,0.5764 0.13852,1.0087 0.38773,1.3257c0.2493,0.31703 0.5816,0.46112 1.02478,0.46112c0.33231,0 0.60925,-0.08646 0.8031,-0.25937c0.19388,-0.17292 0.33234,-0.40347 0.36005,-0.7205l0.5816,0c-0.02768,0.4611 -0.22159,0.83578 -0.52618,1.09515c-0.33237,0.25937 -0.7478,0.40347 -1.21857,0.40347z" class="st0"/>
     <circle id="svg_24" r="2.7467" cy="50.70943" cx="272.1673" class="st1"/>
    </g>
    <path id="svg_25" d="m254.80246,82.38236l0,-6.62853l17.36487,0l0,2.65141c-0.49854,4.46708 -2.32645,8.06954 -5.45599,10.77862c-3.12949,2.70905 -6.78528,4.06357 -10.93954,4.06357c-4.62515,0 -8.5578,-1.6427 -11.79813,-4.89934c-3.26805,-3.25664 -4.87437,-7.23377 -4.87437,-11.87378c0,-4.61116 1.634,-8.55946 4.87437,-11.81609c3.26804,-3.25664 7.20068,-4.89937 11.79813,-4.89937c3.96036,0 7.47766,1.23924 10.52414,3.71775c3.04648,2.47849 4.98511,5.61985 5.81601,9.42408l-7.89313,0c-0.6647,-1.87328 -1.77252,-3.37193 -3.32346,-4.52472c-1.55093,-1.15279 -3.2403,-1.72918 -5.12357,-1.72918c-2.49258,0 -4.65279,0.95106 -6.42531,2.88197c-1.77245,1.93093 -2.65871,4.23653 -2.65871,6.94556c0,2.73791 0.88626,5.0723 2.65871,7.00322c1.77252,1.93093 3.90503,2.88197 6.42531,2.88197c1.4678,0 2.82492,-0.34581 4.09882,-1.06631c1.27402,-0.72049 2.32642,-1.70039 3.15732,-2.91082l-8.22546,0z" class="st0"/>
    <path id="svg_26" d="m224.42084,59.75884c2.38182,0 4.29274,0.31702 5.76062,0.9799c1.46788,0.66283 2.60336,1.58506 3.40651,2.76666c0.80313,1.18164 1.35703,2.62262 1.66168,4.32299c0.27699,1.67155 0.44316,3.54483 0.44316,5.59103l0,12.39253l0,5.61986l0,0.51875c0,0.37464 -0.1385,0.7205 -0.44316,1.0087c-0.27693,0.28818 -0.63695,0.4323 -1.08006,0.4323l-5.62213,0c-0.41545,0 -0.77548,-0.14412 -1.08015,-0.4323c-0.27693,-0.2882 -0.44307,-0.63406 -0.44307,-1.0087l0,-0.51875l0,-16.19672c0,-0.97989 -0.05539,-1.90213 -0.1662,-2.76671c-0.11076,-0.86459 -0.36008,-1.58511 -0.72012,-2.19031c-0.38768,-0.60522 -0.94156,-1.06633 -1.71707,-1.44099c-0.77542,-0.34584 -1.8002,-0.51875 -3.10187,-0.51875c-1.52324,0 -2.74176,0.17291 -3.6557,0.51875c-0.91397,0.34584 -1.63405,0.8646 -2.13254,1.49861c-0.49852,0.66286 -0.83083,1.41219 -0.99704,2.3056c-0.16618,0.89341 -0.24922,1.87327 -0.24922,2.96842l0,10.02931l0,0.1441l0,6.13862c0,0.37464 -0.13847,0.7205 -0.44316,1.0087c-0.27692,0.28818 -0.63701,0.4323 -1.08008,0.4323l-5.67755,0c-0.41542,0 -0.77545,-0.14412 -1.08011,-0.4323c-0.27693,-0.28819 -0.44308,-0.63406 -0.44308,-1.0087l0,-1.95975l0,-4.2077l0,-18.38703l0,-6.10978l0,-0.20176c0.05539,-0.34581 0.24924,-0.63401 0.52617,-0.89338c0.27701,-0.23057 0.60928,-0.34584 0.99702,-0.34584l5.67755,0c0.41541,0 0.77541,0.14409 1.08008,0.40349c0.27695,0.25935 0.44316,0.60521 0.44316,1.03749l0,1.98857c0.38765,-0.48993 0.77541,-0.92225 1.10777,-1.35455c0.33234,-0.4323 0.83087,-0.80693 1.49551,-1.09513c0.66473,-0.28821 1.55096,-0.54758 2.71419,-0.74933c1.13548,-0.17292 2.74176,-0.2882 4.81889,-0.2882z" class="st0"/>
    <path id="svg_27" d="m203.17867,91.83527c0,0.37465 -0.13849,0.72049 -0.44312,1.0087c-0.27695,0.28819 -0.63695,0.43228 -1.08012,0.43228l-6.45297,0c-0.41545,0 -0.80315,-0.14409 -1.10777,-0.43228c-0.30463,-0.28821 -0.47086,-0.60521 -0.47086,-1.0087l0,-30.49133c0,-0.37468 0.13849,-0.72052 0.47086,-1.0087c0.30463,-0.2882 0.66469,-0.4323 1.10777,-0.4323l6.45297,0c0.41542,0 0.77551,0.1441 1.08012,0.4323c0.27693,0.28818 0.44312,0.63401 0.44312,1.0087l0,30.49133z" class="st0"/>
    <path id="svg_28" d="m195.72873,54.19664c-1.3848,0 -2.60342,0.89341 -3.07423,2.24792l-12.01962,35.07371c-0.24934,0.66285 -0.58165,1.09515 -0.99706,1.29688c-0.41542,0.20175 -0.80318,0.31702 -1.13551,0.31702l-6.36989,0c-0.38776,0 -0.83086,-0.11526 -1.3017,-0.31702c-0.47079,-0.20173 -0.83084,-0.63403 -1.08009,-1.29688l-6.72992,-18.15649l-6.36989,18.15649c-0.24922,0.66285 -0.58162,1.09515 -0.99702,1.29688c-0.41544,0.20175 -0.80315,0.31702 -1.16319,0.31702l-6.31448,0c-0.38774,0 -0.83087,-0.11526 -1.30168,-0.31702c-0.47081,-0.20173 -0.83087,-0.63403 -1.08009,-1.29688l-10.88423,-30.1167l0.0554,0l-0.0554,-0.08646c-0.16615,-0.37466 -0.11078,-0.72049 0.08313,-1.0375c0.22154,-0.28822 0.52618,-0.46112 0.96935,-0.46112l0.19383,0l6.03755,0l0.36002,0c0.41542,0 0.83086,0.14409 1.24626,0.43229c0.38776,0.28818 0.6647,0.60521 0.83087,1.00869l2.16023,5.85042c0.02769,0.05766 0.05539,0.1441 0.05539,0.23056l4.43121,13.86231l6.813,-19.94329c0.1662,-0.37466 0.41542,-0.72051 0.83084,-1.00869c0.38779,-0.2882 0.80322,-0.43229 1.24632,-0.43229l0.08305,0l0.22157,0l0.41541,0l4.26505,0l0.47089,0l0.19386,0l0.33232,0c0.41541,0 0.83084,0.14409 1.21857,0.43229c0.38777,0.28818 0.63699,0.60521 0.80321,1.00869l2.18788,5.85042c0,0.05766 0,0.11527 0.02769,0.11527c0.02768,0.02883 0.02768,0.05766 0.02768,0.11529l4.84668,13.86231l9.16708,-28.12812c1.24631,-3.8042 4.68048,-6.34035 8.53009,-6.34035l72.64436,0.02882c0.27692,0 0.44315,0.28819 0.33237,0.54757l-0.41541,1.35454c-0.38773,1.26805 -1.0524,2.44968 -1.99411,3.37189c-0.35999,0.34586 -0.74777,0.69169 -1.19086,0.95107l0,0c-1.24631,0.80695 -2.68646,1.26807 -4.15427,1.26807l-62.45251,-0.05763z" class="st0"/>
    <path id="svg_29" d="m99.51572,61.40157c-0.16618,-0.37466 -0.11075,-0.72049 0.08308,-1.03751c0.22157,-0.28819 0.52621,-0.46112 0.96934,-0.46112l0.22157,0l6.00984,0l0.41541,0c0.41544,0 0.83088,0.1441 1.21861,0.4323c0.38775,0.28818 0.63698,0.63401 0.80315,1.0087l2.1602,6.1386c0.02769,0.05762 0.05544,0.11529 0.05544,0.11529c0,0.02883 0.02769,0.05764 0.05537,0.1153l4.84664,13.14179l6.8407,-19.51098c0.16618,-0.37468 0.41542,-0.72052 0.80314,-1.0087c0.38776,-0.2882 0.77548,-0.4323 1.21861,-0.4323l0.72008,0l4.76358,0l0.5816,0c0.41542,0 0.74776,0.1441 0.96933,0.46112c0.22153,0.28822 0.24925,0.63403 0.08305,1.03751l-12.37972,34.55493c-0.58159,1.26807 -1.13548,2.47852 -1.68939,3.6313c-0.55391,1.15279 -1.27396,2.16148 -2.16022,3.02608c-0.88623,0.86459 -2.02172,1.55625 -3.40649,2.0462c-1.38476,0.48991 -3.21264,0.72046 -5.48367,0.69166l-1.05239,0l-1.1909,0c-0.41544,0 -0.77549,-0.14411 -1.08011,-0.40348c-0.27696,-0.25938 -0.44313,-0.60521 -0.44313,-1.0375l0,-5.18757c0,-0.4035 0.13847,-0.74931 0.44313,-1.0375c0.27694,-0.25938 0.63699,-0.40349 1.08011,-0.40349l1.27396,0c0.83086,0 1.52325,-0.08646 2.04946,-0.23056c0.55389,-0.17293 0.99702,-0.37465 1.35706,-0.63403c0.36002,-0.25938 0.63698,-0.57639 0.85855,-0.95104c0.22157,-0.37466 0.41541,-0.77814 0.60928,-1.2681l0.33237,-1.67153l-11.90893,-31.03893l-0.02772,-0.08646z" class="st0"/>
    <path id="svg_30" d="m99.82037,91.8929c0,0.46114 -0.0554,0.77814 -0.13847,1.00871c-0.08311,0.23055 -0.30466,0.34582 -0.63699,0.37464l0,0.05764l-2.54794,0c-1.63403,0 -2.85263,-0.31699 -3.71117,-0.92223c-0.85854,-0.60521 -1.57864,-1.52745 -2.18791,-2.79548c-0.30466,0.89339 -0.77547,1.58505 -1.38478,2.075c-0.60926,0.48994 -1.38475,0.83578 -2.27098,1.06634c-0.91396,0.23056 -1.96635,0.34585 -3.15726,0.40348c-1.19089,0.05762 -2.54796,0.05762 -4.01579,0.05762c-2.40947,0 -4.34814,-0.25937 -5.84367,-0.77811c-1.49556,-0.51876 -2.68643,-1.21044 -3.5173,-2.10386c-0.85857,-0.89342 -1.44013,-1.95975 -1.7448,-3.17017c-0.33233,-1.21043 -0.4708,-2.53613 -0.4708,-3.9483c0,-2.27678 0.38771,-4.12123 1.1632,-5.59105c0.77546,-1.44098 1.99403,-2.5938 3.60037,-3.42954c1.60632,-0.8358 3.65573,-1.41217 6.1483,-1.72919c2.49256,-0.31702 5.45595,-0.48994 8.89017,-0.48994l1.24628,0c0,-0.69167 -0.0554,-1.32571 -0.19387,-1.90211c-0.13848,-0.54757 -0.41544,-1.00867 -0.85856,-1.35451c-0.44311,-0.34586 -1.05241,-0.63405 -1.85555,-0.80697c-0.8032,-0.20171 -1.88328,-0.28818 -3.21266,-0.28818c-1.30166,0 -2.49256,0.1441 -3.62805,0.40347c-1.13552,0.25936 -2.13253,0.60521 -3.07416,0.97987c-0.49852,0.20174 -0.96935,0.40347 -1.44016,0.66286c-0.47082,0.25938 -0.91393,0.51876 -1.32936,0.77813l-0.91393,0.57642c-0.02771,0.05762 -0.11079,0.11527 -0.22158,0.20173c-0.02768,0.02882 -0.05537,0.05763 -0.05537,0.05763c-0.02772,0 -0.02772,0.02882 -0.05539,0.05763l-0.0554,0.05765c-0.24925,0.11526 -0.47079,0.17292 -0.63697,0.08646c-0.19389,-0.05765 -0.38776,-0.25937 -0.60931,-0.63404l-2.40948,-4.63998c-0.24926,-0.37465 -0.36003,-0.72049 -0.36003,-0.97986c0,-0.25938 0.16615,-0.54758 0.4985,-0.77816l0.41543,-0.28818c1.57861,-1.12398 3.12955,-1.98856 4.68049,-2.56496c1.55093,-0.60524 3.24032,-1.03753 5.09589,-1.3257c1.57862,-0.28822 3.24036,-0.43231 5.01285,-0.43231c2.79722,0 5.06818,0.23056 6.81299,0.72049c1.7448,0.48992 3.10184,1.23926 4.07117,2.24796c0.99703,1.03751 1.66171,2.3344 1.99408,3.94831c0.36002,1.61389 0.5262,3.54482 0.5262,5.82159l0,9.74107c0,0.69169 0,1.23927 0,1.64274s0.0554,0.66286 0.16617,0.86459c0.11077,0.20174 0.27696,0.31704 0.47081,0.37465c0.22159,0.05766 0.52621,0.08648 0.96935,0.08648l0,0.05762c0.24926,0.02885 0.44308,0.11531 0.58156,0.28822c0.13849,0.17292 0.19389,0.46111 0.19389,0.86459l0,5.38929zm-10.60726,-13.71819l-0.74776,0c-2.74181,0 -4.90204,0.05763 -6.50835,0.20173c-1.6063,0.11529 -2.82491,0.34584 -3.68345,0.69168c-0.85854,0.34581 -1.41245,0.77811 -1.66172,1.35451c-0.24924,0.54761 -0.36002,1.2681 -0.36002,2.13268c0,1.21044 0.38771,2.21912 1.13549,2.99728c0.74777,0.77811 2.10484,1.18159 4.07118,1.18159c2.71413,0 4.68049,-0.63404 5.89906,-1.90209c1.2186,-1.26809 1.85557,-3.08372 1.85557,-5.44696l0,-1.21042z" class="st0"/>
    <path id="svg_31" d="m63.76127,91.83527c0,0.40349 -0.13847,0.74934 -0.44312,1.03752c-0.27694,0.2882 -0.63699,0.43229 -1.0801,0.43229l-3.29573,0l-0.0554,0l-2.90797,0c-0.49851,0 -0.91395,-0.17292 -1.24627,-0.48994c-0.33235,-0.31699 -0.49852,-0.69167 -0.49852,-1.15276l0,-3.34313l0,-0.05762l0,-35.73654l0,-4.43825c0,-0.37466 0.13847,-0.72049 0.44312,-1.0087c0.27696,-0.28819 0.63697,-0.43229 1.08012,-0.43229l6.45298,0c0.41541,0 0.77546,0.1441 1.0801,0.43229c0.27694,0.28821 0.44312,0.60521 0.44312,1.0087l0,4.5247l0,35.59245l0.02768,3.63128z" class="st0"/>
    <g id="svg_32">
     <path id="svg_33" d="m36.84161,46.67466c1.46782,0 3.01878,0.34584 4.68047,1.03751c1.66171,0.69168 3.268,1.67155 4.79124,2.9108c1.52324,1.23927 2.79723,2.85315 3.79426,4.84171c0.99702,1.98856 1.49552,4.15004 1.49552,6.45564c0,2.3056 -0.49849,4.4959 -1.46783,6.57092c-0.96931,2.07501 -2.21561,3.77538 -3.68348,5.0723c-1.46782,1.32569 -3.07414,2.36322 -4.76354,3.14133c-1.71712,0.77812 -3.32343,1.15279 -4.84664,1.15279l-20.16208,0l0,15.30332l-10.57955,0l0,-46.48633l30.74163,0zm-3.545,20.75026c1.68941,0 3.18493,-0.4323 4.51431,-1.26807c1.32937,-0.83578 1.99404,-2.10384 1.99404,-3.83304c0,-1.78684 -0.60928,-3.08371 -1.82786,-3.89067c-1.21859,-0.80695 -2.76952,-1.1816 -4.65279,-1.1816l-16.61709,0l0,10.17339l16.58939,0z" class="st0"/>
    </g>
   </g>
  </g>
 </g>
</svg>