<?xml version="1.0" encoding="utf-8"?>
<!-- Generator: Adobe Illustrator 16.0.3, SVG Export Plug-In . SVG Version: 6.00 Build 0)  -->
<!DOCTYPE svg PUBLIC "-//W3C//DTD SVG 1.1//EN" "http://www.w3.org/Graphics/SVG/1.1/DTD/svg11.dtd">
<svg version="1.1" id="Layer_1" xmlns="http://www.w3.org/2000/svg" xmlns:xlink="http://www.w3.org/1999/xlink" x="0px" y="0px"
	 width="280px" height="140px" viewBox="0 0 280 140" enable-background="new 0 0 280 140" xml:space="preserve">
<g>
	<path fill="#5D5D5D" d="M75.517,54.566l-14.246-0.251l-0.264-0.693l6.937-6.412v-2.953h7.584l-2.947,5.035L75.517,54.566z
		 M62.281,53.532l11.861,0.21l-2.484-4.461l2.473-4.224h-5.388v2.503L62.281,53.532z"/>
	<path fill="#5D5D5D" d="M61.549,54.21l-0.671-0.283l-0.174-6.94h7.64l0.271,0.692L61.549,54.21z M61.523,47.786l0.132,5.235
		l5.665-5.235H61.523z"/>
	
		<rect x="62.419" y="46.671" transform="matrix(-0.6813 -0.732 0.732 -0.6813 69.8224 128.2095)" fill="#5D5D5D" width="0.8" height="4.47"/>
	
		<rect x="67.922" y="47.412" transform="matrix(-0.9999 -0.0143 0.0143 -0.9999 140.1932 96.6297)" fill="#5D5D5D" width="5.042" height="0.801"/>
	
		<rect x="64.575" y="50.49" transform="matrix(-1 -0.0046 0.0046 -1 137.3656 102.0977)" fill="#5D5D5D" width="8.451" height="0.8"/>
	<path fill="#5D5D5D" d="M17.31,54.441l2.937-5.276l-2.948-5.033h7.584v2.953l6.937,6.412l-0.265,0.692L17.31,54.441z
		 M18.694,44.931l2.473,4.225l-2.483,4.462l11.861-0.21l-6.462-5.972v-2.505H18.694z"/>
	<path fill="#5D5D5D" d="M31.276,54.083l-7.065-6.529l0.271-0.693h7.64L31.947,53.8L31.276,54.083z M25.504,47.661l5.665,5.234
		l0.132-5.234H25.504z"/>
	
		<rect x="27.768" y="48.382" transform="matrix(-0.7316 -0.6818 0.6818 -0.7316 18.6935 104.9245)" fill="#5D5D5D" width="4.469" height="0.8"/>
	
		<rect x="21.986" y="45.172" transform="matrix(-0.0147 -0.9999 0.9999 -0.0147 -24.9738 70.7752)" fill="#5D5D5D" width="0.8" height="5.041"/>
	<rect x="19.802" y="50.364" fill="#5D5D5D" width="8.451" height="0.801"/>
	<path fill="#5D5D5D" d="M46.003,99.322l-0.701-0.604l-1.168-0.741c-7.896-3.747-13.06-9.194-15.79-16.649
		c-2.636-7.203-2.726-15.615-2.466-22.896l0.01-0.286l0.275-0.082c4.079-1.22,7.279-5.486,8.332-9.073l0.108-0.369l0.375,0.096
		c3.342,0.856,8.401,1.41,12.888,1.41c3.9,0,7.177-0.394,9.478-1.138l0.342-0.11l0.674,1.506c1.622,3.627,4.562,6.617,7.864,8.002
		l0.232,0.097l0.013,0.251c0.473,9.092-0.389,16.436-2.635,22.445c-2.838,7.595-8.014,13.162-15.382,16.555l-1.424,0.793
		L46.003,99.322z M26.669,58.741C26.152,73.757,27.181,89.054,44.5,97.263l0.043,0.023l1.261,0.805l0.227,0.197l0.584-0.447
		l1.478-0.821c12.995-5.983,18.58-18.058,17.593-37.998c-3.39-1.501-6.388-4.591-8.053-8.312l-0.382-0.855
		c-2.958,0.882-6.709,1.07-9.381,1.07c-4.456,0-9.282-0.512-12.718-1.344C33.958,53.212,30.751,57.382,26.669,58.741z"/>
	<path fill="#5D5D5D" d="M21.956,63.888l-0.217-0.271c-0.461-0.575-0.873-1.181-1.27-1.767c-0.661-0.973-1.285-1.891-2.121-2.695
		L18.2,59.013l0.03-0.203c0.283-1.93,1.025-3.641,2.205-5.083l0.117-0.144l5.328-0.095l0.052,0.349
		c0.666,4.422-0.708,8.113-3.676,9.875L21.956,63.888z M19.051,58.727c0.823,0.827,1.461,1.766,2.079,2.674
		c0.324,0.478,0.656,0.967,1.014,1.437c3.402-2.268,3.259-6.731,3.042-8.535l-4.248,0.076
		C19.958,55.626,19.323,57.087,19.051,58.727z"/>
	<path fill="#5D5D5D" d="M21.337,62.13l-0.679-0.424c1.343-2.152,2.644-5.107,3.48-7.906l0.767,0.229
		C24.049,56.89,22.715,59.921,21.337,62.13z"/>
	<path fill="#5D5D5D" d="M18.317,73.138l-0.336-0.776c-1.235-2.851-0.859-5.954-0.496-8.955c0.191-1.586,0.391-3.228,0.332-4.764
		l-0.033-0.865l0.68,0.535c0.032,0.024,0.792,0.624,1.166,1.044c1.615,1.816,2.576,3.629,3.689,5.729l0.03,0.057h0.203l0.011,0.806
		l-0.309,0.004c-1.984,1.722-3.472,4.341-4.55,6.437L18.317,73.138z M18.625,59.492c-0.021,1.328-0.186,2.688-0.346,4.011
		c-0.315,2.602-0.639,5.28,0.13,7.722c1.047-1.956,2.423-4.188,4.198-5.771c-1.087-2.052-2.027-3.822-3.576-5.564
		C18.925,59.769,18.777,59.628,18.625,59.492z"/>
	<path fill="#5D5D5D" d="M20.134,68.595l-0.047-0.168c-0.376-1.332-0.544-2.715-0.708-4.053c-0.168-1.377-0.341-2.801-0.741-4.16
		c-0.079-0.268-0.208-0.525-0.345-0.799c-0.073-0.146-0.146-0.291-0.212-0.439l0.73-0.327c0.062,0.138,0.129,0.272,0.197,0.407
		c0.147,0.293,0.299,0.597,0.397,0.933c0.419,1.425,0.596,2.881,0.768,4.29c0.167,1.367,0.324,2.659,0.684,3.934l0.047,0.168
		L20.134,68.595z"/>
	<path fill="#5D5D5D" d="M23.022,78.606l-0.229-0.236c-0.731-0.757-1.531-1.408-2.378-2.101c-0.932-0.761-1.895-1.546-2.756-2.479
		c-0.232-0.299-0.066-0.589-0.012-0.684c0.008-0.016,0.017-0.027,0.023-0.042c1.346-4.127,4.621-7.472,7.647-10.199l0.659,0.382
		c-0.61,2.822-1.23,6.463-0.619,9.592c0.449,2.293-0.359,4.485-2.059,5.59L23.022,78.606z M18.396,73.406
		c0.772,0.813,1.664,1.539,2.526,2.243c0.742,0.604,1.506,1.229,2.207,1.92c1.494-1.152,1.736-3.093,1.446-4.578
		c-0.554-2.83-0.153-6.015,0.371-8.697c-2.67,2.496-5.357,5.477-6.514,9.023C18.42,73.347,18.409,73.378,18.396,73.406z"/>
	<path fill="#5D5D5D" d="M21.613,76.73l-0.623-0.503c1.24-1.534,1.366-3.52,1.499-5.62c0.171-2.702,0.348-5.496,2.827-7.741
		l0.538,0.594c-2.239,2.026-2.405,4.655-2.566,7.197C23.152,72.792,23.014,74.999,21.613,76.73z"/>
	<path fill="#5D5D5D" d="M18.26,83.874h-0.237l-0.117-0.213c-0.821-1.512-0.916-4.007-0.985-5.828l-0.005-0.125
		c-0.054-1.397-0.127-3.312-0.691-4.733l0.549-0.507c0.212,0.104,0.521,0.287,0.819,0.465c0.21,0.123,0.498,0.294,0.567,0.322
		l-0.126,0.307l0.255-0.266c0.277,0.242,0.471,0.447,0.628,0.612c0.111,0.118,0.206,0.218,0.305,0.304l0.255,0.217
		c2.156,1.832,3.86,3.279,5.142,4.982l0.333,0.439l-0.522,0.178c-0.414,0.143-0.831,0.279-1.247,0.416
		c-1.433,0.475-2.916,0.962-4.265,1.628c-0.118,0.058-0.307,0.3-0.258,1.261c0.008,0.153,0.015,0.287-0.108,0.416l-0.119,0.125
		H18.26z M17.283,73.677c0.331,1.345,0.389,2.843,0.433,4l0.005,0.123c0.044,1.147,0.103,2.703,0.383,3.998
		c0.105-0.185,0.254-0.342,0.46-0.443c1.4-0.689,2.909-1.188,4.369-1.67c0.234-0.077,0.469-0.154,0.704-0.232
		c-1.191-1.453-2.75-2.777-4.676-4.414l-0.256-0.218c-0.126-0.106-0.238-0.226-0.367-0.36c-0.127-0.135-0.268-0.283-0.455-0.455
		C17.775,73.964,17.617,73.874,17.283,73.677z M18.043,73.234c-0.157,0-0.298,0.095-0.361,0.237
		c-0.074,0.172-0.006,0.336,0.053,0.398l0.276-0.287L18.043,73.234z"/>
	<path fill="#5D5D5D" d="M20.947,80.809c-0.949-2.249-2.427-4.714-4.395-7.326l0.64-0.481c2.006,2.666,3.518,5.188,4.492,7.498
		L20.947,80.809z"/>
	<path fill="#5D5D5D" d="M33.868,102.56c-0.23-0.027-0.791-0.102-1.007-0.195c-3.32-1.431-6.162-4.788-8.504-7.885l-1.732-2.29
		l0.349-0.642c0.49,0.037,0.922,0.131,1.443,0.316l0.118,0.042l0.073,0.103c2.897,4.033,6.019,7.25,9.543,9.83L33.868,102.56z
		 M23.886,92.532l1.108,1.465c1.787,2.363,3.867,4.881,6.2,6.51c-2.573-2.224-4.935-4.838-7.163-7.928
		C23.982,92.562,23.935,92.546,23.886,92.532z"/>
	<path fill="#5D5D5D" d="M23.748,92.104c-2.719-1.724-4.579-3.765-5.527-6.07c-0.484-1.176-0.812-2.948-0.921-4.185l0.771-0.182
		l0.487,1.232l0.378,0.115l0.116,0.869l0,0c0,0,0.174,0.935,0.23,1.177c0.056,0.237,0.113,0.419,0.268,0.877
		c0.055,0.159,0.117,0.294,0.173,0.396l1.333-0.466l3.253,5.697L23.748,92.104z M19.709,87.187c0.729,1.167,1.731,2.238,3.023,3.234
		l-2.043-3.576L19.709,87.187z"/>
	<path fill="#5D5D5D" d="M70.857,64.158l-0.299-0.178c-2.967-1.761-4.341-5.451-3.675-9.875l0.052-0.347l5.327,0.094l0.118,0.145
		c1.179,1.44,1.921,3.15,2.205,5.082l0.03,0.203l-0.148,0.143c-0.835,0.805-1.459,1.723-2.12,2.693
		c-0.398,0.586-0.81,1.191-1.272,1.77L70.857,64.158z M67.627,54.571c-0.217,1.803-0.359,6.268,3.042,8.534
		c0.358-0.47,0.691-0.96,1.016-1.438c0.617-0.908,1.254-1.846,2.077-2.672c-0.272-1.642-0.906-3.103-1.887-4.35L67.627,54.571z"/>
	<path fill="#5D5D5D" d="M71.477,62.398c-1.378-2.21-2.712-5.239-3.567-8.101l0.767-0.229c0.836,2.797,2.137,5.752,3.48,7.906
		L71.477,62.398z"/>
	<path fill="#5D5D5D" d="M74.497,73.407l-0.386-0.752c-1.079-2.097-2.569-4.719-4.548-6.436H69.26l-0.009-0.805l0.213-0.004
		l0.031-0.06c1.113-2.099,2.074-3.911,3.689-5.728c0.375-0.42,1.133-1.02,1.165-1.045l0.681-0.535l-0.033,0.865
		c-0.059,1.538,0.14,3.18,0.332,4.766c0.363,3,0.738,6.104-0.496,8.955L74.497,73.407z M70.207,65.72
		c1.776,1.586,3.151,3.816,4.198,5.772c0.769-2.44,0.445-5.12,0.13-7.721c-0.16-1.323-0.325-2.685-0.346-4.011
		c-0.152,0.137-0.3,0.277-0.406,0.396C72.232,61.899,71.293,63.671,70.207,65.72z"/>
	<path fill="#5D5D5D" d="M72.68,68.864l-0.771-0.216l0.047-0.168c0.359-1.272,0.517-2.565,0.684-3.935
		c0.172-1.408,0.35-2.865,0.769-4.291c0.098-0.334,0.25-0.637,0.397-0.93c0.068-0.136,0.136-0.271,0.197-0.408l0.731,0.326
		c-0.067,0.148-0.14,0.295-0.213,0.44c-0.137,0.272-0.266,0.53-0.345,0.797c-0.4,1.36-0.574,2.784-0.742,4.163
		c-0.163,1.337-0.332,2.721-0.708,4.053L72.68,68.864z"/>
	<path fill="#5D5D5D" d="M69.792,78.878l-0.276-0.181c-1.7-1.104-2.508-3.298-2.059-5.591c0.612-3.129-0.009-6.77-0.619-9.592
		l0.659-0.381c3.026,2.729,6.301,6.074,7.648,10.203c0.005,0.01,0.014,0.024,0.021,0.039c0.055,0.096,0.22,0.385,0.01,0.655
		c-0.884,0.962-1.847,1.747-2.778,2.509c-0.847,0.689-1.646,1.342-2.377,2.1L69.792,78.878z M67.871,64.563
		c0.523,2.685,0.925,5.866,0.371,8.698c-0.291,1.484-0.048,3.424,1.446,4.578c0.7-0.691,1.464-1.315,2.206-1.92
		c0.855-0.699,1.739-1.42,2.526-2.246c-0.014-0.029-0.027-0.063-0.038-0.099C73.228,70.038,70.541,67.058,67.871,64.563z"/>
	<path fill="#5D5D5D" d="M71.201,77.001c-1.399-1.732-1.539-3.939-1.674-6.072c-0.161-2.543-0.328-5.174-2.566-7.2l0.537-0.593
		c2.479,2.244,2.657,5.039,2.828,7.742c0.133,2.101,0.259,4.086,1.499,5.619L71.201,77.001z"/>
	<path fill="#5D5D5D" d="M74.552,84.144H74.38l-0.119-0.125c-0.123-0.131-0.116-0.264-0.108-0.417c0.05-0.96-0.14-1.201-0.258-1.261
		c-1.346-0.664-2.826-1.152-4.257-1.625c-0.419-0.139-0.838-0.276-1.254-0.418l-0.522-0.181l0.332-0.438
		c1.28-1.699,2.98-3.146,5.133-4.975l0.264-0.225c0.1-0.085,0.194-0.188,0.307-0.305c0.156-0.164,0.35-0.369,0.626-0.612
		l0.242,0.251l0.005-0.311c-0.069,0-0.115,0.019-0.117,0.02c0.07-0.029,0.358-0.198,0.567-0.323
		c0.298-0.176,0.607-0.358,0.819-0.463l0.549,0.506c-0.564,1.423-0.638,3.337-0.691,4.733l-0.005,0.127
		c-0.069,1.82-0.165,4.314-0.985,5.826l-0.114,0.209L74.552,84.144z M69.179,79.722c0.236,0.078,0.473,0.156,0.711,0.234
		c1.457,0.48,2.963,0.979,4.361,1.668c0.207,0.103,0.354,0.26,0.46,0.442c0.28-1.293,0.34-2.849,0.384-3.995l0.005-0.126
		c0.044-1.157,0.102-2.655,0.433-3.999c-0.334,0.196-0.493,0.286-0.599,0.326c-0.186,0.172-0.327,0.32-0.454,0.454
		c-0.129,0.137-0.242,0.255-0.369,0.362l-0.264,0.225C71.922,76.948,70.368,78.271,69.179,79.722z M74.823,73.876l0.254,0.266
		c0.06-0.063,0.127-0.229,0.053-0.398L74.823,73.876z"/>
	<path fill="#5D5D5D" d="M71.867,81.079l-0.737-0.312c0.974-2.312,2.486-4.832,4.492-7.497l0.639,0.48
		C74.293,76.364,72.815,78.829,71.867,81.079z"/>
	<path fill="#5D5D5D" d="M58.946,102.829l-0.284-0.721c3.525-2.58,6.646-5.795,9.544-9.83l0.073-0.102l0.118-0.043
		c0.52-0.185,0.952-0.278,1.444-0.314l0.349,0.641l-1.731,2.291c-2.342,3.094-5.183,6.451-8.504,7.883
		C59.736,102.728,59.177,102.8,58.946,102.829z M68.781,92.847c-2.228,3.09-4.589,5.705-7.163,7.931
		c2.333-1.631,4.414-4.147,6.201-6.511l1.108-1.467C68.88,92.816,68.833,92.833,68.781,92.847z"/>
	<path fill="#5D5D5D" d="M69.066,92.374l-0.562-0.537l3.253-5.697l1.333,0.465c0.056-0.102,0.119-0.234,0.173-0.396
		c0.155-0.457,0.212-0.639,0.267-0.877c0.059-0.252,0.234-1.195,0.234-1.195l0.113-0.85l0.379-0.115l0.487-1.234l0.771,0.182
		c-0.109,1.235-0.436,3.008-0.921,4.186C73.646,88.607,71.787,90.65,69.066,92.374z M72.124,87.113l-2.042,3.578
		c1.292-0.997,2.294-2.067,3.023-3.235L72.124,87.113z"/>
	<polygon fill="#5D5D5D" points="23.626,56.64 22.13,54.052 22.478,53.853 23.757,56.067 25.545,54.854 25.771,55.186 	"/>
	<polygon fill="#5D5D5D" points="22.839,58.531 20.342,54.376 20.686,54.171 22.979,57.986 25.565,56.478 25.768,56.823 	"/>
	<polygon fill="#5D5D5D" points="22.465,59.438 19.834,55.12 20.175,54.911 22.606,58.898 25.496,57.271 25.691,57.62 	"/>
	<polygon fill="#5D5D5D" points="23.206,57.564 21.107,54.073 21.451,53.867 23.344,57.02 25.674,55.661 25.876,56.005 	"/>
	<polygon fill="#5D5D5D" points="22.027,60.372 19.396,56.054 19.737,55.845 22.168,59.833 25.373,58.031 25.568,58.38 	"/>
	<polygon fill="#5D5D5D" points="21.714,61.154 19.01,56.798 19.351,56.587 21.856,60.624 25.101,58.88 25.29,59.233 	"/>
	
		<rect x="22.948" y="58.684" transform="matrix(-0.4443 -0.8959 0.8959 -0.4443 -20.9901 108.475)" fill="#5D5D5D" width="0.4" height="4.128"/>
	
		<rect x="22.737" y="59.723" transform="matrix(-0.4315 -0.9021 0.9021 -0.4315 -22.6661 108.7686)" fill="#5D5D5D" width="0.401" height="3.605"/>
	
		<rect x="22.618" y="60.978" transform="matrix(-0.4315 -0.9021 0.9021 -0.4315 -23.4956 109.7068)" fill="#5D5D5D" width="0.401" height="2.556"/>
	
		<rect x="24.633" y="53.826" transform="matrix(-0.5431 -0.8397 0.8397 -0.5431 -7.773 105.5575)" fill="#5D5D5D" width="0.4" height="2.135"/>
	
		<rect x="22.732" y="54.53" transform="matrix(-0.4889 -0.8724 0.8724 -0.4889 -12.5464 102.1099)" fill="#5D5D5D" width="1.816" height="0.4"/>
	
		<rect x="17.915" y="59.339" transform="matrix(-0.5214 -0.8533 0.8533 -0.5214 -20.1937 107.7528)" fill="#5D5D5D" width="4.409" height="0.401"/>
	
		<rect x="19.553" y="60.552" transform="matrix(-0.9722 -0.2342 0.2342 -0.9722 24.4816 126.5127)" fill="#5D5D5D" width="0.4" height="2.501"/>
	
		<rect x="17.54" y="61.375" transform="matrix(-0.5608 -0.8279 0.8279 -0.5608 -21.6368 111.673)" fill="#5D5D5D" width="2.521" height="0.4"/>
	
		<rect x="19.913" y="61.142" transform="matrix(-0.9721 -0.2345 0.2345 -0.9721 25.0224 127.8716)" fill="#5D5D5D" width="0.4" height="2.612"/>
	
		<rect x="17.616" y="62.452" transform="matrix(-0.5958 -0.8031 0.8031 -0.5958 -20.1953 115.1405)" fill="#5D5D5D" width="2.522" height="0.4"/>
	
		<rect x="20.202" y="61.812" transform="matrix(-0.9721 -0.2345 0.2345 -0.9721 25.2901 130.4786)" fill="#5D5D5D" width="0.4" height="3.848"/>
	
		<rect x="17.412" y="63.657" transform="matrix(-0.6172 -0.7868 0.7868 -0.6172 -19.591 118.1813)" fill="#5D5D5D" width="3.083" height="0.399"/>
	
		<rect x="20.603" y="62.482" transform="matrix(-0.9633 -0.2683 0.2683 -0.9633 23.4497 132.8761)" fill="#5D5D5D" width="0.4" height="4.708"/>
	
		<rect x="17.088" y="65.087" transform="matrix(-0.6153 -0.7883 0.7883 -0.6153 -20.7307 120.4567)" fill="#5D5D5D" width="3.882" height="0.4"/>
	
		<rect x="21.002" y="63.35" transform="matrix(-0.9516 -0.3074 0.3074 -0.9516 21.1245 135.0846)" fill="#5D5D5D" width="0.4" height="5.056"/>
	
		<rect x="16.892" y="66.575" transform="matrix(-0.6053 -0.796 0.796 -0.6053 -22.3265 122.4793)" fill="#5D5D5D" width="4.625" height="0.4"/>
	
		<rect x="16.786" y="67.322" transform="matrix(-0.6223 -0.7827 0.7827 -0.6223 -22.2977 124.2867)" fill="#5D5D5D" width="4.097" height="0.401"/>
	
		<rect x="21.726" y="64.373" transform="matrix(-0.9516 -0.3074 0.3074 -0.9516 22.5294 135.3596)" fill="#5D5D5D" width="0.4" height="3.065"/>
	
		<rect x="16.935" y="68.347" transform="matrix(-0.6225 -0.7826 0.7826 -0.6225 -23.4709 125.773)" fill="#5D5D5D" width="3.329" height="0.4"/>
	
		<rect x="17.05" y="69.372" transform="matrix(-0.6227 -0.7825 0.7825 -0.6227 -24.6209 127.2729)" fill="#5D5D5D" width="2.652" height="0.401"/>
	
		<rect x="17.361" y="70.467" transform="matrix(-0.6223 -0.7827 0.7827 -0.6223 -25.713 128.9289)" fill="#5D5D5D" width="1.772" height="0.401"/>
	
		<rect x="19.718" y="69.99" transform="matrix(-0.5298 -0.8481 0.8481 -0.5298 -26.3841 125.751)" fill="#5D5D5D" width="3.899" height="0.399"/>
	
		<rect x="20.499" y="68.837" transform="matrix(-0.548 -0.8365 0.8365 -0.548 -23.6551 125.2924)" fill="#5D5D5D" width="3.047" height="0.4"/>
	
		<rect x="18.995" y="70.912" transform="matrix(-0.5309 -0.8475 0.8475 -0.5309 -27.6555 126.9149)" fill="#5D5D5D" width="4.613" height="0.4"/>
	
		<rect x="18.506" y="71.977" transform="matrix(-0.5367 -0.8438 0.8438 -0.5367 -28.6692 128.6133)" fill="#5D5D5D" width="4.936" height="0.4"/>
	
		<rect x="17.978" y="72.878" transform="matrix(-0.522 -0.8529 0.8529 -0.522 -31.0288 128.7669)" fill="#5D5D5D" width="5.176" height="0.4"/>
	
		<rect x="17.458" y="73.83" transform="matrix(-0.5343 -0.8453 0.8453 -0.5343 -31.8196 130.5305)" fill="#5D5D5D" width="5.177" height="0.4"/>
	
		<rect x="17.517" y="73.816" transform="matrix(-0.5343 -0.8453 0.8453 -0.5343 -33.3099 129.6796)" fill="#5D5D5D" width="3.101" height="0.399"/>
	
		<rect x="21.16" y="67.85" transform="matrix(-0.5481 -0.8364 0.8364 -0.5481 -22.2545 124.0758)" fill="#5D5D5D" width="2.462" height="0.401"/>
	
		<rect x="22.022" y="66.784" transform="matrix(-0.5483 -0.8363 0.8363 -0.5483 -20.7416 122.7659)" fill="#5D5D5D" width="1.523" height="0.402"/>
	
		<rect x="24.074" y="64.954" transform="matrix(-0.6702 -0.7422 0.7422 -0.6702 -8.6265 128.6587)" fill="#5D5D5D" width="0.4" height="2.585"/>
	
		<rect x="23.882" y="66.068" transform="matrix(-0.6727 -0.7399 0.7399 -0.6727 -9.556 130.4948)" fill="#5D5D5D" width="0.4" height="2.586"/>
	
		<rect x="23.752" y="67.263" transform="matrix(-0.6702 -0.7422 0.7422 -0.6702 -10.8785 132.2771)" fill="#5D5D5D" width="0.4" height="2.585"/>
	
		<rect x="23.669" y="68.502" transform="matrix(-0.669 -0.7433 0.7433 -0.669 -12.0399 134.2258)" fill="#5D5D5D" width="0.401" height="2.584"/>
	
		<rect x="23.573" y="69.69" transform="matrix(-0.6702 -0.7422 0.7422 -0.6702 -12.9782 136.1966)" fill="#5D5D5D" width="0.4" height="2.584"/>
	
		<rect x="23.524" y="70.874" transform="matrix(-0.6702 -0.7422 0.7422 -0.6702 -13.9377 138.1383)" fill="#5D5D5D" width="0.4" height="2.585"/>
	
		<rect x="23.354" y="71.775" transform="matrix(-0.638 -0.77 0.77 -0.638 -17.9622 138.4184)" fill="#5D5D5D" width="0.399" height="3.312"/>
	
		<rect x="23.031" y="72.616" transform="matrix(-0.5992 -0.8006 0.8006 -0.5992 -22.7854 138.3278)" fill="#5D5D5D" width="0.4" height="4.502"/>
	
		<rect x="23.255" y="73.957" transform="matrix(-0.6012 -0.7991 0.7991 -0.6012 -23.1006 140.2756)" fill="#5D5D5D" width="0.4" height="3.891"/>
	
		<rect x="23.475" y="75.636" transform="matrix(-0.6012 -0.7991 0.7991 -0.6012 -23.5924 142.1454)" fill="#5D5D5D" width="0.4" height="2.647"/>
	
		<rect x="16.808" y="75.973" transform="matrix(-0.8317 -0.5552 0.5552 -0.8317 -8.846 149.6642)" fill="#5D5D5D" width="2.906" height="0.399"/>
	
		<rect x="17.023" y="77.78" transform="matrix(-0.8311 -0.5562 0.5562 -0.8311 -8.6503 153.3326)" fill="#5D5D5D" width="3.875" height="0.4"/>
	
		<rect x="16.988" y="79.187" transform="matrix(-0.8426 -0.5385 0.5385 -0.8426 -7.1123 156.6949)" fill="#5D5D5D" width="4.704" height="0.399"/>
	
		<rect x="17.173" y="80.073" transform="matrix(-0.8317 -0.5552 0.5552 -0.8317 -10.4536 157.3771)" fill="#5D5D5D" width="2.906" height="0.401"/>
	
		<rect x="20.297" y="75.811" transform="matrix(-0.9994 -0.0342 0.0342 -0.9994 38.3411 155.2783)" fill="#5D5D5D" width="0.4" height="3.002"/>
	
		<rect x="19.453" y="74.99" transform="matrix(-0.9994 -0.0342 0.0342 -0.9994 36.6919 152.918)" fill="#5D5D5D" width="0.4" height="2.312"/>
	
		<rect x="21.254" y="76.859" transform="matrix(-0.998 -0.0635 0.0635 -0.998 37.8623 158.7193)" fill="#5D5D5D" width="0.4" height="3.797"/>
	
		<rect x="22.325" y="77.639" transform="matrix(-0.9973 -0.0732 0.0732 -0.9973 39.2041 159.4249)" fill="#5D5D5D" width="0.4" height="2.709"/>
	
		<rect x="17.285" y="80.979" transform="matrix(-0.8361 -0.5487 0.5487 -0.8361 -11.1918 159.015)" fill="#5D5D5D" width="1.755" height="0.402"/>
	<rect x="18.519" y="74.265" fill="#5D5D5D" width="0.4" height="1.721"/>
	<polygon fill="#5D5D5D" points="69.229,56.867 67.085,55.411 67.311,55.081 69.098,56.294 70.378,54.079 70.725,54.279 	"/>
	<polygon fill="#5D5D5D" points="70.016,58.757 67.088,57.048 67.291,56.704 69.876,58.214 72.17,54.396 72.514,54.603 	"/>
	<polygon fill="#5D5D5D" points="70.391,59.663 67.164,57.845 67.36,57.497 70.25,59.126 72.681,55.138 73.021,55.347 	"/>
	<polygon fill="#5D5D5D" points="69.649,57.792 66.979,56.232 67.182,55.886 69.51,57.247 71.404,54.093 71.749,54.3 	"/>
	<polygon fill="#5D5D5D" points="70.829,60.597 67.288,58.606 67.483,58.257 70.688,60.06 73.119,56.071 73.459,56.28 	"/>
	<polygon fill="#5D5D5D" points="71.141,61.38 67.566,59.46 67.755,59.106 70.999,60.851 73.504,56.813 73.844,57.024 	"/>
	
		<rect x="67.635" y="60.768" transform="matrix(-0.8953 -0.4454 0.4454 -0.8953 104.9521 146.5971)" fill="#5D5D5D" width="4.129" height="0.4"/>
	
		<rect x="68.109" y="61.553" transform="matrix(-0.9019 -0.4319 0.4319 -0.9019 106.2915 147.6445)" fill="#5D5D5D" width="3.604" height="0.401"/>
	
		<rect x="68.751" y="62.285" transform="matrix(-0.9019 -0.4319 0.4319 -0.9019 106.1977 149.088)" fill="#5D5D5D" width="2.555" height="0.399"/>
	
		<rect x="66.958" y="54.92" transform="matrix(-0.8394 -0.5436 0.5436 -0.8394 95.1624 138.3623)" fill="#5D5D5D" width="2.134" height="0.4"/>
	
		<rect x="69.003" y="54.048" transform="matrix(-0.8724 -0.4888 0.4888 -0.8724 102.7178 136.7232)" fill="#5D5D5D" width="0.4" height="1.814"/>
	
		<rect x="72.532" y="57.571" transform="matrix(-0.8543 -0.5197 0.5197 -0.8543 103.8014 148.6431)" fill="#5D5D5D" width="0.398" height="4.409"/>
	
		<rect x="71.849" y="61.832" transform="matrix(-0.2339 -0.9723 0.9723 -0.2339 29.8849 147.6127)" fill="#5D5D5D" width="2.501" height="0.401"/>
	
		<rect x="73.857" y="60.549" transform="matrix(-0.829 -0.5592 0.5592 -0.829 100.8881 154.4642)" fill="#5D5D5D" width="0.4" height="2.521"/>
	
		<rect x="71.445" y="62.476" transform="matrix(-0.2336 -0.9723 0.9723 -0.2336 28.8071 148.0575)" fill="#5D5D5D" width="2.612" height="0.4"/>
	
		<rect x="73.782" y="61.614" transform="matrix(-0.8032 -0.5957 0.5957 -0.8032 95.9512 157.4477)" fill="#5D5D5D" width="0.4" height="2.522"/>
	
		<rect x="70.524" y="63.762" transform="matrix(-0.2334 -0.9724 0.9724 -0.2334 27.1664 149.34)" fill="#5D5D5D" width="3.849" height="0.4"/>
	
		<rect x="73.711" y="62.541" transform="matrix(-0.7863 -0.6178 0.6178 -0.7863 92.4368 160.1355)" fill="#5D5D5D" width="0.4" height="3.083"/>
	
		<rect x="69.691" y="64.871" transform="matrix(-0.2689 -0.9632 0.9632 -0.2689 28.7432 151.9595)" fill="#5D5D5D" width="4.709" height="0.4"/>
	
		<rect x="73.633" y="63.57" transform="matrix(-0.7872 -0.6166 0.6166 -0.7872 91.5614 162.614)" fill="#5D5D5D" width="0.401" height="3.882"/>
	
		<rect x="69.129" y="65.902" transform="matrix(-0.3089 -0.9511 0.9511 -0.3089 30.9214 154.674)" fill="#5D5D5D" width="5.057" height="0.4"/>
	
		<rect x="73.455" y="64.69" transform="matrix(-0.7931 -0.6091 0.6091 -0.7931 91.2576 165.0048)" fill="#5D5D5D" width="0.401" height="4.623"/>
	
		<rect x="73.827" y="65.701" transform="matrix(-0.783 -0.622 0.622 -0.783 89.8508 166.8431)" fill="#5D5D5D" width="0.4" height="4.097"/>
	
		<rect x="69.405" y="65.927" transform="matrix(-0.3088 -0.9511 0.9511 -0.3088 29.947 154.0168)" fill="#5D5D5D" width="3.063" height="0.4"/>
	
		<rect x="74.057" y="67.102" transform="matrix(-0.7813 -0.6241 0.6241 -0.7813 89.36 168.8398)" fill="#5D5D5D" width="0.401" height="3.329"/>
	
		<rect x="74.275" y="68.465" transform="matrix(-0.7818 -0.6235 0.6235 -0.7818 89.1862 170.7926)" fill="#5D5D5D" width="0.401" height="2.653"/>
	
		<rect x="74.414" y="70.009" transform="matrix(-0.7825 -0.6226 0.6226 -0.7825 88.8626 172.8282)" fill="#5D5D5D" width="0.4" height="1.772"/>
	
		<rect x="70.987" y="68.468" transform="matrix(-0.8482 -0.5297 0.5297 -0.8482 94.2711 167.8498)" fill="#5D5D5D" width="0.4" height="3.896"/>
	
		<rect x="70.63" y="67.737" transform="matrix(-0.8365 -0.5479 0.5479 -0.8365 92.1315 166.0096)" fill="#5D5D5D" width="0.401" height="3.048"/>
	
		<rect x="71.354" y="69.041" transform="matrix(-0.8468 -0.532 0.532 -0.8468 94.1881 169.8288)" fill="#5D5D5D" width="0.4" height="4.615"/>
	
		<rect x="71.678" y="69.933" transform="matrix(-0.8435 -0.5371 0.5371 -0.8435 93.621 172.0795)" fill="#5D5D5D" width="0.4" height="4.937"/>
	
		<rect x="72.081" y="70.706" transform="matrix(-0.8553 -0.5181 0.5181 -0.8553 96.1333 173.4313)" fill="#5D5D5D" width="0.4" height="5.175"/>
	
		<rect x="72.603" y="71.67" transform="matrix(-0.845 -0.5348 0.5348 -0.845 94.6031 175.9412)" fill="#5D5D5D" width="0.4" height="5.177"/>
	
		<rect x="73.582" y="72.69" transform="matrix(-0.8461 -0.5331 0.5331 -0.8461 96.6303 176.3855)" fill="#5D5D5D" width="0.399" height="3.103"/>
	
		<rect x="70.264" y="67.051" transform="matrix(-0.8365 -0.5479 0.5479 -0.8365 91.9977 164.0108)" fill="#5D5D5D" width="0.399" height="2.463"/>
	
		<rect x="69.864" y="66.455" transform="matrix(-0.8358 -0.5491 0.5491 -0.8358 91.7166 161.8647)" fill="#5D5D5D" width="0.4" height="1.523"/>
	
		<rect x="67.288" y="66.264" transform="matrix(-0.7426 -0.6697 0.6697 -0.7426 74.9981 161.7515)" fill="#5D5D5D" width="2.584" height="0.402"/>
	
		<rect x="67.48" y="67.379" transform="matrix(-0.7427 -0.6696 0.6696 -0.7427 74.6001 163.8216)" fill="#5D5D5D" width="2.584" height="0.4"/>
	
		<rect x="67.613" y="68.576" transform="matrix(-0.7426 -0.6697 0.6697 -0.7426 74.0153 165.997)" fill="#5D5D5D" width="2.585" height="0.4"/>
	
		<rect x="67.693" y="69.817" transform="matrix(-0.7426 -0.6697 0.6697 -0.7426 73.3261 168.2124)" fill="#5D5D5D" width="2.584" height="0.4"/>
	
		<rect x="67.79" y="71.002" transform="matrix(-0.7426 -0.6697 0.6697 -0.7426 72.7002 170.343)" fill="#5D5D5D" width="2.584" height="0.4"/>
	
		<rect x="67.842" y="72.195" transform="matrix(-0.7423 -0.6701 0.6701 -0.7423 71.9379 172.458)" fill="#5D5D5D" width="2.585" height="0.4"/>
	
		<rect x="67.641" y="73.457" transform="matrix(-0.7706 -0.6373 0.6373 -0.7706 75.7525 174.5813)" fill="#5D5D5D" width="3.313" height="0.399"/>
	
		<rect x="67.366" y="74.904" transform="matrix(-0.8003 -0.5996 0.5996 -0.8003 80.3006 176.9526)" fill="#5D5D5D" width="4.503" height="0.4"/>
	
		<rect x="67.459" y="75.929" transform="matrix(-0.8003 -0.5996 0.5996 -0.8003 79.299 178.6708)" fill="#5D5D5D" width="3.891" height="0.4"/>
	
		<rect x="67.855" y="76.994" transform="matrix(-0.8007 -0.5991 0.5991 -0.8007 78.3184 180.4457)" fill="#5D5D5D" width="2.646" height="0.4"/>
	
		<rect x="74.396" y="74.948" transform="matrix(-0.5561 -0.8311 0.8311 -0.5561 52.5809 180.8859)" fill="#5D5D5D" width="0.4" height="2.906"/>
	
		<rect x="73.698" y="76.272" transform="matrix(-0.5564 -0.8309 0.8309 -0.5564 50.0293 183.1278)" fill="#5D5D5D" width="0.402" height="3.875"/>
	
		<rect x="73.32" y="77.258" transform="matrix(-0.5363 -0.844 0.844 -0.5363 45.7616 184.3579)" fill="#5D5D5D" width="0.401" height="4.703"/>
	
		<rect x="74.023" y="79.051" transform="matrix(-0.555 -0.8319 0.8319 -0.555 48.4486 186.9252)" fill="#5D5D5D" width="0.4" height="2.904"/>
	
		<rect x="70.852" y="77.342" transform="matrix(-0.0348 -0.9994 0.9994 -0.0348 -2.6243 152.5494)" fill="#5D5D5D" width="3.004" height="0.4"/>
	
		<rect x="72.045" y="76.169" transform="matrix(-0.0346 -0.9994 0.9994 -0.0346 -0.5857 152.1706)" fill="#5D5D5D" width="2.312" height="0.399"/>
	
		<rect x="69.51" y="78.787" transform="matrix(-0.065 -0.9979 0.9979 -0.065 -2.7736 155.3757)" fill="#5D5D5D" width="3.795" height="0.4"/>
	
		<rect x="68.975" y="79.023" transform="matrix(-0.0739 -0.9973 0.9973 -0.0739 -3.4805 155.2141)" fill="#5D5D5D" width="2.71" height="0.4"/>
	
		<rect x="74.491" y="80.521" transform="matrix(-0.5496 -0.8354 0.8354 -0.5496 47.741 188.5346)" fill="#5D5D5D" width="0.4" height="1.755"/>
	<rect x="73.938" y="74.492" fill="#5D5D5D" width="0.4" height="1.72"/>
	<path fill="#5D5D5D" d="M46.34,107.296c-0.452,0-0.894-0.026-1.315-0.078c-7.289-0.905-12.947-5.57-17.521-10.016l-0.034-0.037
		c-4.277-5.346-6.308-8.74-8.689-14.527c-0.03-0.072-0.226-0.436-0.39-0.729l-0.229-0.408l5.998-2.227
		c0.278-0.128,0.643-0.27,1.03-0.27c0.41,0,0.798,0.154,1.222,0.488l0.071,0.057l1.829,3.695
		c4.764,9.625,10.898,14.641,18.752,15.334c7.211-1.104,13.481-8.002,16.501-14.363c0.214-0.414,0.423-0.944,0.645-1.508
		c0.686-1.74,1.464-3.715,2.901-3.715c0.191,0,0.387,0.038,0.582,0.111l6.741,2.521l-0.172,0.389
		c-3.345,7.525-9.275,17.027-15.888,21.115C56.355,104.384,51.14,107.296,46.34,107.296z M28.082,96.646
		c4.475,4.346,10,8.902,17.044,9.777c0.388,0.047,0.797,0.072,1.216,0.072c4.593,0,9.651-2.828,11.613-4.043
		c6.346-3.926,12.08-13.021,15.404-20.375l-5.944-2.224c-0.106-0.04-0.205-0.06-0.301-0.06c-0.892,0-1.593,1.777-2.157,3.207
		c-0.229,0.582-0.446,1.131-0.672,1.569c-3.111,6.554-9.625,13.681-17.146,14.806l-0.046,0.008l-0.047-0.006
		c-8.179-0.701-14.541-5.861-19.449-15.779l-1.747-3.53c-0.316-0.233-0.516-0.265-0.657-0.265c-0.187,0-0.403,0.063-0.725,0.209
		l-5.151,1.912c0.09,0.166,0.177,0.332,0.207,0.406C21.868,88.033,23.869,91.38,28.082,96.646z"/>
	<g>
		<path fill="#5D5D5D" d="M23.729,86.798l2.421-1.461l0.634,1.053c0.127,0.212,0.203,0.385,0.226,0.521
			c0.022,0.138-0.001,0.271-0.071,0.402c-0.071,0.133-0.172,0.237-0.306,0.319c-0.172,0.103-0.35,0.136-0.533,0.099
			c-0.184-0.039-0.36-0.161-0.529-0.37c0.009,0.107,0.007,0.193-0.006,0.262c-0.031,0.145-0.086,0.297-0.166,0.455l-0.41,0.811
			l-0.238-0.396l0.314-0.616c0.09-0.181,0.156-0.322,0.197-0.429c0.041-0.106,0.063-0.19,0.065-0.257
			c0.003-0.064-0.004-0.127-0.021-0.184c-0.014-0.039-0.045-0.101-0.094-0.182l-0.219-0.363l-1.075,0.647L23.729,86.798z
			 M25.271,86.296l0.406,0.676c0.087,0.143,0.169,0.246,0.249,0.309c0.079,0.063,0.165,0.096,0.256,0.098
			c0.092,0.002,0.177-0.021,0.255-0.067c0.114-0.068,0.184-0.166,0.209-0.293c0.024-0.125-0.016-0.275-0.122-0.452l-0.452-0.751
			L25.271,86.296z"/>
		<path fill="#5D5D5D" d="M25.563,89.742l2.323-1.612l1.142,1.646l-0.274,0.189l-0.933-1.344l-0.711,0.493l0.873,1.259l-0.273,0.188
			l-0.873-1.259l-0.791,0.549l0.969,1.396l-0.274,0.19L25.563,89.742z"/>
		<path fill="#5D5D5D" d="M27.417,92.363l2.26-1.698l0.627,0.836c0.111,0.146,0.188,0.264,0.231,0.353
			c0.063,0.123,0.097,0.239,0.1,0.354c0.003,0.11-0.025,0.226-0.084,0.34c-0.06,0.115-0.146,0.215-0.258,0.299
			c-0.192,0.146-0.4,0.207-0.623,0.189c-0.223-0.021-0.453-0.188-0.688-0.5l-0.427-0.568l-0.919,0.69L27.417,92.363z M28.822,91.765
			l0.431,0.572c0.142,0.189,0.279,0.297,0.411,0.321c0.132,0.026,0.263-0.011,0.394-0.108c0.094-0.07,0.158-0.154,0.19-0.252
			c0.032-0.098,0.03-0.192-0.006-0.285c-0.024-0.061-0.085-0.155-0.185-0.289l-0.426-0.565L28.822,91.765z"/>
		<path fill="#5D5D5D" d="M32.896,94.132l0.266,0.252l-1.125,1.185c-0.196,0.206-0.375,0.349-0.535,0.427
			c-0.161,0.076-0.337,0.098-0.528,0.061c-0.192-0.037-0.384-0.147-0.578-0.332c-0.188-0.18-0.31-0.358-0.367-0.538
			c-0.057-0.181-0.051-0.356,0.017-0.53c0.068-0.175,0.206-0.369,0.412-0.587l1.126-1.185l0.266,0.252l-1.125,1.184
			c-0.169,0.18-0.278,0.325-0.325,0.439c-0.048,0.115-0.054,0.232-0.019,0.354c0.036,0.12,0.11,0.234,0.224,0.344
			c0.196,0.187,0.378,0.272,0.547,0.262c0.169-0.012,0.375-0.146,0.621-0.402L32.896,94.132z"/>
		<path fill="#5D5D5D" d="M32.16,97.279l1.802-2.179l0.8,0.662c0.164,0.135,0.276,0.266,0.338,0.391s0.083,0.258,0.063,0.395
			c-0.02,0.139-0.071,0.258-0.154,0.357c-0.078,0.094-0.175,0.16-0.292,0.201c-0.117,0.042-0.247,0.046-0.389,0.014
			c0.097,0.146,0.142,0.295,0.134,0.443c-0.007,0.15-0.064,0.29-0.168,0.417c-0.085,0.103-0.185,0.181-0.299,0.231
			c-0.114,0.053-0.223,0.078-0.324,0.074c-0.101-0.005-0.209-0.033-0.323-0.087c-0.114-0.054-0.238-0.136-0.375-0.249L32.16,97.279z
			 M32.654,97.255l0.531,0.438c0.091,0.076,0.158,0.125,0.201,0.149c0.075,0.041,0.146,0.065,0.212,0.074
			c0.066,0.008,0.136-0.002,0.208-0.031c0.072-0.03,0.136-0.08,0.194-0.148c0.067-0.081,0.105-0.169,0.114-0.263
			c0.009-0.095-0.013-0.183-0.065-0.267c-0.052-0.084-0.146-0.183-0.282-0.295l-0.493-0.408L32.654,97.255z M33.487,96.249
			l0.461,0.383c0.125,0.104,0.222,0.17,0.291,0.197c0.09,0.037,0.174,0.047,0.252,0.025c0.078-0.021,0.149-0.068,0.212-0.146
			c0.06-0.072,0.096-0.148,0.107-0.231c0.012-0.084-0.006-0.161-0.052-0.233c-0.046-0.072-0.146-0.172-0.3-0.3l-0.426-0.353
			L33.487,96.249z"/>
		<path fill="#5D5D5D" d="M34.734,99.333l1.604-2.328l0.302,0.207l-1.415,2.055l1.123,0.773l-0.189,0.273L34.734,99.333z"/>
		<path fill="#5D5D5D" d="M37.188,100.927l1.406-2.451l0.318,0.182l-1.406,2.453L37.188,100.927z"/>
		<path fill="#5D5D5D" d="M40.922,101.65l0.299,0.233c-0.192,0.25-0.412,0.41-0.66,0.479c-0.247,0.069-0.503,0.046-0.768-0.069
			c-0.274-0.117-0.472-0.271-0.595-0.459c-0.122-0.188-0.182-0.408-0.178-0.664c0.004-0.254,0.059-0.506,0.166-0.754
			c0.117-0.271,0.27-0.483,0.458-0.642s0.398-0.249,0.63-0.272c0.232-0.021,0.46,0.015,0.684,0.11
			c0.254,0.108,0.439,0.269,0.556,0.476c0.116,0.207,0.156,0.445,0.121,0.715l-0.365-0.063c0.022-0.214-0.004-0.389-0.079-0.522
			c-0.075-0.135-0.197-0.238-0.367-0.313c-0.195-0.085-0.38-0.107-0.552-0.068c-0.173,0.039-0.32,0.127-0.443,0.266
			s-0.221,0.293-0.295,0.465c-0.095,0.221-0.147,0.426-0.155,0.618c-0.008,0.19,0.037,0.356,0.135,0.497
			c0.098,0.138,0.224,0.24,0.379,0.308c0.188,0.082,0.372,0.095,0.55,0.041C40.623,101.976,40.781,101.849,40.922,101.65z"/>
		<path fill="#5D5D5D" d="M43.905,102.154c0.066-0.465,0.239-0.812,0.521-1.04c0.282-0.229,0.616-0.314,1.002-0.26
			c0.253,0.035,0.473,0.131,0.659,0.281c0.186,0.152,0.316,0.348,0.392,0.584c0.075,0.234,0.093,0.494,0.054,0.772
			c-0.04,0.284-0.133,0.53-0.277,0.738s-0.327,0.354-0.549,0.44s-0.452,0.112-0.69,0.078c-0.258-0.035-0.48-0.133-0.665-0.289
			c-0.186-0.154-0.314-0.352-0.388-0.586C43.891,102.64,43.872,102.4,43.905,102.154z M44.279,102.214
			c-0.048,0.336,0.003,0.615,0.153,0.834c0.15,0.22,0.36,0.349,0.627,0.386c0.273,0.04,0.512-0.027,0.716-0.198
			s0.332-0.438,0.383-0.797c0.032-0.229,0.023-0.432-0.028-0.613c-0.052-0.18-0.144-0.326-0.275-0.441
			c-0.132-0.113-0.289-0.185-0.469-0.209c-0.257-0.037-0.491,0.021-0.702,0.177C44.475,101.505,44.338,101.792,44.279,102.214z"/>
		<path fill="#5D5D5D" d="M47.865,103.74l-0.488-2.784l1.84-0.322l0.058,0.328l-1.479,0.26l0.151,0.861l1.281-0.225l0.058,0.329
			l-1.28,0.226l0.221,1.264L47.865,103.74z"/>
		<path fill="#5D5D5D" d="M52.596,102.479l-1.142-2.587l0.951-0.421c0.194-0.084,0.36-0.127,0.5-0.125
			c0.14,0,0.267,0.039,0.381,0.119c0.115,0.08,0.198,0.18,0.25,0.299c0.049,0.109,0.065,0.228,0.05,0.351s-0.069,0.241-0.162,0.354
			c0.174-0.022,0.326,0.004,0.458,0.078c0.131,0.074,0.229,0.188,0.296,0.336c0.054,0.121,0.079,0.246,0.074,0.371
			c-0.004,0.127-0.031,0.233-0.08,0.322c-0.049,0.09-0.123,0.174-0.221,0.252c-0.099,0.077-0.228,0.152-0.39,0.223L52.596,102.479z
			 M52.269,100.833l0.548-0.242c0.148-0.065,0.251-0.123,0.307-0.172c0.074-0.063,0.119-0.135,0.136-0.213
			c0.017-0.08,0.005-0.164-0.035-0.256c-0.038-0.085-0.091-0.152-0.161-0.199c-0.069-0.049-0.146-0.066-0.232-0.059
			s-0.219,0.053-0.401,0.134l-0.506,0.224L52.269,100.833z M52.795,102.025l0.631-0.276c0.108-0.049,0.183-0.086,0.223-0.113
			c0.071-0.049,0.125-0.102,0.163-0.156c0.037-0.057,0.058-0.123,0.064-0.2c0.005-0.077-0.01-0.157-0.046-0.239
			c-0.043-0.097-0.104-0.17-0.184-0.22s-0.169-0.069-0.268-0.062s-0.229,0.049-0.39,0.119l-0.586,0.26L52.795,102.025z"/>
		<path fill="#5D5D5D" d="M55.765,97.71l0.317-0.186l0.821,1.412c0.143,0.246,0.229,0.457,0.258,0.633
			c0.03,0.176,0,0.352-0.09,0.523c-0.089,0.174-0.25,0.326-0.48,0.461c-0.225,0.131-0.431,0.197-0.62,0.201
			c-0.189,0.004-0.356-0.051-0.504-0.164c-0.148-0.114-0.297-0.301-0.448-0.561l-0.821-1.412l0.317-0.184l0.82,1.41
			c0.123,0.213,0.233,0.356,0.331,0.436s0.209,0.117,0.335,0.117c0.125,0,0.256-0.04,0.393-0.12
			c0.232-0.135,0.368-0.285,0.404-0.451c0.036-0.165-0.035-0.401-0.213-0.708L55.765,97.71z"/>
		<path fill="#5D5D5D" d="M58.635,99.216l-1.724-2.242l0.291-0.223l1.52,1.978l1.081-0.832l0.204,0.265L58.635,99.216z"/>
		<path fill="#5D5D5D" d="M61.042,95.671l-0.235-0.233l0.827-0.832l0.743,0.739c-0.023,0.23-0.076,0.441-0.159,0.63
			c-0.083,0.187-0.195,0.353-0.337,0.495c-0.192,0.191-0.409,0.326-0.65,0.398c-0.241,0.074-0.481,0.07-0.721-0.007
			c-0.24-0.079-0.458-0.216-0.654-0.412c-0.195-0.194-0.337-0.416-0.426-0.663c-0.09-0.248-0.101-0.488-0.033-0.721
			s0.198-0.445,0.393-0.641c0.142-0.143,0.293-0.248,0.454-0.314c0.162-0.066,0.316-0.093,0.465-0.074
			c0.148,0.02,0.307,0.078,0.476,0.178l-0.168,0.301c-0.131-0.072-0.248-0.115-0.35-0.131c-0.102-0.014-0.21,0.002-0.327,0.049
			c-0.116,0.047-0.224,0.119-0.322,0.218c-0.118,0.119-0.202,0.239-0.251,0.362c-0.05,0.123-0.071,0.242-0.063,0.354
			c0.008,0.113,0.032,0.22,0.075,0.321c0.074,0.173,0.184,0.332,0.328,0.477c0.179,0.178,0.358,0.297,0.538,0.355
			c0.181,0.061,0.357,0.063,0.53,0.005c0.173-0.058,0.324-0.149,0.453-0.28c0.111-0.111,0.199-0.244,0.261-0.396
			c0.063-0.149,0.096-0.277,0.102-0.383l-0.373-0.371L61.042,95.671z"/>
		<path fill="#5D5D5D" d="M63.291,94.908l-1.519-2.61l0.25-0.307l2.907,0.909l-0.264,0.323l-0.868-0.291l-0.732,0.896l0.471,0.777
			L63.291,94.908z M62.896,93.556l0.594-0.729l-0.79-0.271c-0.24-0.082-0.433-0.154-0.578-0.219
			c0.118,0.143,0.226,0.295,0.324,0.457L62.896,93.556z"/>
		<path fill="#5D5D5D" d="M65.519,92.101l-2.315-1.624l0.705-1.005c0.142-0.202,0.271-0.342,0.386-0.418
			c0.115-0.076,0.248-0.107,0.397-0.098c0.149,0.012,0.288,0.062,0.415,0.15c0.165,0.113,0.266,0.264,0.306,0.447
			c0.039,0.184-0.002,0.395-0.125,0.633c0.095-0.053,0.176-0.085,0.243-0.1c0.144-0.031,0.304-0.041,0.482-0.035l0.907,0.049
			l-0.265,0.378l-0.691-0.038c-0.201-0.01-0.358-0.014-0.471-0.007c-0.113,0.005-0.201,0.021-0.262,0.044s-0.113,0.056-0.157,0.094
			c-0.031,0.029-0.074,0.082-0.128,0.159l-0.244,0.349l1.028,0.721L65.519,92.101z M64.436,90.894l0.453-0.646
			c0.096-0.137,0.157-0.254,0.182-0.352c0.025-0.098,0.021-0.189-0.015-0.273c-0.036-0.084-0.09-0.152-0.165-0.207
			c-0.109-0.076-0.227-0.101-0.352-0.072c-0.125,0.029-0.247,0.127-0.365,0.295l-0.503,0.719L64.436,90.894z"/>
		<path fill="#5D5D5D" d="M67.477,89.216L65.089,87.7l0.196-0.311l2.387,1.517L67.477,89.216z"/>
		<path fill="#5D5D5D" d="M68.198,88.083l-1.909-2.342l0.199-0.342l3.014,0.443l-0.21,0.361l-0.902-0.152l-0.583,1l0.587,0.693
			L68.198,88.083z M67.598,86.808l0.472-0.813l-0.822-0.144c-0.25-0.043-0.452-0.087-0.605-0.125
			c0.139,0.12,0.269,0.255,0.392,0.399L67.598,86.808z"/>
	</g>
	<path fill="#5D5D5D" d="M19.37,87.306l-0.42-0.768c-0.541-0.984-1.081-4.3-0.704-4.937c0.095-0.159,0.248-0.251,0.421-0.251
		c0.289,0,0.461,0.255,0.518,0.339c0.363,0.534,0.633,1.258,0.919,2.024c0.313,0.834,0.635,1.697,1.105,2.424l0.277,0.428
		L19.37,87.306z M18.934,82.923c0.089,1.041,0.381,2.617,0.717,3.23l0.094,0.172l0.534-0.186c-0.382-0.695-0.668-1.459-0.925-2.146
		C19.212,83.618,19.076,83.251,18.934,82.923z"/>
	<path fill="#5D5D5D" d="M73.198,87.548l-2.08-0.836l0.297-0.414c0.505-0.705,0.87-1.553,1.222-2.373
		c0.323-0.752,0.628-1.463,1.016-1.979c0.058-0.077,0.235-0.313,0.511-0.313c0.175,0,0.333,0.098,0.423,0.258
		c0.383,0.686-0.391,4.025-0.935,4.914L73.198,87.548z M72.346,86.343l0.523,0.211l0.104-0.17c0.366-0.596,0.732-2.155,0.873-3.193
		c-0.158,0.322-0.313,0.682-0.471,1.051C73.083,84.917,72.761,85.667,72.346,86.343z"/>
	<g>
		<polygon fill="#5D5D5D" points="34.497,55.591 36.83,55.591 35.625,56.649 		"/>
		<polygon fill="#5D5D5D" points="35.615,57.189 34.224,55.884 34.497,55.192 36.83,55.192 37.093,55.893 		"/>
	</g>
	<path fill="#5D5D5D" d="M41.625,77.021H29.358l5.828-18.51l0.038-1.871l0.8,0.018l-0.038,1.863L41.625,77.021z M30.45,76.22h10.095
		L35.58,59.929L30.45,76.22z"/>
	<g>
		<line fill="none" x1="29.071" y1="76.544" x2="41.729" y2="76.687"/>
		
			<rect x="29.074" y="76.21" transform="matrix(-0.9999 -0.0114 0.0114 -0.9999 69.9266 153.618)" fill="#5D5D5D" width="12.657" height="0.799"/>
	</g>
	<path fill="#5D5D5D" d="M35.448,82.763c-3.547,0-5.938-3.176-5.944-6.143l-0.001-0.4h11.975l0.006,0.395
		c0.026,1.736-0.547,3.25-1.657,4.378C38.718,82.117,37.124,82.763,35.448,82.763z M30.321,77.021
		c0.206,2.458,2.216,4.941,5.127,4.941c1.461,0,2.85-0.558,3.809-1.531c0.873-0.887,1.36-2.059,1.421-3.41H30.321z"/>
	<path fill="#5D5D5D" d="M35.681,80.753L35.681,80.753c-0.125,0-0.25-0.006-0.375-0.021c-1.813-0.194-3.467-1.755-4.795-3.009
		c-0.306-0.288-0.596-0.563-0.87-0.803l0.264-0.701h11.652l-0.441,0.629C39.87,78.63,37.916,80.753,35.681,80.753z M30.931,77.021
		c0.043,0.041,0.085,0.081,0.129,0.121c1.241,1.172,2.786,2.629,4.332,2.796c1.762,0.188,3.419-1.377,4.607-2.917H30.931z"/>
	
		<rect x="32.118" y="58.301" transform="matrix(-0.9999 -0.0127 0.0127 -0.9999 91.9388 117.9862)" fill="#5D5D5D" width="28.452" height="0.801"/>
	<polygon fill="#5D5D5D" points="56.977,57.189 55.584,55.884 55.857,55.192 58.189,55.192 58.455,55.893 	"/>
	<path fill="#5D5D5D" d="M62.985,77.021H50.719l5.828-18.51l0.038-1.871l0.8,0.018l-0.038,1.863L62.985,77.021z M51.811,76.22
		h10.095L56.94,59.929L51.811,76.22z"/>
	<path fill="#5D5D5D" d="M56.946,59.837c-0.71,0-1.287-0.564-1.287-1.261s0.577-1.262,1.287-1.262c0.709,0,1.287,0.565,1.287,1.262
		C58.233,59.271,57.656,59.837,56.946,59.837z M56.946,58.114c-0.269,0-0.487,0.207-0.487,0.462s0.218,0.462,0.487,0.462
		c0.268,0,0.486-0.207,0.486-0.462C57.434,58.321,57.214,58.114,56.946,58.114z"/>
	
		<rect x="50.434" y="76.209" transform="matrix(-0.9999 -0.0113 0.0113 -0.9999 112.6518 153.8577)" fill="#5D5D5D" width="12.656" height="0.8"/>
	<path fill="#5D5D5D" d="M56.81,82.763c-3.548,0-5.938-3.176-5.944-6.143v-0.4H62.84l0.006,0.395
		c0.027,1.736-0.546,3.25-1.657,4.378C60.08,82.117,58.483,82.763,56.81,82.763z M51.683,77.021
		c0.205,2.458,2.215,4.941,5.127,4.941c1.462,0,2.85-0.559,3.809-1.531c0.873-0.887,1.36-2.061,1.421-3.41H51.683z"/>
	<path fill="#5D5D5D" d="M57.042,80.753L57.042,80.753c-0.125,0-0.25-0.006-0.375-0.021c-1.813-0.194-3.466-1.755-4.795-3.009
		c-0.306-0.288-0.596-0.563-0.87-0.803l0.264-0.701h11.652l-0.44,0.629C61.23,78.63,59.275,80.753,57.042,80.753z M52.292,77.021
		c0.042,0.04,0.085,0.081,0.128,0.121c1.241,1.172,2.786,2.629,4.332,2.796c1.761,0.19,3.419-1.377,4.607-2.917H52.292z"/>
	<polygon fill="#5D5D5D" points="39.15,87.997 38.902,87.236 46.091,84.575 53.281,87.171 53.037,87.933 46.2,86.005 	"/>
	<path fill="#5D5D5D" d="M46.121,96.112c-1.12,0-2.03-0.891-2.03-1.984s0.911-1.982,2.03-1.982c1.119,0,2.03,0.891,2.03,1.982
		C48.15,95.222,47.239,96.112,46.121,96.112z M46.121,92.944c-0.678,0-1.23,0.531-1.23,1.184c0,0.653,0.552,1.186,1.23,1.186
		c0.678,0,1.23-0.531,1.23-1.186C47.351,93.476,46.798,92.944,46.121,92.944z"/>
	<path fill="#5D5D5D" d="M47.931,93.972l-2.708-1.016l-0.061-0.061c-0.277-0.271-0.73-0.823-0.647-1.432
		c0.034-0.25,0.174-0.602,0.648-0.865l0.167-0.094l0.177,0.071c0.166,0.066,0.322,0.126,0.469,0.183
		c1.26,0.486,2.092,0.807,1.986,2.67L47.931,93.972z M45.667,92.269l1.497,0.563c-0.063-0.779-0.46-0.933-1.476-1.322
		c-0.09-0.035-0.183-0.07-0.28-0.108c-0.088,0.081-0.097,0.146-0.101,0.173C45.284,91.743,45.423,92.011,45.667,92.269z"/>
	<path fill="#5D5D5D" d="M47.813,92.451l-2.68-1.104l-0.059-0.063c-0.265-0.279-0.693-0.842-0.585-1.443
		c0.045-0.252,0.203-0.604,0.703-0.852l0.167-0.084l0.171,0.076c0.165,0.072,0.32,0.139,0.466,0.199
		c1.256,0.529,2.086,0.881,1.875,2.744L47.813,92.451z M45.602,90.673l1.508,0.621c-0.018-0.783-0.411-0.951-1.422-1.377
		c-0.092-0.039-0.187-0.078-0.286-0.123c-0.105,0.086-0.118,0.155-0.123,0.186C45.248,90.146,45.374,90.413,45.602,90.673z"/>
	<path fill="#5D5D5D" d="M47.588,90.815l-2.683-1.208l-0.055-0.062c-0.417-0.453-0.581-0.922-0.46-1.317
		c0.076-0.253,0.304-0.589,0.953-0.748l0.137-0.033l0.128,0.062c0.172,0.08,0.335,0.156,0.488,0.227
		c1.248,0.573,2.233,1.025,1.638,2.674L47.588,90.815z M45.388,88.946l1.717,0.773c0.106-0.572-0.231-0.75-1.341-1.258
		c-0.115-0.054-0.235-0.107-0.36-0.166c-0.161,0.056-0.235,0.119-0.248,0.164C45.135,88.525,45.184,88.706,45.388,88.946z"/>
	<path fill="#5D5D5D" d="M47.466,89.382l-2.667-1.367l-0.053-0.063c-0.384-0.471-0.515-0.942-0.369-1.329
		c0.141-0.371,0.5-0.607,1.067-0.701l0.135-0.021l0.12,0.064c0.173,0.092,0.337,0.179,0.492,0.26
		c1.263,0.656,2.26,1.178,1.456,2.796L47.466,89.382z M45.316,87.382l1.773,0.908c0.188-0.578-0.141-0.771-1.269-1.359
		c-0.119-0.063-0.244-0.127-0.374-0.195c-0.207,0.051-0.303,0.119-0.322,0.17C45.103,86.966,45.136,87.14,45.316,87.382z"/>
	<path fill="#5D5D5D" d="M48.583,86.325l-2.487-0.898l-2.174,0.807l-0.005-27.557l0.316-5.52l0.321-2.09
		c0.217-1.4,0.571-2.656,1.084-3.842l0.104-0.24h1.408l0.453,1.57c0.903,2.781,1.011,5.742,1.115,8.609
		c0.019,0.516,0.038,1.03,0.061,1.545l-0.158,11.963L48.583,86.325z M46.091,84.575l1.693,0.611l0.035-14.52l0.159-11.945
		c-0.023-0.491-0.042-1.01-0.061-1.528c-0.102-2.812-0.207-5.716-1.081-8.401l-0.29-1.007h-0.278
		c-0.431,1.05-0.734,2.167-0.925,3.404l-0.317,2.051l-0.312,5.459l0.006,26.384L46.091,84.575z"/>
	
		<rect x="45.856" y="47.391" transform="matrix(-0.9999 -0.011 0.011 -0.9999 91.7829 132.9044)" fill="#5D5D5D" width="0.8" height="37.618"/>
	<polygon fill="#5D5D5D" points="48.03,85.345 46.109,84.542 44.487,85.288 44.153,84.561 46.094,83.669 48.339,84.606 	"/>
	<path fill="#5D5D5D" d="M35.585,59.837c-0.71,0-1.287-0.564-1.287-1.261s0.577-1.262,1.287-1.262c0.709,0,1.287,0.565,1.287,1.262
		C36.873,59.271,36.294,59.837,35.585,59.837z M35.585,58.114c-0.269,0-0.487,0.207-0.487,0.462s0.218,0.462,0.487,0.462
		c0.268,0,0.487-0.207,0.487-0.462S35.854,58.114,35.585,58.114z"/>
	<path fill="#5D5D5D" d="M68.912,48.015H23.965v-10.57h44.946V48.015z M24.766,47.214H68.11v-8.969H24.766V47.214z"/>
	<g>
		<path fill="#5D5D5D" d="M26.563,39.839c0.269-0.07,0.647-0.123,1.18-0.123c0.538,0,0.922,0.158,1.179,0.477
			c0.247,0.299,0.413,0.791,0.413,1.371c0,0.581-0.126,1.072-0.355,1.406c-0.298,0.433-0.739,0.625-1.254,0.625
			c-0.114,0-0.217-0.008-0.297-0.025v2.12h-0.865L26.563,39.839L26.563,39.839z M27.426,42.531c0.074,0.026,0.166,0.035,0.292,0.035
			c0.464,0,0.75-0.36,0.75-0.968c0-0.545-0.246-0.871-0.682-0.871c-0.177,0-0.298,0.027-0.36,0.054V42.531z"/>
		<path fill="#5D5D5D" d="M30.214,39.839c0.281-0.07,0.699-0.123,1.163-0.123c0.573,0,0.974,0.133,1.249,0.467
			c0.229,0.281,0.355,0.695,0.355,1.24c0,0.758-0.349,1.274-0.682,1.461v0.024c0.269,0.167,0.418,0.563,0.516,1.109
			c0.12,0.668,0.24,1.44,0.314,1.671h-0.893c-0.063-0.167-0.155-0.65-0.269-1.383c-0.103-0.737-0.269-0.939-0.624-0.949H31.08v2.332
			h-0.865V39.839z M31.08,42.39h0.344c0.435,0,0.693-0.334,0.693-0.854c0-0.546-0.241-0.816-0.642-0.826
			c-0.212,0-0.332,0.026-0.395,0.045V42.39z"/>
		<path fill="#5D5D5D" d="M37.445,42.665c0,1.942-0.767,3.121-1.895,3.121c-1.146,0-1.815-1.328-1.815-3.018
			c0-1.777,0.739-3.105,1.878-3.105C36.798,39.663,37.445,41.026,37.445,42.665z M34.658,42.742c0,1.161,0.355,1.979,0.939,1.979
			c0.59,0,0.928-0.862,0.928-2.016c0-1.063-0.332-1.979-0.934-1.979C35,40.728,34.658,41.591,34.658,42.742z"/>
		<path fill="#5D5D5D" d="M38.373,44.308c0.235,0.186,0.596,0.369,0.968,0.369c0.401,0,0.613-0.254,0.613-0.643
			c0-0.369-0.184-0.58-0.647-0.836c-0.642-0.343-1.06-0.888-1.06-1.751c0-1.01,0.55-1.784,1.46-1.784
			c0.435,0,0.756,0.141,0.985,0.299l-0.195,1.082c-0.154-0.113-0.429-0.281-0.807-0.281s-0.562,0.264-0.562,0.572
			c0,0.377,0.218,0.545,0.716,0.836c0.682,0.387,1.002,0.933,1.002,1.768c0,0.995-0.498,1.839-1.557,1.839
			c-0.441,0-0.876-0.176-1.094-0.36L38.373,44.308z"/>
		<path fill="#5D5D5D" d="M44.059,43.183h-1.42v1.406h1.586v1.101h-2.462v-5.929h2.382v1.1h-1.506v1.23h1.42V43.183z"/>
		<path fill="#5D5D5D" d="M47.98,45.522c-0.16,0.122-0.521,0.255-0.991,0.255c-1.334,0-2.021-1.274-2.021-2.965
			c0-2.022,0.939-3.149,2.107-3.149c0.452,0,0.796,0.141,0.951,0.266l-0.178,1.063c-0.178-0.113-0.423-0.219-0.733-0.219
			c-0.693,0-1.231,0.641-1.231,1.961c0,1.188,0.458,1.936,1.237,1.936c0.264,0,0.556-0.088,0.728-0.193L47.98,45.522z"/>
		<path fill="#5D5D5D" d="M49.749,39.761v3.412c0,1.021,0.252,1.539,0.698,1.539c0.458,0,0.71-0.492,0.71-1.539v-3.412h0.87v3.324
			c0,1.83-0.601,2.7-1.609,2.7c-0.974,0-1.546-0.827-1.546-2.718v-3.309h0.877V39.761z"/>
		<path fill="#5D5D5D" d="M53.854,40.886h-1.036v-1.125h2.966v1.125h-1.054v4.804h-0.876V40.886z"/>
		<path fill="#5D5D5D" d="M57.448,39.761v5.929h-0.875v-5.929H57.448z"/>
		<path fill="#5D5D5D" d="M62.063,42.665c0,1.942-0.767,3.121-1.896,3.121c-1.146,0-1.815-1.328-1.815-3.018
			c0-1.777,0.738-3.105,1.878-3.105C61.417,39.663,62.063,41.026,62.063,42.665z M59.274,42.742c0,1.161,0.355,1.979,0.939,1.979
			c0.59,0,0.927-0.862,0.927-2.016c0-1.063-0.332-1.979-0.933-1.979C59.619,40.728,59.274,41.591,59.274,42.742z"/>
		<path fill="#5D5D5D" d="M62.961,45.689v-5.929h1.019l0.802,2.173c0.229,0.624,0.458,1.362,0.63,2.03h0.017
			c-0.057-0.781-0.074-1.582-0.074-2.472v-1.731h0.802v5.929H65.24l-0.825-2.287c-0.229-0.634-0.48-1.397-0.67-2.095l-0.017,0.01
			c0.023,0.783,0.034,1.618,0.034,2.586v1.786H62.961z"/>
	</g>
	<g>
		<path fill="#5D5D5D" d="M44.306,86.124c1.645,2.976,4.343,0.155,3.732-0.018l-1.839-0.518L44.306,86.124L44.306,86.124z"/>
		<path fill="#5D5D5D" d="M46.188,87.88L46.188,87.88c-0.624,0-1.518-0.271-2.231-1.563l-0.244-0.441l2.488-0.703l1.947,0.549
			c0.262,0.074,0.413,0.313,0.374,0.593C48.437,86.919,47.334,87.88,46.188,87.88z M44.935,86.362
			c0.363,0.477,0.783,0.719,1.252,0.719c0.626,0,1.164-0.406,1.407-0.684l-1.395-0.393L44.935,86.362z"/>
	</g>
</g>
<g enable-background="new    ">
	<path fill="#5D5D5D" d="M83.07,66.342V50.5h5.902c1.36,0,2.403,0.348,3.128,1.043c0.725,0.695,1.087,1.709,1.087,3.04
		c0,2.233-0.88,3.535-2.64,3.905v0.044c0.71,0.089,1.246,0.3,1.608,0.633s0.603,0.81,0.721,1.431
		c0.118,0.621,0.192,1.546,0.222,2.773c0.029,0.962,0.085,1.639,0.166,2.03c0.082,0.393,0.263,0.662,0.544,0.811v0.133h-3.461
		c-0.237-0.34-0.37-0.895-0.399-1.664l-0.089-3.04c-0.044-1.331-0.673-1.997-1.886-1.997h-1.708v6.701H83.07z M86.266,52.852v4.57
		h1.331c1.598,0,2.396-0.791,2.396-2.374c0-1.464-0.74-2.196-2.219-2.196H86.266z"/>
	<path fill="#5D5D5D" d="M103.994,60.839h-6.058v0.954c0,0.813,0.125,1.479,0.377,1.997c0.251,0.518,0.628,0.776,1.131,0.776
		c0.902,0,1.442-0.746,1.62-2.24h2.751c-0.118,2.884-1.561,4.326-4.327,4.326c-1.391,0-2.422-0.307-3.095-0.921
		c-0.673-0.613-1.095-1.36-1.265-2.241c-0.17-0.88-0.255-1.956-0.255-3.228c0-1.243,0.119-2.308,0.355-3.195
		c0.236-0.888,0.706-1.605,1.409-2.152s1.697-0.821,2.984-0.821c1.139,0,2.03,0.241,2.674,0.722c0.643,0.48,1.087,1.164,1.331,2.052
		s0.366,1.982,0.366,3.284V60.839z M97.936,59.02h3.129c-0.03-0.977-0.148-1.693-0.355-2.152c-0.208-0.458-0.607-0.688-1.198-0.688
		c-1.051,0-1.576,0.791-1.576,2.374V59.02z"/>
	<path fill="#5D5D5D" d="M105.591,70.248V54.405h2.929v1.265h0.044c0.636-1.05,1.539-1.575,2.707-1.575
		c1.272,0,2.2,0.496,2.785,1.486c0.584,0.991,0.876,2.589,0.876,4.793s-0.296,3.802-0.887,4.793
		c-0.592,0.991-1.517,1.486-2.774,1.486c-1.08,0-1.938-0.474-2.574-1.42h-0.044v5.015H105.591z M108.653,60.374
		c0,1.405,0.107,2.411,0.322,3.018s0.647,0.91,1.298,0.91c0.636,0,1.062-0.307,1.276-0.921s0.322-1.616,0.322-3.007
		c0-1.39-0.107-2.393-0.322-3.007c-0.214-0.613-0.64-0.92-1.276-0.92c-0.651,0-1.083,0.303-1.298,0.909
		S108.653,58.968,108.653,60.374z"/>
	<path fill="#5D5D5D" d="M122.809,66.342v-1.397h-0.044c-0.621,1.139-1.634,1.708-3.04,1.708c-2.027,0-3.04-1.132-3.04-3.395v-8.854
		h3.062v8.232c0,0.576,0.104,0.998,0.311,1.265c0.207,0.266,0.54,0.399,0.999,0.399c1.08,0,1.62-0.658,1.62-1.975v-7.922h3.062
		v11.938H122.809z"/>
	<path fill="#5D5D5D" d="M127.779,66.342V50.5h3.062v5.015h0.044c0.636-0.946,1.494-1.42,2.574-1.42c1.272,0,2.2,0.496,2.785,1.486
		c0.584,0.991,0.876,2.589,0.876,4.793s-0.296,3.802-0.887,4.793c-0.592,0.991-1.517,1.486-2.774,1.486
		c-1.168,0-2.071-0.524-2.707-1.575h-0.044v1.265H127.779z M130.841,60.374c0,1.405,0.107,2.411,0.322,3.018s0.647,0.91,1.298,0.91
		c0.636,0,1.062-0.307,1.276-0.921s0.322-1.616,0.322-3.007c0-1.39-0.107-2.393-0.322-3.007c-0.214-0.613-0.64-0.92-1.276-0.92
		c-0.651,0-1.083,0.303-1.298,0.909S130.841,58.968,130.841,60.374z"/>
	<path fill="#5D5D5D" d="M138.984,66.342V50.5h3.062v15.843H138.984z"/>
	<path fill="#5D5D5D" d="M144.31,52.941v-2.618h3.062v2.618H144.31z M144.31,66.342V54.405h3.062v11.938H144.31z"/>
	<path fill="#5D5D5D" d="M158.199,58.709h-2.93c0-1.598-0.459-2.396-1.375-2.396c-0.711,0-1.18,0.311-1.409,0.932
		c-0.229,0.622-0.345,1.672-0.345,3.151c0,1.553,0.111,2.637,0.334,3.25c0.221,0.614,0.658,0.921,1.309,0.921
		c0.518,0,0.895-0.225,1.132-0.677c0.236-0.451,0.354-1.157,0.354-2.118h2.93c0,3.254-1.518,4.881-4.549,4.881
		c-1.065,0-1.928-0.192-2.585-0.577c-0.659-0.384-1.153-1.027-1.487-1.93c-0.332-0.902-0.499-2.16-0.499-3.772
		c0-2.293,0.418-3.912,1.254-4.859c0.835-0.946,2.03-1.42,3.583-1.42c1.391,0,2.452,0.403,3.185,1.209
		C157.832,56.11,158.199,57.245,158.199,58.709z"/>
	<path fill="#5D5D5D" d="M164.721,60.374c0-1.405,0.152-2.566,0.455-3.483s0.807-1.612,1.51-2.086c0.701-0.473,1.615-0.71,2.74-0.71
		c1.76-0.044,2.984,0.44,3.672,1.453c0.688,1.014,1.031,2.622,1.031,4.826c0,2.146-0.362,3.728-1.087,4.748
		c-0.726,1.021-1.931,1.531-3.616,1.531c-1.762,0.015-2.984-0.484-3.673-1.498C165.065,64.142,164.721,62.548,164.721,60.374z
		 M167.783,60.374c0,1.405,0.104,2.456,0.311,3.15c0.207,0.696,0.65,1.043,1.332,1.043c0.621,0,1.05-0.313,1.287-0.942
		c0.236-0.629,0.354-1.712,0.354-3.251c0-1.538-0.118-2.621-0.354-3.25c-0.237-0.629-0.666-0.943-1.287-0.943
		c-0.682,0-1.125,0.348-1.332,1.043S167.783,58.968,167.783,60.374z"/>
	<path fill="#5D5D5D" d="M176.438,66.342v-9.852h-1.554v-2.086h1.554v-1.354c0-1.035,0.273-1.771,0.82-2.207
		c0.547-0.437,1.338-0.655,2.374-0.655c0.548,0,1.095,0.022,1.642,0.066v2.175c-0.133-0.015-0.332-0.022-0.599-0.022
		c-0.444,0-0.751,0.074-0.921,0.223c-0.17,0.147-0.256,0.392-0.256,0.731v1.043h1.775v2.086h-1.775v9.852H176.438z"/>
	<path fill="#5D5D5D" d="M187.752,66.342V50.5h5.348c3.003,0,4.504,1.339,4.504,4.017c0,0.857-0.203,1.594-0.609,2.208
		c-0.407,0.613-1.002,1.031-1.787,1.253v0.045c0.889,0.104,1.591,0.488,2.108,1.153c0.518,0.666,0.776,1.509,0.776,2.529
		c0,1.361-0.385,2.475-1.153,3.34c-0.77,0.865-2.034,1.298-3.794,1.298H187.752z M190.947,52.852v4.149h0.91
		c0.873,0,1.516-0.163,1.93-0.488s0.622-0.858,0.622-1.598s-0.182-1.269-0.544-1.587c-0.362-0.317-0.951-0.477-1.764-0.477H190.947z
		 M190.947,59.22v4.771h1.242c1.717,0,2.574-0.799,2.574-2.396c0-1.583-0.813-2.374-2.44-2.374H190.947z"/>
	<path fill="#5D5D5D" d="M206.124,66.342v-1.397h-0.044c-0.621,1.139-1.635,1.708-3.04,1.708c-2.026,0-3.04-1.132-3.04-3.395v-8.854
		h3.063v8.232c0,0.576,0.104,0.998,0.311,1.265c0.207,0.266,0.539,0.399,0.998,0.399c1.08,0,1.62-0.658,1.62-1.975v-7.922h3.062
		v11.938H206.124z"/>
	<path fill="#5D5D5D" d="M211.205,66.342V50.5h3.063v15.843H211.205z"/>
	<path fill="#5D5D5D" d="M222.432,54.405h2.93v11.339c0,1.597-0.385,2.776-1.154,3.539c-0.77,0.761-2.041,1.143-3.816,1.143
		c-1.302,0-2.304-0.277-3.006-0.832c-0.703-0.555-1.055-1.343-1.055-2.363h2.93c0,0.385,0.154,0.688,0.465,0.909
		c0.326,0.223,0.666,0.333,1.021,0.333c1.123,0,1.686-0.718,1.686-2.152v-1.575h-0.044c-0.681,0.977-1.53,1.465-2.552,1.465
		c-1.242,0-2.163-0.478-2.762-1.432c-0.6-0.954-0.899-2.488-0.899-4.604c0-1.79,0.255-3.251,0.766-4.383
		c0.511-1.131,1.505-1.697,2.984-1.697c1.14,0,1.96,0.548,2.463,1.642h0.044V54.405z M219.236,60.75
		c0,2.071,0.512,3.106,1.531,3.106c0.607,0,1.035-0.292,1.287-0.876s0.377-1.432,0.377-2.541c0-1.493-0.114-2.532-0.344-3.117
		c-0.229-0.584-0.646-0.876-1.254-0.876c-0.65,0-1.08,0.303-1.286,0.909C219.34,57.962,219.236,59.094,219.236,60.75z"/>
	<path fill="#5D5D5D" d="M230.242,58.066h-2.751v-0.288c0-1.302,0.38-2.241,1.143-2.818c0.762-0.577,1.778-0.865,3.051-0.865
		c1.701,0,2.848,0.308,3.439,0.921c0.591,0.614,0.888,1.527,0.888,2.74v6.279c0,0.977,0.125,1.746,0.377,2.308h-2.929
		c-0.118-0.222-0.244-0.636-0.378-1.242h-0.044c-0.251,0.429-0.511,0.751-0.776,0.965c-0.266,0.215-0.588,0.366-0.965,0.455
		s-0.811,0.133-1.299,0.133c-0.961,0-1.683-0.348-2.163-1.043c-0.481-0.695-0.722-1.486-0.722-2.374
		c0-1.095,0.237-1.915,0.711-2.463c0.473-0.547,1.242-0.969,2.307-1.265l1.731-0.466c0.458-0.133,0.776-0.296,0.954-0.488
		s0.266-0.495,0.266-0.91c0-0.976-0.473-1.464-1.42-1.464c-0.458,0-0.81,0.141-1.054,0.422c-0.243,0.28-0.366,0.658-0.366,1.131
		V58.066z M233.082,62.726v-2.353c-0.385,0.281-0.82,0.481-1.309,0.6c-0.592,0.133-1.028,0.354-1.309,0.665
		c-0.281,0.311-0.422,0.732-0.422,1.265c0,1.109,0.385,1.664,1.154,1.664c0.487,0,0.924-0.158,1.309-0.477
		S233.082,63.318,233.082,62.726z"/>
	<path fill="#5D5D5D" d="M238.186,66.342V54.405h2.93v1.598h0.043c0.682-1.271,1.598-1.908,2.752-1.908
		c0.133,0,0.318,0.015,0.555,0.045v2.929c-0.414-0.029-0.732-0.045-0.954-0.045c-0.606,0-1.136,0.178-1.587,0.533
		c-0.451,0.354-0.676,0.895-0.676,1.619v7.167H238.186z"/>
	<path fill="#5D5D5D" d="M245.686,52.941v-2.618h3.062v2.618H245.686z M245.686,66.342V54.405h3.062v11.938H245.686z"/>
	<path fill="#5D5D5D" d="M253.629,58.066h-2.752v-0.288c0-1.302,0.381-2.241,1.143-2.818s1.779-0.865,3.051-0.865
		c1.701,0,2.848,0.308,3.439,0.921c0.592,0.614,0.887,1.527,0.887,2.74v6.279c0,0.977,0.126,1.746,0.378,2.308h-2.929
		c-0.119-0.222-0.244-0.636-0.377-1.242h-0.045c-0.252,0.429-0.51,0.751-0.776,0.965c-0.267,0.215-0.588,0.366-0.966,0.455
		c-0.377,0.089-0.81,0.133-1.297,0.133c-0.963,0-1.684-0.348-2.164-1.043s-0.721-1.486-0.721-2.374c0-1.095,0.236-1.915,0.709-2.463
		c0.475-0.547,1.243-0.969,2.309-1.265l1.73-0.466c0.459-0.133,0.776-0.296,0.954-0.488c0.177-0.192,0.267-0.495,0.267-0.91
		c0-0.976-0.475-1.464-1.42-1.464c-0.459,0-0.811,0.141-1.055,0.422c-0.244,0.28-0.365,0.658-0.365,1.131V58.066z M256.469,62.726
		v-2.353c-0.385,0.281-0.821,0.481-1.31,0.6c-0.592,0.133-1.028,0.354-1.31,0.665s-0.421,0.732-0.421,1.265
		c0,1.109,0.384,1.664,1.153,1.664c0.488,0,0.925-0.158,1.31-0.477C256.275,63.772,256.469,63.318,256.469,62.726z"/>
</g>
<g enable-background="new    ">
	<path fill="#5D5D5D" d="M83.248,94.916V79.074h4.038c0.769,0,1.498,0.082,2.186,0.244s1.313,0.58,1.875,1.254
		c0.562,0.672,0.843,1.689,0.843,3.051c0,1.449-0.422,2.578-1.265,3.383c-0.843,0.807-1.945,1.209-3.306,1.209H85.2v6.701H83.248z
		 M85.2,80.672v5.945h2.33c0.769,0,1.398-0.262,1.886-0.787c0.488-0.525,0.732-1.291,0.732-2.297c0-1.908-0.917-2.861-2.751-2.861
		H85.2z"/>
	<path fill="#5D5D5D" d="M93.854,94.916V83.023h1.864v1.775h0.044c0.651-1.391,1.509-2.086,2.574-2.086
		c0.37,0,0.644,0.045,0.821,0.133v1.82c-0.119-0.029-0.255-0.053-0.411-0.066c-0.155-0.016-0.352-0.023-0.588-0.023
		c-0.563,0-1.109,0.248-1.642,0.744c-0.532,0.496-0.799,1.188-0.799,2.074v7.521H93.854z"/>
	<path fill="#5D5D5D" d="M99.845,88.971c0-4.172,1.427-6.258,4.282-6.258c2.854,0,4.282,2.086,4.282,6.258
		c0,1.242-0.129,2.322-0.388,3.238c-0.259,0.918-0.699,1.65-1.32,2.197c-0.621,0.547-1.479,0.82-2.574,0.82
		c-1.583,0-2.692-0.572-3.328-1.719C100.163,92.361,99.845,90.85,99.845,88.971z M104.083,93.764c0.902,0,1.523-0.422,1.864-1.266
		s0.51-2.02,0.51-3.527c0-1.51-0.166-2.686-0.499-3.529c-0.333-0.842-0.958-1.264-1.875-1.264c-0.858,0-1.453,0.432-1.786,1.297
		s-0.499,2.031-0.499,3.496c0,1.508,0.159,2.684,0.477,3.527C102.592,93.342,103.195,93.764,104.083,93.764z"/>
	<path fill="#5D5D5D" d="M117.24,86.508h-1.864c0-0.799-0.13-1.387-0.388-1.764c-0.259-0.379-0.714-0.566-1.365-0.566
		c-1.287,0-1.93,0.605-1.93,1.818c0,0.592,0.203,1.004,0.61,1.232s1.18,0.535,2.319,0.92c0.946,0.311,1.667,0.686,2.163,1.121
		c0.496,0.438,0.744,1.18,0.744,2.23c0,1.213-0.352,2.137-1.054,2.773s-1.631,0.953-2.785,0.953c-1.73,0-2.844-0.432-3.339-1.297
		s-0.743-1.838-0.743-2.918h1.864c0,1.834,0.74,2.752,2.219,2.752c0.473,0,0.921-0.145,1.343-0.434
		c0.421-0.289,0.632-0.803,0.632-1.543c0-0.709-0.226-1.205-0.677-1.486c-0.452-0.279-1.195-0.592-2.23-0.932
		c-0.607-0.191-1.113-0.395-1.52-0.609c-0.407-0.215-0.743-0.533-1.01-0.955c-0.266-0.422-0.399-1.023-0.399-1.809
		c0-1.049,0.362-1.859,1.087-2.43c0.725-0.568,1.627-0.854,2.707-0.854c1.05,0,1.842,0.203,2.374,0.609
		c0.533,0.408,0.873,0.881,1.021,1.422C117.166,85.283,117.24,85.871,117.24,86.508z"/>
	<path fill="#5D5D5D" d="M127.114,89.191h-6.257c0,1.361,0.133,2.463,0.399,3.307s0.895,1.266,1.886,1.266
		c0.784,0,1.316-0.293,1.597-0.877c0.281-0.584,0.422-1.209,0.422-1.875h1.864c0,0.947-0.311,1.885-0.932,2.818
		c-0.621,0.932-1.642,1.396-3.062,1.396c-1.435,0-2.481-0.498-3.14-1.498c-0.658-0.998-0.987-2.531-0.987-4.604
		c0-1.154,0.111-2.203,0.333-3.15s0.647-1.727,1.276-2.342c0.628-0.613,1.505-0.92,2.629-0.92c1.627,0,2.696,0.533,3.206,1.598
		s0.766,2.441,0.766,4.127V89.191z M120.923,87.727h4.238v-0.643c0-0.799-0.159-1.482-0.477-2.053
		c-0.318-0.568-0.847-0.854-1.586-0.854c-0.829,0-1.398,0.355-1.708,1.064c-0.311,0.711-0.466,1.391-0.466,2.041V87.727z"/>
	<path fill="#5D5D5D" d="M136.676,86.641h-1.864c0-0.695-0.152-1.279-0.455-1.754c-0.303-0.473-0.78-0.709-1.431-0.709
		c-0.71,0-1.276,0.324-1.697,0.977c-0.421,0.65-0.632,1.967-0.632,3.949c0,1.287,0.133,2.385,0.399,3.295s0.888,1.365,1.864,1.365
		c0.725,0,1.231-0.297,1.52-0.889s0.433-1.287,0.433-2.086h1.864c0,1.154-0.314,2.182-0.943,3.084
		c-0.629,0.902-1.616,1.354-2.962,1.354c-1.435,0-2.481-0.498-3.14-1.498c-0.658-0.998-0.987-2.531-0.987-4.604
		c0-1.154,0.111-2.203,0.333-3.15c0.222-0.947,0.647-1.727,1.276-2.342c0.628-0.613,1.505-0.92,2.629-0.92
		c1.435,0,2.426,0.41,2.974,1.232C136.402,84.766,136.676,85.664,136.676,86.641z"/>
	<path fill="#5D5D5D" d="M146.439,83.023v11.893h-1.775V93.52h-0.045c-0.252,0.547-0.643,0.969-1.176,1.264
		c-0.532,0.297-1.102,0.443-1.708,0.443c-1.361,0-2.223-0.354-2.585-1.064c-0.363-0.711-0.544-1.611-0.544-2.707v-8.432h1.864v8.209
		c0,0.666,0.108,1.232,0.322,1.697c0.214,0.467,0.691,0.699,1.431,0.699c0.578,0,1.113-0.199,1.609-0.598
		c0.495-0.4,0.743-1,0.743-1.799v-8.209H146.439z"/>
	<path fill="#5D5D5D" d="M149.434,83.023v-3.461h1.864v3.461h2.063v1.465h-2.063v7.633c0,0.473,0.081,0.813,0.244,1.02
		c0.163,0.209,0.488,0.311,0.977,0.311c0.147,0,0.421-0.021,0.821-0.066v1.531c-0.488,0.09-0.992,0.133-1.51,0.133
		c-0.902,0-1.527-0.188-1.875-0.564s-0.521-0.973-0.521-1.787v-8.209h-1.73v-1.465H149.434z"/>
	<path fill="#5D5D5D" d="M154.049,88.971c0-4.172,1.428-6.258,4.283-6.258c2.854,0,4.281,2.086,4.281,6.258
		c0,1.242-0.129,2.322-0.388,3.238c-0.259,0.918-0.698,1.65-1.32,2.197c-0.621,0.547-1.479,0.82-2.573,0.82
		c-1.584,0-2.693-0.572-3.328-1.719C154.367,92.361,154.049,90.85,154.049,88.971z M158.287,93.764c0.902,0,1.523-0.422,1.863-1.266
		c0.341-0.844,0.511-2.02,0.511-3.527c0-1.51-0.166-2.686-0.499-3.529c-0.333-0.842-0.958-1.264-1.875-1.264
		c-0.857,0-1.453,0.432-1.786,1.297s-0.499,2.031-0.499,3.496c0,1.508,0.158,2.684,0.477,3.527S157.399,93.764,158.287,93.764z"/>
	<path fill="#5D5D5D" d="M164.477,94.916V83.023h1.864v1.775h0.044c0.651-1.391,1.51-2.086,2.574-2.086
		c0.369,0,0.644,0.045,0.821,0.133v1.82c-0.118-0.029-0.255-0.053-0.411-0.066c-0.154-0.016-0.352-0.023-0.588-0.023
		c-0.563,0-1.109,0.248-1.642,0.744s-0.799,1.188-0.799,2.074v7.521H164.477z"/>
	<path fill="#5D5D5D" d="M171.755,84.709v-5.635h1.465v5.635H171.755z"/>
	<path fill="#5D5D5D" d="M183.337,86.508h-1.864c0-0.799-0.129-1.387-0.388-1.764c-0.259-0.379-0.714-0.566-1.364-0.566
		c-1.287,0-1.931,0.605-1.931,1.818c0,0.592,0.203,1.004,0.61,1.232c0.406,0.229,1.18,0.535,2.318,0.92
		c0.946,0.311,1.668,0.686,2.163,1.121c0.495,0.438,0.743,1.18,0.743,2.23c0,1.213-0.352,2.137-1.054,2.773
		s-1.631,0.953-2.784,0.953c-1.73,0-2.844-0.432-3.34-1.297s-0.743-1.838-0.743-2.918h1.864c0,1.834,0.739,2.752,2.219,2.752
		c0.473,0,0.92-0.145,1.342-0.434s0.633-0.803,0.633-1.543c0-0.709-0.227-1.205-0.677-1.486c-0.452-0.279-1.194-0.592-2.229-0.932
		c-0.607-0.191-1.113-0.395-1.521-0.609s-0.743-0.533-1.01-0.955s-0.399-1.023-0.399-1.809c0-1.049,0.362-1.859,1.088-2.43
		c0.725-0.568,1.627-0.854,2.707-0.854c1.05,0,1.842,0.203,2.373,0.609c0.533,0.408,0.873,0.881,1.021,1.422
		C183.263,85.283,183.337,85.871,183.337,86.508z"/>
	<path fill="#5D5D5D" d="M195.674,78.764c1.967,0,3.309,0.758,4.026,2.273c0.718,1.518,1.076,3.502,1.076,5.959
		c0,2.455-0.358,4.441-1.076,5.957s-2.06,2.273-4.026,2.273c-1.969,0-3.311-0.758-4.027-2.273c-0.719-1.516-1.076-3.502-1.076-5.957
		c0-2.457,0.357-4.441,1.076-5.959C192.363,79.521,193.705,78.764,195.674,78.764z M195.674,80.361
		c-0.844,0-1.491,0.281-1.941,0.844c-0.452,0.561-0.752,1.322-0.899,2.285c-0.147,0.961-0.222,2.129-0.222,3.506
		c0,2.158,0.207,3.805,0.621,4.936c0.414,1.133,1.228,1.697,2.441,1.697c1.242,0,2.063-0.564,2.463-1.697
		c0.398-1.131,0.599-2.777,0.599-4.936c0-2.16-0.196-3.807-0.589-4.938C197.755,80.928,196.93,80.361,195.674,80.361z"/>
	<path fill="#5D5D5D" d="M203.616,94.916V84.488h-1.73v-1.465h1.73v-1.398c0-1.818,0.858-2.729,2.574-2.729h1.353v1.598h-0.865
		c-0.799,0-1.197,0.377-1.197,1.131v1.398h2.041v1.465h-2.041v10.428H203.616z"/>
	<path fill="#5D5D5D" d="M209.363,94.916V84.488h-1.73v-1.465h1.73v-1.398c0-1.818,0.857-2.729,2.574-2.729h1.353v1.598h-0.865
		c-0.799,0-1.198,0.377-1.198,1.131v1.398h2.041v1.465h-2.041v10.428H209.363z"/>
	<path fill="#5D5D5D" d="M214.666,81.205v-2.131h1.863v2.131H214.666z M214.666,94.916V83.023h1.863v11.893H214.666z"/>
	<path fill="#5D5D5D" d="M226.603,86.641h-1.864c0-0.695-0.151-1.279-0.455-1.754c-0.303-0.473-0.779-0.709-1.431-0.709
		c-0.71,0-1.276,0.324-1.697,0.977c-0.421,0.65-0.632,1.967-0.632,3.949c0,1.287,0.133,2.385,0.398,3.295
		c0.267,0.91,0.889,1.365,1.864,1.365c0.725,0,1.231-0.297,1.521-0.889c0.288-0.592,0.432-1.287,0.432-2.086h1.864
		c0,1.154-0.314,2.182-0.942,3.084c-0.629,0.902-1.617,1.354-2.963,1.354c-1.436,0-2.481-0.498-3.14-1.498
		c-0.658-0.998-0.987-2.531-0.987-4.604c0-1.154,0.111-2.203,0.333-3.15s0.647-1.727,1.276-2.342c0.628-0.613,1.504-0.92,2.629-0.92
		c1.435,0,2.426,0.41,2.973,1.232C226.328,84.766,226.603,85.664,226.603,86.641z"/>
	<path fill="#5D5D5D" d="M236.344,89.191h-6.258c0,1.361,0.133,2.463,0.399,3.307s0.896,1.266,1.886,1.266
		c0.784,0,1.316-0.293,1.598-0.877s0.422-1.209,0.422-1.875h1.863c0,0.947-0.311,1.885-0.932,2.818
		c-0.621,0.932-1.642,1.396-3.063,1.396c-1.434,0-2.48-0.498-3.139-1.498c-0.658-0.998-0.988-2.531-0.988-4.604
		c0-1.154,0.111-2.203,0.334-3.15c0.221-0.947,0.646-1.727,1.275-2.342c0.629-0.613,1.505-0.92,2.629-0.92
		c1.627,0,2.696,0.533,3.207,1.598c0.51,1.064,0.766,2.441,0.766,4.127V89.191z M230.152,87.727h4.238v-0.643
		c0-0.799-0.159-1.482-0.477-2.053c-0.318-0.568-0.848-0.854-1.587-0.854c-0.829,0-1.397,0.355-1.708,1.064
		c-0.311,0.711-0.467,1.391-0.467,2.041V87.727z"/>
</g>
</svg>
