<?xml version="1.0" encoding="utf-8"?>
<!-- Generator: Adobe Illustrator 16.0.3, SVG Export Plug-In . SVG Version: 6.00 Build 0)  -->
<!DOCTYPE svg PUBLIC "-//W3C//DTD SVG 1.1//EN" "http://www.w3.org/Graphics/SVG/1.1/DTD/svg11.dtd">
<svg version="1.1" id="Layer_1" xmlns="http://www.w3.org/2000/svg" xmlns:xlink="http://www.w3.org/1999/xlink" x="0px" y="0px"
	 width="280px" height="140px" viewBox="0 0 280 140" enable-background="new 0 0 280 140" xml:space="preserve">
<g>
	<path fill="#5D5D5D" d="M3.5,54.5v35h36v-35H3.5z M38.5,88.5h-34v-33h34V88.5z"/>
</g>
<path fill="#5D5D5D" d="M6.527,82.284l4.334,4.42l10.155-10.303l10.495,10.516l4.397-4.355L25.52,72.173l1.997-1.934v-4.121
	l1.253-1.063v3.229l1.615,1.316l4.822-4.822l1.551,1.189c0.913-3.378-4.376-11.047-8.752-6.798l-5.099,5.056l1.042,1.254
	l-2.592,2.528l-2.506-2.465l1.317-1.188l-5.587-5.396c-4.207-3.463-8.519,1.807-8.667,6.947l1.53-1.275l4.695,5.057l1.678-1.4
	v-3.102l1.041,0.784v4.058l2.04,2.039L6.527,82.284L6.527,82.284z"/>
<polygon fill="#5D5D5D" points="105.5,65.5 115.5,65.463 115.5,89.346 105.5,89.383 105.5,65.5 "/>
<path fill="#5D5D5D" d="M110.868,51.81c2.794,0,5.059,2.318,5.059,5.112c0,2.795-2.265,5.114-5.059,5.114
	c-2.849,0-5.114-2.319-5.114-5.114C105.753,54.128,108.019,51.81,110.868,51.81L110.868,51.81z"/>
<polygon fill="#5D5D5D" points="184.102,65.463 193.747,65.463 193.747,89.346 184.102,89.346 184.102,65.463 "/>
<path fill="#5D5D5D" d="M188.896,51.81c2.845,0,5.113,2.318,5.113,5.112c0,2.795-2.27,5.114-5.113,5.114
	c-2.793,0-5.063-2.319-5.063-5.114C183.833,54.128,186.104,51.81,188.896,51.81L188.896,51.81z"/>
<path fill="#5D5D5D" d="M117.458,65.463v7.593h3.319v16.29h9.333v-16.29h8.753v16.29h9.648V72.95h6.008v-7.381h-6.271v-5.324
	c-0.16-1.952,4.431-2.742,6.009-1.161v-7.802c-8.857-2.795-16.027,2.214-15.976,9.964v4.218h-8.222v-5.219
	c-0.109-1.952,3.899-2.742,6.219-1.161v-7.802c-7.696-2.268-15.924,1.476-15.872,9.91v4.219L117.458,65.463L117.458,65.463z"/>
<g>
	<path fill="#5D5D5D" d="M163.958,78.907h17.713c0-9.7-5.164-14.289-13.388-14.289c-8.229,0-13.393,5.802-13.393,12.865
		c0,7.064,6.01,12.603,13.393,12.549c8.273-0.055,11.335-3.479,13.127-8.488h-8.383C169.23,86.396,163.695,82.86,163.958,78.907z
		 M172.025,73.267h-6.854C165.275,70.366,171.604,70.366,172.025,73.267z"/>
</g>
<g>
	<path fill="#5D5D5D" d="M229.652,78.907h17.716c0-9.7-5.114-14.289-13.392-14.289c-8.225,0-13.395,5.802-13.395,12.865
		c-0.001,7.064,6.014,12.603,13.393,12.549c8.33-0.055,11.387-3.479,13.183-8.488h-8.438
		C234.925,86.396,229.391,82.86,229.652,78.907z M237.719,73.267h-6.854C230.968,70.366,237.297,70.366,237.719,73.267z"/>
</g>
<path fill="#5D5D5D" d="M218.049,65.938l-2.845,5.799c-3.587-1.106-7.065-0.896-6.958,0.105c0.104,0.633-0.479,1.739,5.115,2.531
	c8.33,1.316,7.642,16.818-6.329,15.658c-3.849-0.264-6.962-1.266-9.544-2.795l3.113-6.221c4.373,2.16,8.592,3.426,8.91,1.266
	c0.366-2.689-4.589-1.741-7.594-4.008c-5.377-3.319-2.32-13.603,6.482-13.707C211.516,64.356,214.729,64.884,218.049,65.938
	L218.049,65.938z"/>
<path fill="#5D5D5D" d="M251.055,65.463v23.883h9.016V74.741c0.265-3.637,7.437-4.271,7.488,0v14.604h9.121V74.374
	c-0.211-8.383-9.015-12.443-16.979-7.118v-1.793H251.055L251.055,65.463z"/>
<g>
	<path fill="#5D5D5D" d="M62.9,75.741c11.282-5.482,7.064-21.082-4.798-21.241H44.5v35h9.279V78.324L61.687,89.5h10.966L62.9,75.741
		z M57.049,70.259H53.78v-7.594h3.269C60.318,62.981,61.53,69.414,57.049,70.259z"/>
</g>
<g>
	<path fill="#5D5D5D" d="M101.219,89.346l-0.054-23.883h-9.068v1.317c-1.95-1.371-4.322-2.213-6.853-2.213
		c-6.749,0-12.285,5.746-12.284,12.758c0,7.013,5.535,12.707,12.284,12.707c2.531,0,4.903-0.791,6.853-2.16l-0.051,1.474H101.219z
		 M87.194,82.493c-3.005,0-5.482-2.32-5.482-5.168c0-2.846,2.477-5.166,5.482-5.166c3.058,0,5.535,2.32,5.535,5.166
		C92.729,80.173,90.251,82.493,87.194,82.493z"/>
</g>
</svg>
