<?xml version="1.0" encoding="utf-8"?>
<!-- Generator: Adobe Illustrator 16.0.3, SVG Export Plug-In . SVG Version: 6.00 Build 0)  -->
<!DOCTYPE svg PUBLIC "-//W3C//DTD SVG 1.1//EN" "http://www.w3.org/Graphics/SVG/1.1/DTD/svg11.dtd">
<svg version="1.1" id="Layer_1" xmlns="http://www.w3.org/2000/svg" xmlns:xlink="http://www.w3.org/1999/xlink" x="0px" y="0px"
	 width="280px" height="140px" viewBox="-2 53 280 140" enable-background="new -2 53 280 140" xml:space="preserve">
<g>
	<linearGradient id="SVGID_1_" gradientUnits="userSpaceOnUse" x1="30.3267" y1="115.043" x2="30.3267" y2="101.0241">
		<stop  offset="0" style="stop-color:#5D5D5D"/>
		<stop  offset="1" style="stop-color:#999999"/>
	</linearGradient>
	<path fill="url(#SVGID_1_)" d="M30.327,101.215c-4.325,0-7.844,3.061-7.844,6.818c0,3.762,3.519,6.818,7.844,6.818
		s7.845-3.057,7.845-6.818C38.171,104.275,34.652,101.215,30.327,101.215z"/>
	<linearGradient id="SVGID_2_" gradientUnits="userSpaceOnUse" x1="15.1445" y1="138.2832" x2="15.1445" y2="138.2832">
		<stop  offset="0" style="stop-color:#FC6004"/>
		<stop  offset="1" style="stop-color:#F29200"/>
	</linearGradient>
	<path fill="url(#SVGID_2_)" stroke="#FFFFFF" stroke-width="3" stroke-miterlimit="10" d="M15.145,138.283"/>
	<linearGradient id="SVGID_3_" gradientUnits="userSpaceOnUse" x1="51.0181" y1="113.7617" x2="51.0181" y2="113.7617">
		<stop  offset="0" style="stop-color:#FC6004"/>
		<stop  offset="1" style="stop-color:#F29200"/>
	</linearGradient>
	<path fill="url(#SVGID_3_)" stroke="#000000" stroke-width="3" stroke-miterlimit="10" d="M51.018,113.762"/>
	<linearGradient id="SVGID_4_" gradientUnits="userSpaceOnUse" x1="20.0005" y1="146.5049" x2="20.0005" y2="114.0193">
		<stop  offset="0" style="stop-color:#5D5D5D"/>
		<stop  offset="1" style="stop-color:#999999"/>
	</linearGradient>
	<polygon fill="url(#SVGID_4_)" points="14.504,146.217 25.497,141.418 25.497,118.766 14.504,114.299 	"/>
	<linearGradient id="SVGID_5_" gradientUnits="userSpaceOnUse" x1="10.5454" y1="146.5029" x2="10.5454" y2="114.0204">
		<stop  offset="0" style="stop-color:#5D5D5D"/>
		<stop  offset="1" style="stop-color:#999999"/>
	</linearGradient>
	<polygon fill="url(#SVGID_5_)" points="7.597,146.23 13.494,144.146 13.494,116.711 7.597,114.307 	"/>
	<linearGradient id="SVGID_6_" gradientUnits="userSpaceOnUse" x1="3.9487" y1="146.5039" x2="3.9487" y2="114.3264">
		<stop  offset="0" style="stop-color:#5D5D5D"/>
		<stop  offset="1" style="stop-color:#999999"/>
	</linearGradient>
	<polygon fill="url(#SVGID_6_)" points="1.529,146.234 6.369,144.146 6.369,116.719 1.529,114.598 	"/>
	
		<linearGradient id="SVGID_7_" gradientUnits="userSpaceOnUse" x1="314" y1="146.5195" x2="314" y2="114.034" gradientTransform="matrix(-1 0 0 1 354 0)">
		<stop  offset="0" style="stop-color:#5D5D5D"/>
		<stop  offset="1" style="stop-color:#999999"/>
	</linearGradient>
	<polygon fill="url(#SVGID_7_)" points="34.547,141.857 45.453,146.23 45.453,114.313 34.547,119.207 	"/>
	
		<linearGradient id="SVGID_8_" gradientUnits="userSpaceOnUse" x1="304.9824" y1="146.502" x2="304.9824" y2="114.0194" gradientTransform="matrix(-1 0 0 1 354 0)">
		<stop  offset="0" style="stop-color:#5D5D5D"/>
		<stop  offset="1" style="stop-color:#999999"/>
	</linearGradient>
	<polygon fill="url(#SVGID_8_)" points="46.556,144.145 51.478,146.229 51.478,114.305 46.556,116.709 	"/>
	
		<linearGradient id="SVGID_9_" gradientUnits="userSpaceOnUse" x1="298.5029" y1="146.501" x2="298.5029" y2="114.3235" gradientTransform="matrix(-1 0 0 1 354 0)">
		<stop  offset="0" style="stop-color:#5D5D5D"/>
		<stop  offset="1" style="stop-color:#999999"/>
	</linearGradient>
	<polygon fill="url(#SVGID_9_)" points="52.603,144.145 58.39,146.23 58.39,114.594 52.603,116.717 	"/>
	<g>
		<path fill="#5D5D5D" d="M67.604,120.321v-15.734h5.862c1.352,0,2.387,0.344,3.107,1.035c0.719,0.691,1.08,1.697,1.08,3.02
			c0,2.219-0.875,3.512-2.622,3.877v0.045c0.705,0.088,1.237,0.297,1.597,0.629c0.36,0.33,0.599,0.805,0.716,1.42
			c0.118,0.617,0.191,1.535,0.22,2.756c0.03,0.955,0.084,1.627,0.166,2.016c0.081,0.391,0.261,0.658,0.54,0.805v0.133h-3.438
			c-0.235-0.338-0.367-0.889-0.397-1.654l-0.087-3.018c-0.044-1.322-0.669-1.984-1.874-1.984h-1.697v6.656H67.604z M70.777,106.923
			v4.539H72.1c1.586,0,2.379-0.785,2.379-2.357c0-1.455-0.734-2.182-2.203-2.182H70.777z"/>
		<path fill="#5D5D5D" d="M79.745,104.587h8.793v2.6h-5.62v3.703h5.29v2.6h-5.29v4.23h5.84v2.602h-9.013V104.587z"/>
		<path fill="#5D5D5D" d="M90.276,120.321v-15.734h5.554c1.484,0,2.575,0.449,3.273,1.344c0.697,0.896,1.046,2.02,1.046,3.371
			c0,1.588-0.444,2.773-1.333,3.559c-0.889,0.787-2.112,1.18-3.669,1.18H93.45v6.281H90.276z M93.45,106.923v4.781h1.411
			c0.661,0,1.179-0.201,1.553-0.605c0.375-0.404,0.563-0.988,0.563-1.752c0-1.617-0.735-2.424-2.204-2.424H93.45z"/>
		<path fill="#5D5D5D" d="M101.515,104.587h3.173v10.975c0,0.865,0.14,1.539,0.419,2.016c0.279,0.477,0.756,0.717,1.433,0.717
			c0.705,0,1.19-0.24,1.455-0.717c0.264-0.477,0.396-1.15,0.396-2.016v-10.975h3.173v10.975c0,3.379-1.675,5.068-5.024,5.068
			c-1.499,0-2.71-0.367-3.637-1.102c-0.925-0.734-1.388-2.057-1.388-3.967V104.587z"/>
		<path fill="#5D5D5D" d="M113.577,120.321v-15.734h5.311c2.982,0,4.474,1.33,4.474,3.988c0,0.852-0.202,1.582-0.605,2.191
			c-0.405,0.611-0.996,1.025-1.774,1.246v0.045c0.881,0.102,1.579,0.484,2.093,1.145c0.514,0.662,0.771,1.5,0.771,2.514
			c0,1.352-0.381,2.457-1.145,3.316c-0.764,0.859-2.021,1.289-3.769,1.289H113.577z M116.75,106.923v4.121h0.904
			c0.867,0,1.506-0.162,1.917-0.484c0.411-0.324,0.617-0.854,0.617-1.588s-0.18-1.26-0.54-1.576
			c-0.36-0.314-0.944-0.473-1.752-0.473H116.75z M116.75,113.247v4.738h1.234c1.704,0,2.556-0.795,2.556-2.381
			c0-1.572-0.808-2.357-2.424-2.357H116.75z"/>
		<path fill="#5D5D5D" d="M134.356,120.321h-8.793v-15.734h3.173v13.133h5.62V120.321z"/>
		<path fill="#5D5D5D" d="M139.001,120.321h-3.173v-15.734h3.173V120.321z"/>
		<path fill="#5D5D5D" d="M151.115,109.897h-3.172c0-1.176-0.141-2.018-0.42-2.523c-0.277-0.506-0.77-0.76-1.477-0.76
			c-0.791,0-1.322,0.43-1.586,1.289c-0.266,0.859-0.396,2.449-0.396,4.771c0,2.232,0.154,3.727,0.463,4.484
			c0.307,0.756,0.83,1.135,1.564,1.135c0.662,0,1.158-0.271,1.486-0.816c0.33-0.543,0.498-1.6,0.498-3.172h3.172
			c0,1.277-0.137,2.373-0.406,3.283c-0.273,0.91-0.779,1.645-1.523,2.203c-0.74,0.559-1.764,0.838-3.072,0.838
			c-1.514,0-2.658-0.332-3.438-0.992c-0.779-0.662-1.293-1.572-1.543-2.732s-0.375-2.645-0.375-4.451s0.125-3.291,0.375-4.451
			c0.25-1.162,0.764-2.072,1.543-2.732c0.779-0.662,1.924-0.992,3.438-0.992c1.996,0,3.309,0.535,3.934,1.607
			C150.805,106.96,151.115,108.296,151.115,109.897z"/>
		<path fill="#5D5D5D" d="M158.012,112.454c0-1.807,0.125-3.291,0.375-4.451c0.25-1.162,0.764-2.072,1.543-2.732
			c0.779-0.662,1.926-0.992,3.438-0.992c2.203,0,3.648,0.674,4.332,2.027c0.682,1.352,1.025,3.4,1.025,6.148
			c0,1.807-0.127,3.291-0.377,4.451c-0.248,1.16-0.764,2.07-1.543,2.732c-0.777,0.66-1.924,0.992-3.438,0.992
			c-1.512,0-2.658-0.332-3.438-0.992c-0.779-0.662-1.293-1.572-1.543-2.732S158.012,114.261,158.012,112.454z M161.186,112.454
			c0,1.439,0.057,2.582,0.166,3.426c0.109,0.846,0.316,1.459,0.617,1.84c0.301,0.383,0.768,0.574,1.398,0.574
			c0.633,0,1.1-0.191,1.4-0.574c0.301-0.381,0.506-0.994,0.617-1.84c0.109-0.844,0.164-1.986,0.164-3.426
			c0-2.264-0.139-3.803-0.418-4.617s-0.867-1.223-1.764-1.223c-0.631,0-1.098,0.189-1.398,0.572s-0.508,0.996-0.617,1.842
			C161.242,109.87,161.186,111.015,161.186,112.454z"/>
		<path fill="#5D5D5D" d="M170.516,120.321v-15.734h8.793v2.6h-5.619v3.703h5.289v2.6h-5.289v6.832H170.516z"/>
		<path fill="#5D5D5D" d="M186.008,120.321v-15.734h5.311c2.982,0,4.475,1.33,4.475,3.988c0,0.852-0.201,1.582-0.605,2.191
			c-0.404,0.611-0.996,1.025-1.775,1.246v0.045c0.883,0.102,1.58,0.484,2.094,1.145c0.514,0.662,0.771,1.5,0.771,2.514
			c0,1.352-0.383,2.457-1.146,3.316s-2.02,1.289-3.768,1.289H186.008z M189.182,106.923v4.121h0.904
			c0.865,0,1.506-0.162,1.916-0.484c0.412-0.324,0.617-0.854,0.617-1.588s-0.18-1.26-0.541-1.576
			c-0.359-0.314-0.943-0.473-1.752-0.473H189.182z M189.182,113.247v4.738h1.234c1.703,0,2.555-0.795,2.555-2.381
			c0-1.572-0.807-2.357-2.424-2.357H189.182z"/>
		<path fill="#5D5D5D" d="M197.852,104.587h3.174v10.975c0,0.865,0.139,1.539,0.418,2.016s0.756,0.717,1.432,0.717
			c0.705,0,1.191-0.24,1.455-0.717s0.396-1.15,0.396-2.016v-10.975h3.172v10.975c0,3.379-1.674,5.068-5.023,5.068
			c-1.498,0-2.711-0.367-3.635-1.102c-0.926-0.734-1.389-2.057-1.389-3.967V104.587z"/>
		<path fill="#5D5D5D" d="M218.707,120.321h-8.795v-15.734h3.174v13.133h5.621V120.321z"/>
		<path fill="#5D5D5D" d="M229.965,109.259h-3.041c0-0.676-0.154-1.285-0.463-1.83c-0.309-0.543-0.758-0.814-1.344-0.814
			c-0.764,0-1.316,0.422-1.654,1.266c-0.338,0.846-0.506,2.26-0.506,4.242c0,1.322,0.059,2.439,0.176,3.35
			c0.117,0.912,0.334,1.609,0.65,2.094s0.768,0.729,1.355,0.729c0.439,0,0.879-0.229,1.313-0.684
			c0.432-0.455,0.648-1.064,0.648-1.83v-1.607h-2.094v-2.336h5.137v8.484h-2.338v-1.455h-0.043
			c-0.721,1.176-1.822,1.764-3.307,1.764c-1.25,0-2.213-0.309-2.896-0.926s-1.15-1.527-1.4-2.732s-0.375-2.77-0.375-4.693
			c0-1.822,0.162-3.318,0.484-4.486c0.324-1.168,0.879-2.045,1.664-2.633c0.787-0.588,1.834-0.881,3.141-0.881
			C228.334,104.278,229.965,105.938,229.965,109.259z"/>
		<path fill="#5D5D5D" d="M231.299,120.321l4.166-15.734h3.922l4.164,15.734h-3.305l-0.727-3.328h-4.188l-0.727,3.328H231.299z
			 M237.404,107.319l-1.521,7.072h3.086l-1.521-7.072H237.404z"/>
		<path fill="#5D5D5D" d="M244.789,120.321v-15.734h5.863c1.352,0,2.387,0.344,3.107,1.035c0.719,0.691,1.078,1.697,1.078,3.02
			c0,2.219-0.873,3.512-2.621,3.877v0.045c0.705,0.088,1.238,0.297,1.598,0.629c0.359,0.33,0.598,0.805,0.715,1.42
			c0.119,0.617,0.191,1.535,0.221,2.756c0.031,0.955,0.084,1.627,0.166,2.016c0.08,0.391,0.26,0.658,0.539,0.805v0.133h-3.438
			c-0.234-0.338-0.367-0.889-0.396-1.654l-0.088-3.018c-0.043-1.322-0.668-1.984-1.873-1.984h-1.697v6.656H244.789z
			 M247.963,106.923v4.539h1.322c1.588,0,2.381-0.785,2.381-2.357c0-1.455-0.736-2.182-2.203-2.182H247.963z"/>
		<path fill="#5D5D5D" d="M260.186,120.321h-3.174v-15.734h3.174V120.321z"/>
		<path fill="#5D5D5D" d="M261.49,120.321l4.164-15.734h3.924l4.164,15.734h-3.305l-0.729-3.328h-4.186l-0.727,3.328H261.49z
			 M267.594,107.319l-1.52,7.072h3.086l-1.521-7.072H267.594z"/>
	</g>
	<g>
		<path fill="#5D5D5D" d="M67.604,145.462v-17.908h5.794c1.438,0,2.562,0.396,3.374,1.191c0.811,0.795,1.216,1.895,1.216,3.299
			c0,1.086-0.222,2.053-0.665,2.896c-0.443,0.844-1.141,1.383-2.094,1.617v0.051c0.735,0.066,1.33,0.381,1.781,0.939
			c0.452,0.561,0.703,1.242,0.752,2.045l0.15,3.061c0.05,0.936,0.146,1.584,0.289,1.943c0.141,0.359,0.364,0.646,0.665,0.865h-2.658
			c-0.318-0.318-0.519-1.18-0.603-2.584l-0.15-2.783c-0.067-1.07-0.335-1.771-0.803-2.107c-0.469-0.334-1.087-0.502-1.856-0.502
			h-2.984v7.977H67.604z M69.812,129.358v6.322h2.182c1.054,0,1.932-0.205,2.634-0.615s1.053-1.357,1.053-2.846
			c0-0.904-0.284-1.605-0.853-2.107s-1.363-0.754-2.383-0.754H69.812z"/>
		<path fill="#5D5D5D" d="M89.272,138.991H82.2c0,1.539,0.15,2.783,0.452,3.736c0.301,0.953,1.011,1.43,2.132,1.43
			c0.886,0,1.488-0.33,1.806-0.99c0.317-0.66,0.477-1.367,0.477-2.119h2.107c0,1.07-0.352,2.133-1.054,3.186s-1.856,1.58-3.461,1.58
			c-1.623,0-2.805-0.564-3.549-1.693c-0.744-1.129-1.116-2.863-1.116-5.205c0-1.305,0.125-2.49,0.376-3.561
			c0.25-1.07,0.731-1.953,1.442-2.646c0.71-0.695,1.701-1.041,2.972-1.041c1.839,0,3.047,0.604,3.624,1.805
			c0.577,1.205,0.866,2.76,0.866,4.666V138.991z M82.275,137.335h4.791v-0.727c0-0.904-0.18-1.676-0.54-2.32
			c-0.36-0.645-0.957-0.965-1.792-0.965c-0.938,0-1.581,0.4-1.932,1.203c-0.352,0.803-0.527,1.57-0.527,2.309V137.335z"/>
		<path fill="#5D5D5D" d="M100.16,132.019v12.59c0,3.645-1.522,5.469-4.565,5.469c-2.708,0-4.181-1.121-4.415-3.361h2.107
			c0.1,1.137,0.819,1.705,2.157,1.705c1.154,0,1.876-0.293,2.17-0.879c0.292-0.584,0.438-1.293,0.438-2.131v-1.756h-0.05
			c-0.217,0.537-0.614,0.971-1.191,1.305c-0.577,0.334-1.191,0.502-1.844,0.502c-1.153,0-2.044-0.393-2.67-1.18
			c-0.627-0.785-1.033-1.676-1.217-2.67s-0.276-1.953-0.276-2.873c0-2.057,0.334-3.748,1.003-5.078
			c0.669-1.33,1.798-1.994,3.386-1.994c0.686,0,1.309,0.205,1.869,0.615c0.561,0.408,0.907,0.889,1.041,1.441h0.051v-1.705H100.16z
			 M95.47,133.472c-0.92,0-1.56,0.439-1.919,1.318c-0.36,0.879-0.54,2.195-0.54,3.949c0,3.279,0.811,4.916,2.433,4.916
			c1.053,0,1.772-0.42,2.157-1.266s0.577-2.063,0.577-3.65C98.179,135.229,97.276,133.472,95.47,133.472z"/>
		<path fill="#5D5D5D" d="M102.619,129.962v-2.408h2.107v2.408H102.619z M102.619,145.462v-13.443h2.107v13.443H102.619z"/>
		<path fill="#5D5D5D" d="M115.202,135.956h-2.107c0-0.904-0.146-1.568-0.439-1.994c-0.292-0.426-0.807-0.639-1.542-0.639
			c-1.455,0-2.182,0.686-2.182,2.057c0,0.668,0.23,1.131,0.69,1.391s1.333,0.607,2.621,1.041c1.07,0.352,1.885,0.773,2.445,1.268
			c0.56,0.492,0.841,1.334,0.841,2.52c0,1.371-0.398,2.418-1.192,3.137c-0.794,0.719-1.843,1.078-3.147,1.078
			c-1.956,0-3.215-0.49-3.775-1.467c-0.56-0.98-0.84-2.08-0.84-3.299h2.107c0,2.072,0.836,3.109,2.508,3.109
			c0.535,0,1.041-0.162,1.518-0.488c0.476-0.326,0.714-0.908,0.714-1.744c0-0.803-0.255-1.361-0.765-1.68s-1.351-0.67-2.521-1.055
			c-0.686-0.217-1.258-0.447-1.718-0.689s-0.84-0.602-1.141-1.078c-0.302-0.477-0.452-1.158-0.452-2.043
			c0-1.188,0.409-2.104,1.229-2.746c0.819-0.645,1.839-0.967,3.06-0.967c1.187,0,2.082,0.23,2.684,0.689s0.987,0.996,1.154,1.605
			S115.202,135.237,115.202,135.956z"/>
		<path fill="#5D5D5D" d="M118.208,132.019v-3.912h2.107v3.912h2.332v1.656h-2.332v8.627c0,0.535,0.092,0.92,0.275,1.154
			c0.184,0.232,0.552,0.35,1.104,0.35c0.167,0,0.477-0.025,0.928-0.074v1.73c-0.552,0.1-1.121,0.15-1.705,0.15
			c-1.021,0-1.727-0.213-2.12-0.641c-0.393-0.426-0.589-1.1-0.589-2.02v-9.277h-1.957v-1.656H118.208z"/>
		<path fill="#5D5D5D" d="M123.991,145.462v-13.443h2.107v2.006h0.05c0.735-1.572,1.706-2.357,2.909-2.357
			c0.418,0,0.728,0.051,0.928,0.15v2.057c-0.134-0.033-0.289-0.059-0.464-0.074c-0.176-0.016-0.397-0.025-0.665-0.025
			c-0.635,0-1.254,0.279-1.856,0.84c-0.602,0.561-0.903,1.342-0.903,2.346v8.502H123.991z"/>
		<path fill="#5D5D5D" d="M134.745,145.737l-3.963-13.719h2.308l2.659,10.785h0.05l2.357-10.785h2.308l-3.888,14.346
			c-0.201,0.734-0.414,1.346-0.64,1.832c-0.226,0.482-0.573,0.885-1.041,1.203c-0.469,0.316-1.104,0.477-1.906,0.477
			c-0.318,0-0.828-0.025-1.53-0.074v-1.656c0.301,0.051,0.71,0.076,1.229,0.076c0.803,0,1.354-0.436,1.655-1.305L134.745,145.737z"
			/>
		<path fill="#5D5D5D" d="M146.533,145.462l5.166-17.908h2.959l4.816,17.908h-2.307l-1.279-4.916h-5.719l-1.328,4.916H146.533z
			 M153.104,130.087l-2.482,8.652h4.814l-2.281-8.652H153.104z"/>
		<path fill="#5D5D5D" d="M169.473,132.019v12.59c0,3.645-1.523,5.469-4.564,5.469c-2.711,0-4.18-1.121-4.416-3.361h2.107
			c0.1,1.137,0.818,1.705,2.158,1.705c1.152,0,1.875-0.293,2.168-0.879c0.293-0.584,0.439-1.293,0.439-2.131v-1.756h-0.051
			c-0.217,0.537-0.613,0.971-1.189,1.305c-0.578,0.334-1.193,0.502-1.844,0.502c-1.154,0-2.045-0.393-2.672-1.18
			c-0.629-0.785-1.031-1.676-1.215-2.67c-0.186-0.994-0.277-1.953-0.277-2.873c0-2.057,0.334-3.748,1.004-5.078
			c0.668-1.33,1.795-1.994,3.385-1.994c0.686,0,1.309,0.205,1.869,0.615c0.561,0.408,0.906,0.889,1.041,1.441h0.049v-1.705H169.473z
			 M164.781,133.472c-0.92,0-1.559,0.439-1.918,1.318c-0.361,0.879-0.539,2.195-0.539,3.949c0,3.279,0.811,4.916,2.434,4.916
			c1.053,0,1.771-0.42,2.154-1.266c0.385-0.846,0.58-2.063,0.58-3.65C167.492,135.229,166.588,133.472,164.781,133.472z"/>
		<path fill="#5D5D5D" d="M180.766,138.991h-7.072c0,1.539,0.152,2.783,0.451,3.736c0.301,0.953,1.014,1.43,2.133,1.43
			c0.885,0,1.488-0.33,1.807-0.99c0.316-0.66,0.477-1.367,0.477-2.119h2.105c0,1.07-0.35,2.133-1.053,3.186s-1.857,1.58-3.463,1.58
			c-1.619,0-2.803-0.564-3.549-1.693c-0.744-1.129-1.115-2.863-1.115-5.205c0-1.305,0.127-2.49,0.375-3.561
			c0.252-1.07,0.732-1.953,1.443-2.646c0.711-0.695,1.701-1.041,2.973-1.041c1.84,0,3.047,0.604,3.625,1.805
			c0.574,1.205,0.863,2.76,0.863,4.666V138.991z M173.77,137.335h4.791v-0.727c0-0.904-0.182-1.676-0.539-2.32
			c-0.361-0.645-0.959-0.965-1.795-0.965c-0.936,0-1.58,0.4-1.932,1.203c-0.35,0.803-0.525,1.57-0.525,2.309V137.335z"/>
		<path fill="#5D5D5D" d="M182.771,145.462v-13.443h2.006v1.58h0.051c0.266-0.586,0.705-1.055,1.316-1.404
			c0.609-0.352,1.258-0.527,1.943-0.527c1.557,0,2.531,0.402,2.934,1.205s0.604,1.822,0.604,3.059v9.531h-2.107v-9.279
			c0-0.77-0.121-1.414-0.363-1.934c-0.242-0.516-0.781-0.777-1.619-0.777c-0.686,0-1.301,0.227-1.842,0.678
			c-0.545,0.451-0.816,1.131-0.816,2.033v9.279H182.771z"/>
		<path fill="#5D5D5D" d="M202.619,136.106h-2.107c0-0.785-0.172-1.447-0.516-1.98c-0.344-0.537-0.881-0.803-1.617-0.803
			c-0.803,0-1.443,0.367-1.918,1.104c-0.477,0.736-0.715,2.225-0.715,4.463c0,1.455,0.15,2.697,0.453,3.725
			c0.299,1.029,1.002,1.543,2.104,1.543c0.82,0,1.393-0.334,1.719-1.002s0.49-1.455,0.49-2.359h2.107
			c0,1.305-0.355,2.469-1.068,3.486c-0.711,1.021-1.826,1.531-3.348,1.531c-1.621,0-2.805-0.564-3.549-1.693
			c-0.742-1.129-1.115-2.863-1.115-5.205c0-1.305,0.125-2.49,0.377-3.561c0.248-1.07,0.729-1.953,1.441-2.646
			c0.709-0.695,1.701-1.041,2.973-1.041c1.621,0,2.74,0.463,3.361,1.391C202.309,133.987,202.619,135.003,202.619,136.106z"/>
		<path fill="#5D5D5D" d="M207.338,145.737l-3.961-13.719h2.305l2.658,10.785h0.051l2.359-10.785h2.309l-3.891,14.346
			c-0.197,0.734-0.412,1.346-0.637,1.832c-0.227,0.482-0.576,0.885-1.043,1.203c-0.467,0.316-1.102,0.477-1.906,0.477
			c-0.316,0-0.828-0.025-1.527-0.074v-1.656c0.299,0.051,0.709,0.076,1.227,0.076c0.803,0,1.355-0.436,1.654-1.305L207.338,145.737z
			"/>
	</g>
</g>
</svg>
