<?xml version="1.0" encoding="utf-8"?>
<!-- Generator: Adobe Illustrator 16.0.3, SVG Export Plug-In . SVG Version: 6.00 Build 0)  -->
<!DOCTYPE svg PUBLIC "-//W3C//DTD SVG 1.1//EN" "http://www.w3.org/Graphics/SVG/1.1/DTD/svg11.dtd">
<svg version="1.1" id="Layer_1" xmlns="http://www.w3.org/2000/svg" xmlns:xlink="http://www.w3.org/1999/xlink" x="0px" y="0px"
	 width="280px" height="140px" viewBox="0 0 280 140" enable-background="new 0 0 280 140" xml:space="preserve">
<g>
	<path fill-rule="evenodd" clip-rule="evenodd" fill="#5D5D5D" d="M81.974,55.663l-0.197,4.121h0.688
		c0.196-1.179,0.392-1.766,0.784-2.258c0.588-0.687,1.079-0.881,4.021-0.881h0.294v13.044c0,1.079-0.588,1.569-2.256,1.569v0.488
		h7.062v-0.488c-1.864,0-2.256-0.393-2.256-2.157V56.645h0.589c1.961,0,2.55,0.098,3.138,0.392c0.687,0.393,1.079,1.079,1.373,2.747
		H95.9l-0.196-4.121H81.974L81.974,55.663z"/>
	<path fill-rule="evenodd" clip-rule="evenodd" fill="#5D5D5D" d="M97.077,55.663v0.394l0.294,0.096h0.491
		c0.882,0.198,1.274,0.688,1.274,1.571v11.966c0,1.079-0.588,1.569-2.06,1.569v0.488h6.767v-0.488c-1.765,0-2.157-0.49-2.157-1.962
		c0-2.255,0-3.923,0-5.003h1.274l6.179,7.454h3.531v-0.488c-1.079-0.1-1.275-0.197-2.943-2.255L105.61,64
		c3.138-0.688,4.217-2.061,4.315-4.317c0.098-1.372-0.588-2.254-1.766-3.137c-0.882-0.49-2.647-0.884-3.922-0.884H97.077
		L97.077,55.663z M101.687,63.412v-6.081c0-0.588,0.294-0.784,1.274-0.784c2.942,0,4.414,1.078,4.414,3.335
		c0,1.176-0.589,2.157-1.472,2.745C104.825,63.214,103.844,63.412,101.687,63.412L101.687,63.412z"/>
	<path fill-rule="evenodd" clip-rule="evenodd" fill="#5D5D5D" d="M121.792,55.369l-5.787,13.535
		c-0.784,1.764-1.373,2.354-2.255,2.354h-0.099v0.488h4.904v-0.488h-0.294c-0.883,0-1.374-0.393-1.374-0.981l0,0
		c0-0.295,0.099-0.687,0.197-0.981c0-0.098,0.392-0.881,0.98-2.451l0.098-0.394h6.375c0.098,0.197,0.098,0.295,0.098,0.394
		c1.08,2.257,1.374,3.04,1.374,3.531c0,0.685-0.393,0.882-1.667,0.882h-0.099v0.488h6.278v-0.488c-1.08-0.1-1.472-0.393-2.061-1.864
		l-6.178-14.025H121.792L121.792,55.369z M121.4,58.802l2.746,6.669h-5.59L121.4,58.802L121.4,58.802z"/>
	<path fill-rule="evenodd" clip-rule="evenodd" fill="#5D5D5D" d="M131.6,55.663v0.394c1.078,0.096,1.372,0.197,2.158,1.176
		l0.195,0.197V68.61c0,1.96-0.588,2.648-2.353,2.648v0.488h5.688v-0.488c-1.668,0-2.256-0.688-2.256-2.648V58.605l10.79,13.436
		h0.391V58.899c0-1.961,0.393-2.549,1.961-2.747l0.393-0.096v-0.394h-5.787v0.394l0.393,0.096c1.373,0.102,1.963,0.786,1.963,2.453
		v8.729l-9.318-11.672H131.6L131.6,55.663z"/>
	<path fill-rule="evenodd" clip-rule="evenodd" fill="#5D5D5D" d="M159.65,55.271c-0.197,0.589-0.393,0.881-0.787,0.881
		c-0.195,0-0.391-0.096-0.586-0.096l-1.373-0.489c-0.49-0.198-0.982-0.296-1.572-0.296c-2.549,0-4.314,1.766-4.314,4.119
		c0,1.667,0.885,3.04,2.453,4.021l2.355,1.373c0.193,0.195,0.488,0.294,0.686,0.49c1.863,1.373,2.254,1.862,2.254,3.14
		c0,1.666-1.176,2.843-2.939,2.843c-2.158,0-3.73-1.47-4.906-4.414h-0.686l0.783,5.197h0.59c0-0.488,0.295-0.783,0.688-0.783
		c0.098,0,0.295,0,0.391,0l1.963,0.686c0.393,0.098,0.783,0.098,1.273,0.098c3.139,0,5.297-1.764,5.297-4.314
		c0-1.668-0.982-3.236-2.844-4.315l-2.646-1.668c-1.867-1.078-2.65-2.061-2.65-3.236c0-1.275,1.078-2.254,2.549-2.254
		c2.061,0,3.924,1.862,4.416,4.216h0.688l-0.592-5.198H159.65L159.65,55.271z"/>
	<path fill-rule="evenodd" clip-rule="evenodd" fill="#5D5D5D" d="M163.768,55.663v0.394c0.102,0.096,0.199,0.096,0.295,0.096
		c1.373,0.198,1.668,0.493,1.668,1.571V69.59c0,1.177-0.391,1.568-1.963,1.667v0.488h6.768v-0.488h-0.098
		c-1.668,0-2.158-0.49-2.158-1.962v-4.608c0.785,0,1.08,0.098,1.768,0.098c1.469,0,2.646-0.196,3.627-0.588
		c1.668-0.591,2.844-2.257,2.844-4.021c0-1.373-0.686-2.551-2.059-3.629c-0.785-0.588-2.648-0.884-4.021-0.884H163.768
		L163.768,55.663z M168.279,63.705v-6.374c0-0.588,0.195-0.784,0.785-0.784c3.334,0,4.807,1.177,4.807,3.629
		c0,2.353-1.473,3.628-4.119,3.628C169.162,63.803,168.967,63.705,168.279,63.705L168.279,63.705L168.279,63.705z"/>
	<path fill-rule="evenodd" clip-rule="evenodd" fill="#5D5D5D" d="M184.268,55.369l-5.789,13.535
		c-0.684,1.764-1.371,2.354-2.256,2.354l0,0v0.488h4.809v-0.488h-0.197c-0.982,0-1.471-0.393-1.471-0.981l0,0
		c0-0.295,0.098-0.687,0.197-0.981c0-0.098,0.391-0.881,0.979-2.451l0.1-0.394h6.375c0.098,0.197,0.098,0.295,0.098,0.394
		c1.078,2.257,1.373,3.04,1.373,3.531c0,0.685-0.393,0.882-1.668,0.882h-0.098v0.488h6.275v-0.488
		c-1.078-0.1-1.471-0.393-2.061-1.864l-6.178-14.025H184.268L184.268,55.369z M183.875,58.802l2.744,6.669h-5.492L183.875,58.802
		L183.875,58.802z"/>
	<path fill-rule="evenodd" clip-rule="evenodd" fill="#5D5D5D" d="M194.174,55.663v0.394l0.291,0.096h0.492
		c0.881,0.198,1.273,0.688,1.273,1.571v11.966c0,1.079-0.586,1.569-2.057,1.569v0.488h6.766v-0.488c-1.764,0-2.156-0.49-2.156-1.962
		c0-2.255,0-3.923,0-5.003h1.371l6.082,7.454h3.629v-0.488c-1.18-0.1-1.373-0.197-3.043-2.255L202.705,64
		c3.139-0.688,4.215-2.061,4.412-4.317c0.098-1.372-0.686-2.254-1.861-3.137c-0.885-0.49-2.65-0.884-3.924-0.884H194.174
		L194.174,55.663z M198.783,63.412v-6.081c0-0.588,0.291-0.784,1.371-0.784c2.844,0,4.316,1.078,4.316,3.335
		c0,1.176-0.588,2.157-1.473,2.745C202.018,63.214,200.939,63.412,198.783,63.412L198.783,63.412L198.783,63.412z"/>
	<path fill-rule="evenodd" clip-rule="evenodd" fill="#5D5D5D" d="M210.746,55.663v0.394c0.098,0.096,0.197,0.096,0.295,0.096
		c1.471,0.198,1.766,0.493,1.766,1.866v11.277c0,1.472-0.49,1.962-2.061,1.962v0.488h13.143l1.078-4.116h-0.688
		c-0.584,1.176-0.783,1.567-1.469,2.157c-0.785,0.783-1.961,1.078-4.119,1.078c-0.1,0-0.197,0-0.391,0l-1.766-0.098
		c-0.885,0-1.18-0.197-1.18-0.687v-6.376h4.023c1.666,0.099,2.059,0.492,2.254,2.159c0.098,0,0.098,0.098,0.098,0.294h0.59v-5.688
		h-0.59c-0.293,1.766-0.783,2.354-2.158,2.354h-4.217v-5.492c0-0.393,0.098-0.588,0.197-0.686c0.195-0.099,0.688-0.099,2.061-0.099
		c2.551,0,3.727,0.099,4.215,0.392c0.688,0.294,0.885,0.588,1.178,1.864c0,0.097,0.098,0.194,0.098,0.293h0.688l-0.096-3.433
		H210.746L210.746,55.663z"/>
	<path fill-rule="evenodd" clip-rule="evenodd" fill="#5D5D5D" d="M226.047,55.663v0.394c0.98,0.096,1.275,0.197,2.059,1.176
		l0.295,0.197V68.61c0,1.96-0.59,2.648-2.354,2.648v0.488h5.688v-0.488c-1.666,0-2.254-0.688-2.254-2.648V58.605l10.689,13.436
		h0.391V58.899c0-1.961,0.49-2.549,2.061-2.747l0.295-0.096v-0.394h-5.789v0.394l0.393,0.096c1.475,0.102,1.963,0.786,1.963,2.453
		v8.729l-9.316-11.672H226.047L226.047,55.663z"/>
	<path fill-rule="evenodd" clip-rule="evenodd" fill="#5D5D5D" d="M258.018,55.271c-0.193,0.589-0.488,0.785-1.078,0.785
		c-0.098,0-0.193,0-0.295,0l-2.156-0.588c-0.488-0.1-0.982-0.197-1.668-0.197c-5.002,0-8.434,3.531-8.434,8.532
		c0,5.003,3.236,8.238,8.041,8.238c2.844,0,5.199-1.078,6.67-3.039l-0.391-0.492c-1.768,1.767-3.436,2.453-5.492,2.453
		c-3.729,0-5.982-2.747-5.982-7.357c0-4.511,2.156-7.353,5.688-7.353c2.646,0,4.51,1.567,5.295,4.51h0.588l-0.193-5.492H258.018
		L258.018,55.271z"/>
	<path fill-rule="evenodd" clip-rule="evenodd" fill="#5D5D5D" d="M260.863,55.663v0.489c1.078,0.102,1.766,0.591,3.041,2.453
		l4.119,5.983l-0.098,4.806c0,1.471-0.49,1.864-2.453,1.864v0.488h7.551v-0.488c-2.057,0-2.451-0.393-2.451-1.667l-0.098-5.198
		l3.629-5.493l0.197-0.294l0.391-0.587c0.885-1.275,1.568-1.765,2.748-1.962v-0.394h-5.297v0.394
		c1.176,0.096,1.668,0.294,1.668,0.783c0,0.295-0.197,0.687-0.59,1.276l-3.236,5.197l-3.729-5.688
		c-0.193-0.195-0.291-0.588-0.291-0.785c0-0.489,0.195-0.586,1.471-0.688c0,0,0.098,0,0.291-0.096v-0.394H260.863L260.863,55.663z"
		/>
	<path fill-rule="evenodd" clip-rule="evenodd" fill="#5D5D5D" d="M81.385,79.006v0.49h0.294l0.491,0.098
		c1.079,0,1.569,0.49,1.569,1.764v11.477c0,1.471-0.49,1.865-2.354,1.865v0.488h7.258v-0.488c-1.864-0.1-2.354-0.492-2.354-1.865
		V81.357c0-1.273,0.49-1.764,1.961-1.861c0.099,0,0.196,0,0.393,0v-0.49H81.385L81.385,79.006z"/>
	<path fill-rule="evenodd" clip-rule="evenodd" fill="#5D5D5D" d="M89.329,79.006v0.49c1.079,0,1.373,0.195,2.158,1.078l0.196,0.295
		v11.182c0,1.961-0.589,2.648-2.354,2.648v0.488h5.787v-0.488c-1.765-0.1-2.354-0.785-2.354-2.648V82.045l10.788,13.34h0.393V82.242
		c0-1.963,0.49-2.551,2.06-2.746h0.294v-0.49h-5.787v0.49h0.393c1.471,0.195,1.961,0.783,1.961,2.549v8.729l-9.317-11.768H89.329
		L89.329,79.006z"/>
	<path fill-rule="evenodd" clip-rule="evenodd" fill="#5D5D5D" d="M107.179,79.006l-0.196,4.217h0.687
		c0.196-1.178,0.392-1.766,0.785-2.256c0.588-0.785,1.177-0.883,4.021-0.883h0.294v12.945c0,1.178-0.588,1.57-2.255,1.67v0.488
		h7.159v-0.488c-1.961-0.1-2.354-0.492-2.354-2.16V80.084h0.588c1.962,0,2.55,0,3.139,0.295c0.687,0.391,1.078,1.078,1.372,2.844
		h0.687l-0.195-4.217H107.179L107.179,79.006z"/>
	<path fill-rule="evenodd" clip-rule="evenodd" fill="#5D5D5D" d="M121.792,79.006v0.49c0.099,0,0.196,0,0.295,0
		c1.47,0.195,1.863,0.588,1.863,1.961v11.279c0,1.471-0.588,1.863-2.158,1.963v0.488h13.142l1.08-4.217h-0.687
		c-0.588,1.275-0.784,1.668-1.47,2.158c-0.786,0.785-1.962,1.078-4.021,1.078c-0.196,0-0.295,0-0.393,0h-1.863
		c-0.785-0.1-1.177-0.293-1.177-0.688v-6.373h4.021c1.667,0,2.06,0.49,2.354,2.061c0,0.096,0,0.195,0,0.291h0.588V83.91h-0.588
		c-0.294,1.766-0.687,2.354-2.158,2.354h-4.218v-5.592c0-0.293,0.098-0.588,0.295-0.588c0.098-0.098,0.687-0.195,1.961-0.195
		c2.549,0,3.727,0.098,4.314,0.391c0.589,0.295,0.884,0.688,1.177,1.963c0,0,0,0.098,0,0.295h0.785l-0.098-3.531H121.792
		L121.792,79.006z"/>
	<path fill-rule="evenodd" clip-rule="evenodd" fill="#5D5D5D" d="M136.798,79.006v0.49h0.294l0.392,0.098
		c0.883,0.098,1.374,0.588,1.374,1.57v11.865c0,1.178-0.588,1.67-2.059,1.67v0.488h6.766v-0.488c-1.766-0.1-2.158-0.492-2.158-1.963
		c0-2.354,0-4.021-0.098-5.002h1.373l6.082,7.453h3.629v-0.488c-1.178-0.1-1.273-0.197-2.943-2.258l-4.119-5.1
		c3.139-0.588,4.217-1.963,4.314-4.217c0.1-1.471-0.586-2.256-1.766-3.139c-0.979-0.59-2.744-0.98-3.924-0.98H136.798
		L136.798,79.006z M141.309,86.754v-6.082c0-0.588,0.393-0.783,1.373-0.783c2.943,0,4.316,1.178,4.316,3.334
		c0,1.275-0.49,2.256-1.471,2.744C144.545,86.559,143.564,86.754,141.309,86.754L141.309,86.754L141.309,86.754z"/>
	<path fill-rule="evenodd" clip-rule="evenodd" fill="#5D5D5D" d="M152.883,79.006v0.49c1.08,0,1.371,0.195,2.158,1.078l0.193,0.295
		v11.182c0,1.961-0.586,2.648-2.352,2.648v0.488h5.785v-0.488c-1.764-0.1-2.354-0.785-2.354-2.648V82.045l10.789,13.34h0.393V82.242
		c0-1.963,0.49-2.551,2.057-2.746h0.297v-0.49h-5.787v0.49h0.393c1.471,0.195,1.963,0.783,1.963,2.549v8.729L157.1,79.006H152.883
		L152.883,79.006z"/>
	<path fill-rule="evenodd" clip-rule="evenodd" fill="#5D5D5D" d="M178.578,78.711l-5.689,13.535
		c-0.783,1.766-1.373,2.453-2.256,2.453h-0.098v0.488h4.807v-0.488h-0.197c-0.881,0-1.373-0.395-1.373-0.982v-0.1
		c0-0.293,0.1-0.588,0.197-0.881c0-0.098,0.295-0.883,0.982-2.551l0.096-0.293h6.377c0,0.098,0.096,0.197,0.096,0.293
		c0.982,2.256,1.277,3.041,1.277,3.629c0,0.59-0.393,0.885-1.572,0.885h-0.098v0.488h6.279v-0.488
		c-1.078-0.1-1.475-0.395-2.158-1.865l-6.082-14.123H178.578L178.578,78.711z M178.188,82.242l2.844,6.668h-5.592L178.188,82.242
		L178.188,82.242z"/>
	<path fill-rule="evenodd" clip-rule="evenodd" fill="#5D5D5D" d="M186.521,79.006l-0.193,4.217h0.686
		c0.195-1.178,0.393-1.766,0.783-2.256c0.588-0.785,1.08-0.883,4.021-0.883h0.295v12.945c0,1.178-0.59,1.57-2.254,1.67v0.488h7.059
		v-0.488c-1.863-0.1-2.354-0.492-2.354-2.16V80.084h0.688c1.959,0,2.549,0,3.135,0.295c0.688,0.391,1.082,1.078,1.373,2.844h0.689
		l-0.195-4.217H186.521L186.521,79.006z"/>
	<path fill-rule="evenodd" clip-rule="evenodd" fill="#5D5D5D" d="M201.234,79.006v0.49h0.293l0.49,0.098
		c1.178,0,1.57,0.49,1.57,1.764v11.477c0,1.471-0.49,1.865-2.354,1.865v0.488h7.258v-0.488c-1.863-0.1-2.355-0.492-2.355-1.865
		V81.357c0-1.273,0.492-1.764,1.963-1.861c0.098,0,0.195,0,0.393,0v-0.49H201.234L201.234,79.006z"/>
	<path fill-rule="evenodd" clip-rule="evenodd" fill="#5D5D5D" d="M217.318,78.711c-4.414,0.195-7.553,3.629-7.553,8.436
		c0,4.904,3.238,8.336,7.945,8.336s7.943-3.432,7.943-8.436c0-4.902-3.236-8.336-8.041-8.336
		C217.514,78.711,217.416,78.711,217.318,78.711L217.318,78.711L217.318,78.711z M217.711,79.594h0.098
		c3.041,0,5.098,2.943,5.098,7.553s-2.057,7.453-5.195,7.453c-3.236,0-5.199-2.844-5.199-7.65
		C212.512,82.439,214.475,79.594,217.711,79.594L217.711,79.594L217.711,79.594z"/>
	<path fill-rule="evenodd" clip-rule="evenodd" fill="#5D5D5D" d="M226.83,79.006v0.49c0.98,0,1.275,0.195,2.059,1.078l0.297,0.295
		v11.182c0,1.961-0.59,2.648-2.355,2.648v0.488h5.688v-0.488c-1.664-0.1-2.254-0.785-2.254-2.648V82.045l10.689,13.34h0.393V82.242
		c0-1.963,0.492-2.551,2.061-2.746h0.295v-0.49h-5.787v0.49h0.393c1.471,0.195,1.961,0.783,1.961,2.549v8.729l-9.316-11.768H226.83
		L226.83,79.006z"/>
	<path fill-rule="evenodd" clip-rule="evenodd" fill="#5D5D5D" d="M252.527,78.711l-5.787,13.535
		c-0.686,1.766-1.371,2.453-2.256,2.453h-0.098v0.488h4.906v-0.488h-0.199c-0.98,0-1.471-0.395-1.471-0.982v-0.1
		c0-0.293,0.098-0.588,0.195-0.881c0-0.098,0.393-0.883,0.98-2.551l0.1-0.293h6.373c0.102,0.098,0.102,0.197,0.102,0.293
		c1.078,2.256,1.373,3.041,1.373,3.629c0,0.59-0.395,0.885-1.668,0.885h-0.098v0.488h6.275v-0.488
		c-1.08-0.1-1.471-0.395-2.061-1.865l-6.178-14.123H252.527L252.527,78.711z M252.135,82.242l2.744,6.668h-5.49L252.135,82.242
		L252.135,82.242z"/>
	<path fill-rule="evenodd" clip-rule="evenodd" fill="#5D5D5D" d="M261.941,79.006v0.49c0.098,0,0.199,0,0.295,0
		c1.373,0.195,1.766,0.588,1.766,1.668v11.572c0,1.471-0.488,1.863-2.061,1.963v0.488h13.045l1.178-4.314h-0.588
		c-0.59,1.373-1.18,2.156-1.963,2.646c-0.883,0.492-1.766,0.688-3.924,0.688h-0.391h-0.492c-0.098,0-0.195,0-0.293,0
		c-1.666,0-1.963-0.195-1.963-1.078V81.262c0-1.178,0.393-1.57,1.863-1.766h0.393v-0.49H261.941L261.941,79.006z"/>
	<path fill-rule="evenodd" clip-rule="evenodd" fill="#5D5D5D" d="M40.893,43.547c-7.896,4.736-13.916,13.867-16.34,25.053
		c3.612,0.992,7.733,1.557,12.103,1.557c14.195,0,25.775-5.946,25.775-13.234c0-0.416-0.039-0.826-0.112-1.232
		c-2.249-2.994-5.03-5.563-8.202-7.569l0.712-1.064c9.578,5.96,15.977,16.584,15.977,28.657c0,18.574-15.15,33.727-33.726,33.727
		c-18.577,0-33.729-15.152-33.729-33.727c0-18.579,15.151-33.73,33.729-33.73c4.509,0,8.817,0.896,12.757,2.516l-0.515,1.151
		C46.673,44.57,43.846,43.845,40.893,43.547L40.893,43.547z M67.551,66.634c-3.046,9.667-15.528,16.942-30.386,16.942
		c-4.931,0-9.599-0.68-13.748-1.961c0.289,8.074,2.348,15.588,5.665,21.877c0.513,0.152,1.03,0.293,1.554,0.418
		c-2.748-5.445-4.32-11.723-4.32-18.396c0-0.58,0.013-1.154,0.038-1.725c3.37,0.773,7.012,1.176,10.812,1.176
		c0.371,0,0.742-0.006,1.11-0.016c-0.014,0.689-0.014,1.383,0.002,2.08c0.141,6.262,1.444,12.188,3.641,17.443
		c14.955-2.029,26.546-14.904,26.546-30.402C68.465,71.508,68.147,69.017,67.551,66.634L67.551,66.634z M15.167,94.771
		c-2.386-5.156-3.734-11.002-3.734-17.188c0-0.918,0.03-1.828,0.087-2.73c-1.717-1.703-3.079-3.637-4.013-5.772
		c-0.266,1.624-0.409,3.292-0.409,4.989C7.099,82.037,10.161,89.307,15.167,94.771L15.167,94.771z M11.156,58.854
		c0.447,1.557,1.427,3.027,2.838,4.36c2.912-7.828,8.129-14.331,14.692-18.444C21.23,47.094,14.981,52.193,11.156,58.854
		L11.156,58.854z M34.819,55.873c2.987,0,5.424,2.437,5.424,5.426c0,2.987-2.437,5.425-5.424,5.425
		c-2.988,0-5.426-2.438-5.426-5.425C29.393,58.309,31.831,55.873,34.819,55.873L34.819,55.873z"/>
</g>
</svg>
