<?xml version="1.0" encoding="utf-8"?>
<svg viewBox="35.701 6.212 119.133 28.826" width="280" height="140" xmlns="http://www.w3.org/2000/svg">
  <g transform="matrix(0.240933, -0.001301, 0.001557, 0.28825, 35.624073, 6.534437)" style="">
    <linearGradient id="SVGID_1_" gradientUnits="userSpaceOnUse" x1="-220.7149" y1="520.7551" x2="-216.9004" y2="520.7551" gradientTransform="matrix(9.2438 0 0 -9.2438 2034.6313 4826.4585)">
      <stop offset="0" style="stop-color:#D53930"/>
      <stop offset="1" style="stop-color:#A4273A"/>
    </linearGradient>
    <rect class="st0" width="25.88" height="25.41" style="fill: url(#SVGID_1_);"/>
    <polygon class="st1" points="68.88,67.75 36.03,67.75 36.03,99.99 68.88,99.99 101.73,67.75  " style="fill: rgb(167, 169, 172);"/>
    <polygon class="st2" points="3.18,35.5 3.18,67.74 36.03,99.99 36.03,67.74 36.03,35.5  " style="fill: rgb(209, 211, 212);"/>
    <polygon class="st3" points="36.03,3.25 36.03,35.5 68.88,35.5 101.73,35.5 68.88,3.25  " style="fill: rgb(188, 190, 192);"/>
    <rect x="68.88" y="35.5" class="st4" width="32.85" height="32.25" style="fill: rgb(128, 130, 133);"/>
    <linearGradient id="SVGID_2_" gradientUnits="userSpaceOnUse" x1="36.0288" y1="83.875" x2="42.2474" y2="83.875">
      <stop offset="0" style="stop-color:#696969"/>
      <stop offset="1" style="stop-color:#A7A9AC"/>
    </linearGradient>
    <rect x="36.03" y="67.75" class="st5" width="6.22" height="32.25" style="fill: url(#SVGID_2_);"/>
    <linearGradient id="SVGID_3_" gradientUnits="userSpaceOnUse" x1="-25.5038" y1="-66.1451" x2="-19.2888" y2="-66.1451" gradientTransform="matrix(0 1 -1 0 19.1563 60.9844)">
      <stop offset="0" style="stop-color:#454545"/>
      <stop offset="1" style="stop-color:#808285"/>
    </linearGradient>
    <rect x="68.88" y="35.48" class="st6" width="32.85" height="6.21" style="fill: url(#SVGID_3_);"/>
    <path class="st7" d="M494.45,9.01H484.1v58.56c-1.77-5.23-38.1-52.73-42.26-58.56H430v74h10.41V24.34   c1.28,4.33,39.53,53.8,43.01,58.67h11.04V9.01z M409.64,9.01h-11.27v74h11.27V9.01z" style="fill: rgb(205, 53, 50);"/>
    <path class="st4" d="M378.45,30c-1.76-4.54-4.27-8.43-7.52-11.69c-3.25-3.26-7.18-5.79-11.79-7.58s-9.75-2.69-15.42-2.69   c-6.21,0-11.75,0.91-16.64,2.74c-4.88,1.83-9.03,4.44-12.43,7.81c-3.39,3.38-5.98,7.45-7.76,12.24   c-1.78,4.79-2.67,10.11-2.67,15.98c0,5.61,0.9,10.7,2.71,15.27c1.8,4.58,4.36,8.49,7.67,11.75c3.31,3.26,7.32,5.78,12.01,7.55   c4.7,1.77,9.94,2.66,15.73,2.66c1.59,0,3.11-0.07,4.56-0.23c1.45-0.15,2.84-0.35,4.18-0.57l21.64,15.32l7.36-7.15l-15.98-12.87   c5.49-3.24,9.69-7.65,12.61-13.24c2.91-5.58,4.37-12.34,4.37-20.27C381.09,39.55,380.21,34.54,378.45,30 M366.62,58.22   c-1.17,3.53-2.87,6.5-5.1,8.92c-2.22,2.42-4.95,4.27-8.18,5.55c-3.23,1.27-6.9,1.91-11.01,1.91c-3.86,0-7.35-0.68-10.48-2.06   c-3.12-1.37-5.78-3.3-7.99-5.78c-2.2-2.48-3.89-5.47-5.06-8.98c-1.17-3.51-1.76-7.4-1.76-11.67s0.62-8.17,1.85-11.69   c1.24-3.53,2.99-6.55,5.25-9.07c2.27-2.51,5-4.47,8.21-5.86c3.21-1.39,6.78-2.09,10.73-2.09c4.11,0,7.74,0.65,10.89,1.97   c3.14,1.31,5.78,3.21,7.92,5.69c2.14,2.48,3.75,5.5,4.84,9.06s1.64,7.6,1.64,12.09C368.38,50.7,367.79,54.7,366.62,58.22" style="fill: rgb(128, 130, 133);"/>
    <path class="st4" d="M286.93,9.01h-10.35v58.56c-1.76-5.23-38.1-52.73-42.26-58.56h-11.84v74h10.4V24.34   c1.29,4.33,39.53,53.8,43.01,58.68h11.04V9.01z" style="fill: rgb(128, 130, 133);"/>
    <rect x="190.85" y="9.01" class="st4" width="11.27" height="74" style="fill: rgb(128, 130, 133);"/>
    <polygon class="st4" points="176.21,9.01 127.6,9.01 127.6,18.62 146.36,18.62 146.36,83.02 157.57,83.02 157.57,18.62    176.21,18.62  " style="fill: rgb(128, 130, 133);"/>
  </g>
</svg>